<svg width="811" height="402" viewBox="0 0 811 402" fill="none" xmlns="http://www.w3.org/2000/svg">
<path opacity="0.42" d="M115.754 362.105C156.377 362.105 189.308 355.319 189.308 346.947C189.308 338.576 156.377 331.789 115.754 331.789C75.1307 331.789 42.1992 338.576 42.1992 346.947C42.1992 355.319 75.1307 362.105 115.754 362.105Z" fill="#B7B7B7"/>
<path opacity="0.42" d="M796.472 339.164C796.472 347.537 763.548 354.322 722.937 354.322C682.327 354.322 649.383 347.537 649.383 339.164C649.383 330.791 682.307 324.006 722.937 324.006C763.548 324.025 796.472 330.81 796.472 339.164Z" fill="#B7B7B7"/>
<path d="M297.75 314.672V274.473H229.156V261.295L295.024 167.014H316.614V258.785H337.282V274.453H316.614V314.652H297.75V314.672ZM297.75 258.785V209.487C297.75 201.761 297.985 194.035 298.436 186.309H297.75C293.2 194.937 289.573 201.31 285.474 208.115L249.354 258.315V258.766H297.75V258.785Z" fill="#3EC6C9"/>
<path d="M450.624 239.255C450.624 289.455 431.995 317.163 399.286 317.163C370.441 317.163 350.89 290.121 350.439 241.294C350.439 191.78 371.794 164.504 401.777 164.504C432.897 164.504 450.624 192.232 450.624 239.255ZM370.421 241.51C370.421 279.905 382.226 301.71 400.404 301.71C420.857 301.71 430.622 277.865 430.622 240.157C430.622 203.801 421.308 179.956 400.639 179.956C383.148 179.956 370.421 201.311 370.421 241.51Z" fill="#3EC6C9"/>
<path d="M530.787 314.672V274.473H462.193V261.295L528.081 167.014H549.651V258.785H570.319V274.453H549.651V314.652H530.787V314.672ZM530.787 258.785V209.487C530.787 201.761 531.022 194.035 531.473 186.309H530.787C526.237 194.937 522.61 201.31 518.511 208.115L482.391 258.315V258.766H530.787V258.785Z" fill="#3EC6C9"/>
<path d="M367.617 79.0825C367.617 90.1814 360.872 96.0642 352.655 96.0642C344.145 96.0642 338.164 89.4754 338.164 79.71C338.164 69.4739 344.517 62.7871 353.126 62.7871C361.931 62.7871 367.617 69.5327 367.617 79.0825ZM342.615 79.6119C342.615 86.4948 346.341 92.6717 352.891 92.6717C359.499 92.6717 363.225 86.5928 363.225 79.2786C363.225 72.8663 359.872 66.1795 352.95 66.1795C346.067 66.1795 342.615 72.5329 342.615 79.6119Z" fill="#666666"/>
<path d="M400.58 79.0825C400.58 90.1814 393.835 96.0642 385.618 96.0642C377.108 96.0642 371.127 89.4754 371.127 79.71C371.127 69.4739 377.48 62.7871 386.089 62.7871C394.874 62.7871 400.58 69.5327 400.58 79.0825ZM375.559 79.6119C375.559 86.4948 379.284 92.6717 385.834 92.6717C392.442 92.6717 396.168 86.5928 396.168 79.2786C396.168 72.8663 392.815 66.1795 385.893 66.1795C379.01 66.1795 375.559 72.5329 375.559 79.6119Z" fill="#666666"/>
<path d="M405.973 63.69C407.973 63.3566 410.62 63.0625 413.954 63.0625C418.072 63.0625 421.072 64.0234 422.994 65.749C424.758 67.2785 425.817 69.6316 425.817 72.4946C425.817 75.4164 424.955 77.7107 423.327 79.3775C421.131 81.711 417.542 82.9071 413.483 82.9071C412.248 82.9071 411.091 82.8679 410.13 82.613V95.5159H405.973V63.69ZM410.149 79.2402C411.051 79.4755 412.208 79.5736 413.601 79.5736C418.621 79.5736 421.68 77.142 421.68 72.6907C421.68 68.4355 418.66 66.3765 414.071 66.3765C412.248 66.3765 410.875 66.5137 410.149 66.7098V79.2402Z" fill="#666666"/>
<path d="M430.858 90.4755C432.721 91.6128 435.446 92.5737 438.309 92.5737C442.564 92.5737 445.055 90.3186 445.055 87.0831C445.055 84.0632 443.329 82.3572 438.976 80.6708C433.721 78.8079 430.465 76.0822 430.465 71.5329C430.465 66.5129 434.623 62.7871 440.898 62.7871C444.192 62.7871 446.584 63.5519 448.016 64.3559L446.878 67.7483C445.82 67.1796 443.682 66.2187 440.76 66.2187C436.368 66.2187 434.681 68.8464 434.681 71.0426C434.681 74.0625 436.642 75.5332 441.094 77.2588C446.545 79.357 449.31 81.9846 449.31 86.7301C449.31 91.7109 445.623 96.0053 438.035 96.0053C434.936 96.0053 431.524 95.1033 429.818 93.9463L430.858 90.4755Z" fill="#666666"/>
<path d="M463.979 93.0452C463.979 91.2804 465.175 90.0254 466.841 90.0254C468.508 90.0254 469.665 91.2608 469.665 93.0452C469.665 94.7709 468.567 96.0651 466.802 96.0651C465.135 96.0651 463.979 94.7709 463.979 93.0452Z" fill="#666666"/>
<path d="M473.881 93.0452C473.881 91.2804 475.077 90.0254 476.744 90.0254C478.411 90.0254 479.568 91.2608 479.568 93.0452C479.568 94.7709 478.469 96.0651 476.705 96.0651C475.038 96.0651 473.881 94.7709 473.881 93.0452Z" fill="#666666"/>
<path d="M483.783 93.0452C483.783 91.2804 484.979 90.0254 486.646 90.0254C488.313 90.0254 489.47 91.2608 489.47 93.0452C489.47 94.7709 488.372 96.0651 486.607 96.0651C484.94 96.0651 483.783 94.7709 483.783 93.0452Z" fill="#666666"/>
<path d="M236.371 368.655C238.371 368.321 241.019 368.027 244.352 368.027C248.47 368.027 251.47 368.988 253.392 370.714C255.157 372.243 256.216 374.596 256.216 377.459C256.216 380.381 255.353 382.676 253.725 384.342C251.529 386.676 247.941 387.872 243.881 387.872C242.646 387.872 241.489 387.833 240.528 387.578V400.481H236.371V368.655ZM240.548 384.205C241.45 384.44 242.607 384.538 243.999 384.538C249.019 384.538 252.078 382.107 252.078 377.656C252.078 373.4 249.058 371.341 244.47 371.341C242.646 371.341 241.273 371.479 240.548 371.675V384.205Z" fill="#666666"/>
<path d="M263.021 390.361L259.667 400.499H255.373L266.315 368.281H271.335L282.336 400.499H277.885L274.433 390.361H263.021ZM273.59 387.106L270.433 377.831C269.707 375.733 269.237 373.811 268.766 371.948H268.668C268.198 373.85 267.668 375.811 267.041 377.772L263.884 387.087H273.59V387.106Z" fill="#666666"/>
<path d="M310.886 399.067C309.024 399.734 305.337 400.832 300.984 400.832C296.101 400.832 292.081 399.597 288.944 396.577C286.179 393.89 284.453 389.596 284.453 384.576C284.492 374.967 291.101 367.928 301.905 367.928C305.631 367.928 308.553 368.751 309.945 369.418L308.945 372.81C307.22 372.046 305.063 371.418 301.827 371.418C293.983 371.418 288.865 376.301 288.865 384.38C288.865 392.557 293.787 397.381 301.298 397.381C304.023 397.381 305.886 396.989 306.847 396.518V386.91H300.297V383.556H310.906V399.067H310.886Z" fill="#666666"/>
<path d="M333.928 385.4H321.397V397.009H335.359V400.499H317.24V368.281H334.653V371.772H321.417V381.949H333.947V385.4H333.928Z" fill="#666666"/>
<path d="M350.91 400.499V368.281H355.46L365.794 384.577C368.186 388.361 370.049 391.754 371.578 395.048L371.676 395.009C371.304 390.695 371.206 386.792 371.206 381.772V368.281H375.128V400.499H370.912L360.676 384.145C358.421 380.557 356.283 376.87 354.656 373.38L354.518 373.419C354.754 377.478 354.852 381.361 354.852 386.714V400.48H350.91V400.499Z" fill="#666666"/>
<path d="M409.914 384.047C409.914 395.146 403.169 401.029 394.952 401.029C386.442 401.029 380.461 394.421 380.461 384.675C380.461 374.439 386.814 367.752 395.423 367.752C404.227 367.752 409.914 374.498 409.914 384.047ZM384.912 384.577C384.912 391.46 388.638 397.637 395.188 397.637C401.776 397.637 405.522 391.558 405.522 384.243C405.522 377.831 402.168 371.144 395.246 371.144C388.363 371.144 384.912 377.498 384.912 384.577Z" fill="#666666"/>
<path d="M420.246 371.811H410.441V368.281H434.306V371.811H424.462V400.499H420.246V371.811Z" fill="#666666"/>
<path d="M448.035 368.281H465.389V371.772H452.192V382.478H464.389V385.93H452.192V400.519H448.035V368.281Z" fill="#666666"/>
<path d="M498.879 384.047C498.879 395.146 492.133 401.029 483.917 401.029C475.407 401.029 469.426 394.421 469.426 384.675C469.426 374.439 475.779 367.752 484.388 367.752C493.173 367.752 498.879 374.498 498.879 384.047ZM473.857 384.577C473.857 391.46 477.583 397.637 484.133 397.637C490.741 397.637 494.467 391.558 494.467 384.243C494.467 377.831 491.114 371.144 484.192 371.144C477.309 371.144 473.857 377.498 473.857 384.577Z" fill="#666666"/>
<path d="M508.431 368.281V387.361C508.431 394.577 511.627 397.636 515.941 397.636C520.726 397.636 523.785 394.479 523.785 387.361V368.281H528.001V387.067C528.001 396.97 522.785 401.029 515.804 401.029C509.196 401.029 504.234 397.244 504.234 387.263V368.281H508.431Z" fill="#666666"/>
<path d="M535.219 400.499V368.281H539.768L550.102 384.577C552.495 388.361 554.357 391.754 555.887 395.048L555.985 395.009C555.593 390.695 555.514 386.792 555.514 381.772V368.281H559.436V400.499H555.22L544.984 384.145C542.729 380.557 540.592 376.87 538.964 373.38L538.827 373.419C539.062 377.478 539.16 381.361 539.16 386.714V400.48H535.219V400.499Z" fill="#666666"/>
<path d="M566.691 368.714C569.221 368.321 572.241 368.047 575.535 368.047C581.516 368.047 585.771 369.439 588.595 372.067C591.458 374.694 593.144 378.42 593.144 383.636C593.144 388.892 591.517 393.206 588.497 396.167C585.477 399.186 580.516 400.814 574.241 400.814C571.28 400.814 568.79 400.677 566.691 400.422V368.714ZM570.849 397.206C571.907 397.402 573.437 397.441 575.065 397.441C583.967 397.441 588.791 392.461 588.791 383.774C588.83 376.165 584.536 371.341 575.731 371.341C573.574 371.341 571.947 371.537 570.849 371.773V397.206Z" fill="#666666"/>
<path d="M8.3741 241.097C8.3741 241.097 2.56974 237.508 1.11865 242.293C-0.35205 247.058 -0.35205 254.039 1.11865 254.588C2.58935 255.137 11.0214 254.588 11.0214 254.588C11.0214 254.588 13.9824 243.94 8.3741 241.097Z" fill="#E02828"/>
<path d="M151.836 243.92C151.836 243.92 138.815 234.743 135.658 249.45C135.658 249.45 138.717 257.627 140.266 272.569C145.698 273.687 151.052 274.962 156.268 276.393C156.268 262.569 155.189 249.921 151.836 243.92Z" fill="#3EC6C9"/>
<path d="M160.662 334.359L152.681 330.83C152.681 330.83 156.269 301.631 156.269 276.394C151.033 274.963 145.7 273.688 140.268 272.57C141.621 285.63 141.837 303.847 137.876 326.32C137.876 326.32 132.758 340.066 138.405 345.792C144.072 351.517 149.112 349.537 156.25 352.4C163.387 355.263 175.369 355.91 180.212 347.772C185.056 339.654 175.173 325.79 160.662 334.359Z" fill="#3EC6C9"/>
<path d="M72.83 234.645C72.83 234.645 59.8094 225.017 56.6523 240.449C56.6523 240.449 60.6134 251.626 61.8096 271.785C66.8884 270.628 72.0457 269.745 77.2618 269.138C77.2814 254.47 76.2028 241.018 72.83 234.645Z" fill="#3EC6C9"/>
<path d="M81.6538 329.614L73.6728 325.927C73.6728 325.927 77.2221 295.592 77.2613 269.178C72.0452 269.786 66.8684 270.668 61.8092 271.825C62.5739 284.767 62.1817 301.396 58.8678 321.182C58.8678 321.182 53.7497 335.614 59.3972 341.634C65.0643 347.635 70.1039 345.556 77.2417 348.556C84.3795 351.557 96.3608 352.243 101.204 343.713C106.028 335.144 96.1647 320.593 81.6538 329.614Z" fill="#3EC6C9"/>
<path d="M130.481 88.6902C135.991 78.7875 138.187 66.669 133.775 55.6485C133.442 54.9426 133.089 54.2759 132.696 53.668C110.499 61.3548 77.5943 81.8466 61.2793 136.439C89.0461 129.282 114.303 114.967 130.481 88.6902Z" fill="#3EC6C9"/>
<path d="M164.051 40.4316C164.07 41.7651 164.345 42.9416 164.345 42.9416C164.345 42.9416 164.266 41.9808 164.051 40.4316Z" fill="#3EC6C9"/>
<path d="M173.269 57.4146C173.269 57.4146 186.093 58.4539 184.505 53.0221C182.936 47.5707 177.877 49.061 177.877 49.061C177.877 49.061 191.113 38.4916 183.23 33.8834C175.347 29.2556 170.308 43.6292 170.308 43.6292C170.308 43.6292 170.935 37.0209 166.837 36.7071C164.464 36.5111 163.994 38.6485 164.013 40.4721C164.229 42.0213 164.307 42.9821 164.307 42.9821C164.307 42.9821 164.033 41.8056 164.013 40.4721C163.092 33.7657 159.758 15.9801 150.287 17.7253C138.619 19.8627 155.797 45.1196 155.797 45.1196C155.797 45.1196 152.326 42.3154 151.071 45.2764C149.816 48.2374 155.169 49.0806 155.169 49.0806C155.169 49.0806 145.776 49.1591 132.658 53.7084C133.05 54.3163 133.403 54.983 133.736 55.689C138.148 66.7094 135.933 78.8084 130.442 88.7307C114.264 115.027 89.0074 129.322 61.2406 136.479C58.3581 146.088 56.0049 156.736 54.2989 168.56C54.2989 168.56 46.0434 235.938 48.0043 239.193C52.0046 245.9 97.0669 254.175 147.384 252.331C152.071 252.155 156.189 249.017 157.797 244.409L181.838 182.169C189.839 161.462 194.329 139.421 194.741 117.086C195.172 93.1624 191.133 66.8663 173.269 57.4146Z" fill="#3EC6C9"/>
<path d="M88.4197 139.792C86.4391 135.89 81.9878 132.576 72.1439 134.008C58.2409 136.047 46.9263 155.127 40.9062 167.677C59.3979 161.99 76.4384 153.127 88.4197 139.792Z" fill="#3EC6C9"/>
<path d="M45.6913 180.071C53.4174 166.56 68.7519 156.441 85.7728 156.363C87.1454 155.128 88.6554 153.01 89.6946 149.323C89.6946 149.323 90.6359 144.166 88.42 139.773C76.4387 153.108 59.3982 161.971 40.9066 167.658C37.8672 173.992 36.1808 178.659 36.1808 178.659C36.1808 178.659 28.6508 177.776 26.984 187.424C26.984 187.424 26.1408 192.248 29.0822 193.993C29.0822 193.993 0.217258 236.036 6.49224 252.684C6.49224 252.684 5.37451 257.802 10.2572 259.547C10.2572 259.547 13.4536 266.548 18.199 264.077C18.199 264.077 14.2968 273.705 19.3168 275.607C24.3367 277.509 29.9058 276.784 31.8667 268.607C32.357 266.528 33.3766 259.449 35.2395 249.762C30.8078 226.368 32.4746 201.857 45.6913 180.071Z" fill="#3EC6C9"/>
<path d="M45.691 180.071C32.4743 201.837 30.7879 226.369 35.2 249.743C40.671 221.329 53.4563 170.502 82.1644 158.089C82.1644 158.089 83.8508 158.069 85.7725 156.363C68.7516 156.442 53.4171 166.56 45.691 180.071Z" fill="#3EC6C9"/>
<path d="M60.2617 139.93C60.2617 139.93 77.7336 126.341 88.4207 139.793C88.4207 139.793 81.2829 130.459 60.2617 139.93Z" fill="#3EC6C9"/>
<path d="M150.324 17.6851C150.324 17.6851 161.305 13.0769 164.208 42.138C164.208 42.138 162.384 35.9806 166.874 36.667C171.365 37.3533 170.345 43.5891 170.345 43.5891C170.345 43.5891 173.444 30.2547 182.327 33.3726C191.19 36.5101 180.738 46.9619 177.915 49.0208C177.915 49.0208 184.033 47.9423 184.66 53.6486C184.66 53.6486 181.229 48.06 176.326 50.5504C176.326 50.5504 187.386 37.1964 181.287 35.961C175.169 34.7256 170.071 46.4128 170.071 46.4128C170.071 46.4128 169.188 38.3926 166.561 39.5299C163.933 40.6673 164.364 46.1971 164.364 46.1971C164.364 46.1971 159.207 18.744 150.324 17.6851Z" fill="#3EC6C9"/>
<path d="M42.9254 252.566C37.6308 246.33 29.8459 246.879 29.8459 246.879C26.8261 255.331 27.3752 262.39 27.3752 262.39C27.3752 262.39 -2.62712 318.552 12.7858 310.296C24.5318 304.001 37.8269 308.433 43.4744 310.884C44.3568 311.277 45.2981 311.002 45.906 310.375C35.7287 292.236 32.8265 270.607 42.9254 252.566Z" fill="#E02828"/>
<path d="M47.7294 268.156C47.6313 260.587 45.5919 255.704 42.9251 252.547C32.8263 270.587 35.7481 292.217 45.9057 310.355C46.2391 310.002 46.4548 309.551 46.494 309.022C46.945 302.257 47.9451 285.53 47.7294 268.156Z" fill="#ED3E3E"/>
<path d="M141.031 116.162C139.521 119.79 139.364 123.182 140.678 123.77C142.012 124.359 144.306 121.888 145.816 118.26C147.326 114.632 147.483 111.24 146.169 110.652C144.855 110.083 142.561 112.554 141.031 116.162Z" fill="#181818"/>
<path d="M171.288 123.459C170.053 127.185 170.151 130.597 171.504 131.067C172.877 131.538 174.975 128.91 176.21 125.184C177.446 121.459 177.348 118.047 175.975 117.576C174.641 117.105 172.524 119.733 171.288 123.459Z" fill="#181818"/>
<path d="M164.542 101.437C163.307 105.163 163.405 108.575 164.758 109.046C166.131 109.516 168.229 106.889 169.464 103.163C170.699 99.4372 170.601 96.0251 169.229 95.5545C167.895 95.0839 165.778 97.7116 164.542 101.437Z" fill="#181818"/>
<path d="M154.541 154.97C151.07 151.852 146.521 150.186 141.874 150.539C141.795 150.539 141.736 150.558 141.658 150.558C134.324 151.166 132.049 139.989 141.795 137.695C151.541 135.4 162.915 140.675 165.777 148.558C168.307 155.441 161.287 161.03 154.541 154.97Z" fill="#181818"/>
<mask id="mask0_78_1410" style="mask-type:luminance" maskUnits="userSpaceOnUse" x="135" y="137" width="32" height="21">
<path d="M154.541 154.97C151.07 151.852 146.521 150.186 141.874 150.539C141.795 150.539 141.736 150.558 141.658 150.558C134.324 151.166 132.049 139.989 141.795 137.695C151.541 135.4 162.915 140.675 165.777 148.558C168.307 155.441 161.287 161.03 154.541 154.97Z" fill="white"/>
</mask>
<g mask="url(#mask0_78_1410)">
<path d="M161.64 157.817C160.326 161.17 153.914 161.797 147.306 159.209C140.698 156.62 136.403 151.816 137.717 148.463C139.031 145.11 145.443 144.482 152.051 147.071C158.64 149.659 162.934 154.463 161.64 157.817Z" fill="#D04642"/>
</g>
<path d="M202.113 179.052C209.781 146.932 188.23 133.676 188.23 133.676L185.896 140.382L175.562 170.188C171.954 191.445 159.149 180.307 159.149 180.307C158.11 177.032 156.855 180.307 156.855 180.307C156.855 180.307 156.855 167.384 156.855 158.952C156.855 150.52 154.757 147.01 150.796 149.206C146.815 151.403 148.07 168.698 148.07 168.698C145.246 164.423 142.952 168.816 142.952 168.816C142.952 168.816 142.109 166.953 140.128 167.169C138.148 167.384 138.03 169.58 138.03 169.58C137.403 168.482 134.677 164.972 132.167 169.58C129.657 174.169 136.559 199.132 147.874 206.583C150.109 208.054 153.286 209.152 156.973 209.701C175.621 205.505 192.348 195.524 202.113 179.052Z" fill="#3EC6C9"/>
<path d="M156.992 209.7C168.719 211.465 185.779 207.818 195.681 193.679C198.427 189.758 200.643 185.051 202.015 179.423C202.054 179.286 202.074 179.169 202.094 179.031C192.348 195.523 175.621 205.504 156.992 209.7Z" fill="#3EC6C9"/>
<path d="M178.229 184.481C178.229 184.481 167.071 188.206 156.855 180.304C156.855 180.304 160.542 148.458 152.678 148.595C152.678 148.595 145.893 147.086 148.011 167.46C148.011 167.46 144.834 165.42 142.952 168.832C142.952 168.832 139.56 164.93 138.089 169.264C138.089 169.264 133.285 164.871 131.677 170.362C131.677 170.362 125.539 202.639 160.149 210.13C160.149 210.13 131.461 203.188 132.559 171.107C132.559 171.107 132.834 169.185 134.893 169.068C136.951 168.97 138.128 171.382 138.128 171.382C138.128 171.382 138.814 168.224 140.403 168.597C141.991 168.97 143.089 171.185 143.089 171.185C143.089 171.185 143.638 167.617 146.011 168.185C148.384 168.773 148.462 171.519 148.462 171.519C148.462 171.519 147.227 148.595 152.462 149.419C157.698 150.243 156.11 182.029 156.11 182.029C156.11 182.029 168.052 192.05 178.229 184.481Z" fill="#3EC6C9"/>
<path d="M192.916 139.793C192.916 139.793 188.837 163.559 179.189 184.483C179.209 184.483 192.602 163.089 192.916 139.793Z" fill="#3EC6C9"/>
<path d="M46.5152 309.884C46.5152 316.786 37.9656 322.395 27.4353 322.395C16.9051 322.395 8.35547 316.786 8.35547 309.884C8.35547 302.981 16.9051 297.373 27.4353 297.373C37.9852 297.373 46.5152 302.962 46.5152 309.884Z" fill="#C91F1F"/>
<path d="M24.043 310.356V336.24L29.965 311.219C30.1807 310.317 29.7689 309.375 28.9257 308.924C28.1413 308.513 27.0432 308.14 25.8078 308.316C24.7881 308.454 24.043 309.336 24.043 310.356Z" fill="#EAC71B"/>
<path d="M29.2787 332.433C29.2787 335.1 27.1216 337.257 24.4548 337.257C21.7879 337.257 19.6309 335.1 19.6309 332.433C19.6309 329.766 21.7879 327.609 24.4548 327.609C27.1216 327.629 29.2787 329.786 29.2787 332.433Z" fill="#EAC71B"/>
<path d="M629.656 106.381C624.479 102.518 618.204 99.4196 610.654 98.1449C595.28 95.5369 584.789 100.714 578.318 106.165C595.418 107.754 612.576 108.067 629.656 106.381Z" fill="#3EC6C9"/>
<path d="M629.656 106.382C612.596 108.068 595.418 107.754 578.338 106.146C572.612 110.97 570.043 115.971 570.043 115.971C570.043 115.971 556.199 125.54 556.748 129.717C557.297 133.913 559.847 132.443 559.847 132.443C559.847 136.541 562.023 135.717 562.023 135.717C562.023 135.717 558.827 151.836 563.2 152.013C567.573 152.189 570.808 139.012 570.808 139.012C570.808 139.012 570.632 142.286 575.907 141.306C581.162 140.306 580.613 128.344 580.613 128.344C586.084 112.853 602.105 114.775 602.105 114.775C617.086 116.088 628.362 129.599 636.343 144.483C639.304 135.953 641.166 127.089 641.265 118.265C638.264 114.186 634.421 109.951 629.656 106.382Z" fill="#3EC6C9"/>
<path d="M649.992 134.559C649.992 134.559 647.404 126.735 641.246 118.283C641.148 127.107 639.285 135.99 636.324 144.501C646.678 163.816 651.463 185.386 651.463 185.386C654.012 154.051 649.992 134.559 649.992 134.559Z" fill="#3EC6C9"/>
<path d="M764.784 131.834C764.784 131.834 758.587 147.757 766.235 167.072C766.235 167.072 768.725 167.386 772.118 169.072C773.824 158.581 776.49 148.267 779.981 138.148C775.588 135.462 770.568 133.305 764.784 131.834Z" fill="#3EC6C9"/>
<path d="M786.098 142.619C790.098 164.778 796.569 187.583 807.335 208.016C808.178 187.289 805.217 158.934 786.098 142.619Z" fill="#3EC6C9"/>
<path d="M786.099 142.621C784.216 141.013 782.177 139.503 779.961 138.15C776.471 148.269 773.804 158.583 772.098 169.074C781.373 173.663 797.413 188.429 788.079 234.844C788.079 234.844 778.549 242.139 778.569 247.865C778.569 253.61 781.706 255.1 781.706 255.1C781.706 255.1 779.255 260.846 784.157 260.846C789.079 260.846 793.178 261.944 794.531 262.63C795.903 263.317 799.453 261.67 801.355 262.63C803.277 263.591 807.767 263.591 809.414 262.081C811.061 260.571 809.963 239.805 804.218 233.53C804.218 233.53 806.708 222.706 807.296 208.038C796.57 187.586 790.119 164.78 786.099 142.621Z" fill="#3EC6C9"/>
<path d="M683.013 325.066C683.013 325.066 680.68 321.203 678.444 323.634C678.444 323.634 662.031 312.967 654.227 330.713C646.422 348.48 681.405 349.284 690.014 340.93C698.622 332.596 701.309 332.321 701.309 332.321C701.309 332.321 704.799 326.674 701.309 324.242C698.72 322.458 691.7 296.025 690.21 267.787C685.366 268.297 680.542 269.003 675.777 269.925L683.013 325.066Z" fill="#3EC6C9"/>
<path d="M691.092 238.414C691.092 238.414 675.209 224.412 670.914 232.766L675.797 269.965C680.562 269.024 685.366 268.337 690.229 267.828C689.68 257.905 689.817 247.787 691.092 238.414Z" fill="#3EC6C9"/>
<path d="M743.98 316.927C743.98 316.927 746.313 313.064 748.549 315.496C748.549 315.496 764.962 304.828 772.766 322.575C780.571 340.341 745.588 341.145 736.979 332.791C728.371 324.457 725.684 324.183 725.684 324.183C725.684 324.183 722.194 318.535 725.684 316.104C728.273 314.319 735.293 287.886 736.783 259.648C741.627 260.158 746.45 260.864 751.215 261.805L743.98 316.927Z" fill="#3EC6C9"/>
<path d="M735.92 230.275C735.92 230.275 751.803 216.274 756.098 224.627L751.215 261.826C746.45 260.885 741.646 260.199 736.783 259.669C737.332 249.767 737.175 239.648 735.92 230.275Z" fill="#3EC6C9"/>
<path d="M692.111 35.1816C692.327 35.7111 692.543 36.0248 692.543 36.0248C692.543 36.0248 692.386 35.7307 692.111 35.1816Z" fill="#3EC6C9"/>
<path d="M755.645 111.302C759.92 113.93 764.293 116.283 768.744 118.401C765.097 91.026 756.782 65.024 739.761 49.7287C736.565 46.8462 733.055 44.3754 729.212 42.3164C720.878 65.6319 734.565 98.6344 755.645 111.302Z" fill="#3EC6C9"/>
<path d="M755.646 111.304C734.546 98.6556 720.878 65.6335 729.212 42.318C726.192 40.6904 722.976 39.3374 719.525 38.2785C719.525 38.2785 746.351 12.6295 730.742 1.86393C715.133 -8.90159 705.446 33.3369 705.446 33.3369C705.446 33.3369 700.602 22.5714 694.955 26.8854C690.739 30.1014 691.464 33.6114 692.111 35.1998C692.386 35.7489 692.543 36.043 692.543 36.043C692.543 36.043 692.327 35.7293 692.111 35.1998C689.405 29.9249 674.247 1.86393 661.325 9.66845C647.069 18.2769 680.973 43.8475 680.973 43.8475C680.973 43.8475 672.463 50.0049 663.737 65.81C649.736 91.2041 635.205 141.541 654.697 231.254C677.228 236.156 701.034 235.96 724.859 230.666C744.056 226.391 759.038 214.311 769.313 198.644C771.235 177.642 772.588 147.267 768.764 118.422C764.293 116.284 759.92 113.931 755.646 111.304Z" fill="#3EC6C9"/>
<path d="M724.84 230.647C701.015 235.942 677.209 236.138 654.678 231.235C655.325 234.216 656.011 237.216 656.717 240.275C656.717 240.275 672.326 243.511 713.506 240.275C754.685 237.04 765.98 225.47 765.98 225.47C765.98 225.47 767.804 214.842 769.294 198.605C759.039 214.293 744.057 226.372 724.84 230.647Z" fill="#3EC6C9"/>
<path d="M703.721 87.2027C703.858 90.5755 704.976 93.2816 706.211 93.2423C707.447 93.2031 708.349 90.4578 708.211 87.085C708.074 83.7122 706.956 81.0061 705.721 81.0453C704.486 81.0846 703.584 83.8495 703.721 87.2027Z" fill="#181818"/>
<path d="M685.916 110.615C686.053 113.988 687.171 116.694 688.407 116.654C689.642 116.615 690.544 113.87 690.407 110.497C690.269 107.124 689.152 104.418 687.916 104.457C686.681 104.497 685.779 107.262 685.916 110.615Z" fill="#181818"/>
<path d="M724.682 104.481C723.447 104.52 722.545 107.265 722.682 110.638C722.819 114.011 723.937 116.717 725.172 116.678C726.408 116.639 727.31 113.893 727.172 110.521C727.035 107.148 725.917 104.442 724.682 104.481Z" fill="#181818"/>
<path d="M691.09 134.303C691.09 134.303 705.464 124.381 724.936 132.186C724.916 132.186 706.483 120.832 691.09 134.303Z" fill="#191B1B"/>
<path d="M688.148 131.771C688.148 131.771 692.619 132.164 692.306 137.988C692.306 137.988 691.56 133.968 688.148 131.771Z" fill="#191B1B"/>
<path d="M724.133 136.441C724.133 136.441 724.878 132.421 728.29 130.225C728.29 130.206 723.819 130.598 724.133 136.441Z" fill="#191B1B"/>
<path d="M701.523 136.44C701.523 136.44 707.818 133.93 714.917 136.44C714.917 136.44 708.151 131.891 701.523 136.44Z" fill="#191B1B"/>
<path d="M661.305 9.64875C661.305 9.64875 675.09 -1.41091 692.523 36.0233C692.523 36.0233 678.62 9.90367 661.305 9.64875Z" fill="#3EC6C9"/>
<path d="M733.724 18.885C737.351 12.257 736.312 -1.94015 724.37 0.216881C712.447 2.37391 705.427 33.337 705.427 33.337C700.564 24.4736 697.172 24.1207 693.524 28.1602C689.858 32.1801 692.524 36.0431 692.524 36.0431C692.466 30.9839 696.25 29.5132 696.25 29.5132C703.604 28.8661 706.29 41.9259 706.29 41.9259C706.29 41.9259 714.095 6.00163 724.605 3.51125C735.135 1.02086 733.724 18.885 733.724 18.885Z" fill="#3EC6C9"/>
</svg>
