<svg width="1021" height="990" viewBox="0 0 1021 990" fill="none" xmlns="http://www.w3.org/2000/svg">
<g clip-path="url(#clip0_22_14714)">
<path d="M167.776 834.433C166.65 831.318 164.925 828.395 162.53 826.119C160.589 824.251 158.265 822.861 156.372 820.944C151.006 815.554 150.048 807.049 151.365 799.55C152.659 792.051 155.869 785.008 157.666 777.604C159.463 770.201 159.679 761.864 155.462 755.515C152.012 750.34 146.071 747.154 142.908 741.811C137.709 733.043 141.543 721.447 137.853 711.96C137.23 710.378 136.392 708.869 135.361 707.527C134.211 705.659 132.726 704.03 130.714 702.904C128.749 701.802 126.473 701.346 124.197 701.442C121.945 701.346 119.669 701.802 117.68 702.904C115.668 704.03 114.183 705.659 113.033 707.527C112.002 708.893 111.14 710.378 110.541 711.96C106.827 721.447 110.661 733.043 105.486 741.811C102.323 747.154 96.3578 750.34 92.9318 755.515C88.7152 761.864 88.9308 770.201 90.7277 777.604C92.5245 785.008 95.7109 792.051 97.0286 799.55C98.3223 807.049 97.388 815.554 92.0214 820.944C90.1287 822.837 87.7808 824.251 85.8642 826.119C83.4684 828.395 81.7434 831.342 80.6174 834.433C77.455 843.106 79.0122 853.144 83.9236 860.93C91.4943 873.005 105.007 876.263 116.291 883.594C117.01 884.05 117.776 884.505 118.543 884.912C119.166 885.463 119.861 885.966 120.699 886.302C121.849 886.757 123.047 886.877 124.269 886.781C125.467 886.877 126.665 886.757 127.839 886.302C128.677 885.966 129.348 885.463 129.995 884.912C130.761 884.505 131.528 884.05 132.247 883.594C143.531 876.287 157.043 873.005 164.614 860.93C169.382 853.12 170.939 843.082 167.776 834.433Z" fill="white"/>
<path d="M152.467 941.048C150.934 943.156 149.185 944.953 147.196 946.342H101.101C83.1326 933.86 85.1211 888.316 85.9597 876.649C86.0555 875.115 87.3492 873.941 88.8825 873.941H159.415C160.972 873.941 162.242 875.115 162.362 876.649C163.08 887.022 164.733 924.157 152.467 941.048Z" fill="#6376BF"/>
<path opacity="0.5" d="M152.467 941.048C150.934 943.156 149.185 944.953 147.196 946.342H101.101C83.1326 933.86 85.1211 888.316 85.9597 876.649C86.0555 875.115 87.3492 873.941 88.8825 873.941H91.2544C100.598 892.94 125.179 937.238 152.467 941.048Z" fill="#6376BF"/>
<path d="M939.512 490.01C939.608 485.099 935.75 480.978 930.911 480.139C919.1 478.055 887.978 472.593 886.349 472.305C884.959 472.065 887.81 430.067 887.978 427.528C890.182 425.587 891.548 422.832 891.716 419.789C891.74 419.43 891.74 419.023 891.572 418.687C891.404 418.352 891.045 418.088 890.685 418.16C890.35 418.208 890.134 418.519 889.919 418.783C889.152 419.717 888.218 420.484 887.164 421.059C886.325 418.424 887.211 415.573 887.763 412.865C887.906 412.171 887.882 411.212 887.188 411.021C886.589 410.853 886.085 411.476 885.822 412.027C885.127 413.368 884.672 414.83 884.456 416.315C884.648 414.518 884.816 412.698 885.007 410.901C885.055 410.35 885.007 409.607 884.456 409.487C884.025 409.367 883.642 409.751 883.378 410.086C881.965 411.931 881.15 414.255 881.126 416.579C881.126 414.638 881.126 412.722 881.15 410.781C881.15 410.541 881.15 410.278 880.982 410.11C880.767 409.871 880.36 409.871 880.096 410.062C879.832 410.23 879.665 410.541 879.521 410.829C878.539 412.77 877.892 414.878 877.58 417.034C877.413 416.172 877.245 415.309 877.077 414.423C876.981 413.896 876.742 413.273 876.215 413.273C875.712 413.273 875.448 413.848 875.352 414.327C874.825 416.77 875.161 419.31 875.927 421.682C876.454 423.359 877.221 424.964 878.012 426.545C875.424 436.464 863.972 482.056 871.495 486.249C879.952 490.944 927.317 503.738 930.312 503.426C932.396 503.187 939.368 497.149 939.512 490.01Z" fill="#FFC68A"/>
<path d="M874.155 434.691L888.386 438.477C888.386 438.477 886.59 470.94 887.165 471.107C887.74 471.275 935.895 477.408 938.387 483.757C940.878 490.106 940.351 500.887 930.529 504.241C920.706 507.595 869.795 490.585 868.406 483.829C865.938 471.706 874.155 434.691 874.155 434.691Z" fill="#3EC6C9"/>
<path opacity="0.5" d="M887.189 471.106C887.189 471.106 880.577 470.794 880.792 472.639C881.032 474.532 887.189 471.106 887.189 471.106Z" fill="#3EC6C9"/>
<path opacity="0.5" d="M887.192 471.104C887.192 471.104 885.275 473.667 885.97 475.272C886.641 476.901 887.192 471.104 887.192 471.104Z" fill="#3EC6C9"/>
<path d="M940.998 459.345L936.182 480.979L920.777 479.254L922.311 472.234L923.389 467.323L925.856 455.967L940.998 459.345Z" fill="#FFC68A"/>
<path d="M935.511 466.125C935.511 466.125 929.33 474.151 922.311 472.234L923.389 467.323C924.083 467.467 931.582 468.88 935.511 466.125Z" fill="#EDAF6B"/>
<path d="M936.783 551.174L901.349 551.893C901.349 551.893 903.889 538.907 903.482 528.39C903.386 525.539 903.003 522.592 902.547 519.693C902.044 516.555 901.445 513.512 900.99 510.733C900.99 510.733 900.99 510.733 900.966 510.733C900.439 507.45 900.056 504.6 900.223 502.491C901.182 490.872 920.779 479.252 920.779 479.252L936.184 480.977C936.184 480.977 940.832 486.511 942.389 492.836C944.45 501.197 936.783 551.174 936.783 551.174Z" fill="#3EC6C9"/>
<path d="M937.405 490.874C936.111 486.131 931.223 483.28 926.36 483.831C914.453 485.196 883.068 488.766 881.415 488.958C880.001 489.125 870.825 448.037 870.274 445.57C871.832 443.078 872.359 440.059 871.664 437.089C871.568 436.729 871.472 436.346 871.233 436.082C870.993 435.795 870.562 435.651 870.226 435.819C869.915 435.963 869.795 436.322 869.651 436.633C869.196 437.736 868.501 438.742 867.663 439.58C866.106 437.28 866.154 434.31 865.914 431.554C865.842 430.836 865.555 429.925 864.836 429.949C864.213 429.973 863.925 430.692 863.806 431.315C863.518 432.8 863.494 434.334 863.71 435.819C863.374 434.022 863.039 432.249 862.68 430.452C862.584 429.901 862.32 429.23 861.769 429.23C861.338 429.254 861.051 429.71 860.907 430.117C860.068 432.297 859.948 434.741 860.571 436.993C860.02 435.148 859.493 433.279 858.942 431.435C858.87 431.219 858.798 430.955 858.607 430.836C858.343 430.668 857.96 430.788 857.744 431.027C857.529 431.267 857.457 431.602 857.409 431.914C857.026 434.046 857.002 436.25 857.313 438.406C856.906 437.616 856.498 436.825 856.091 436.058C855.852 435.579 855.444 435.052 854.941 435.196C854.462 435.34 854.39 435.963 854.414 436.442C854.606 438.933 855.636 441.281 857.05 443.342C858.032 444.803 859.206 446.121 860.428 447.415C860.763 457.645 862.704 504.626 871.113 506.495C880.552 508.603 929.618 507.429 932.397 506.279C934.338 505.537 939.297 497.774 937.405 490.874Z" fill="#FFC68A"/>
<path d="M859.061 456.376L873.795 455.969C873.795 455.969 881.294 487.617 881.892 487.617C882.491 487.617 930.407 479.831 934.6 485.221C938.793 490.612 941.332 501.106 932.875 507.095C924.418 513.085 870.776 511.24 867.518 505.154C861.648 494.206 859.061 456.376 859.061 456.376Z" fill="#3EC6C9"/>
<path opacity="0.5" d="M881.869 487.615C881.869 487.615 875.424 489.196 876.167 490.921C876.934 492.622 881.869 487.615 881.869 487.615Z" fill="#3EC6C9"/>
<path opacity="0.5" d="M881.868 487.615C881.868 487.615 880.742 490.61 881.868 491.952C882.994 493.293 881.868 487.615 881.868 487.615Z" fill="#3EC6C9"/>
<path opacity="0.5" d="M927.222 509.084C926.312 509.707 911.697 519.506 902.546 519.697C902.042 516.559 901.443 513.516 900.988 510.737C900.988 510.737 919.723 510.857 927.222 509.084Z" fill="#3EC6C9"/>
<path d="M923.272 669.578C923.152 672.741 923.009 675.975 922.841 679.209C921.308 711.001 917.906 744.782 917.906 744.782L903.195 742.746L901.183 742.458L899.865 669.578H923.272Z" fill="#FFC68A"/>
<path opacity="0.5" d="M923.272 669.578C923.152 672.741 923.009 675.975 922.841 679.209C918.552 679.832 909.976 680.79 904.896 679.76L903.195 742.746L901.183 742.458L899.865 669.578H923.272Z" fill="#FFC68A"/>
<path d="M922.073 750.246C921.953 748.378 921.569 746.557 921.186 744.736C921.114 744.377 921.042 743.993 920.875 743.658C920.659 743.131 920.3 742.676 919.868 742.292C918.91 741.382 917.401 741.142 916.275 741.813C914.957 742.604 913.352 742.891 911.843 742.58C910.381 742.292 909.087 741.478 907.89 740.615C906.668 739.753 905.494 738.843 904.128 738.244C902.762 737.669 901.157 737.453 899.816 738.076C898.474 738.699 897.516 740.304 897.971 741.717C893.012 742.149 887.813 743.634 883.357 745.814C882.446 746.245 881.536 746.749 880.865 747.491C880.194 748.234 879.763 749.288 880.002 750.27L922.073 750.246Z" fill="#143C4A"/>
<path d="M943.612 669.578C943.468 673.603 943.277 677.7 943.061 681.821C941.456 712.846 938.245 744.782 938.245 744.782L923.966 742.794L921.523 742.458L920.205 669.578H943.612Z" fill="#FFC68A"/>
<path opacity="0.5" d="M943.612 669.578C943.468 673.603 943.277 677.7 943.061 681.821C936.257 683.138 923.966 682.204 923.966 682.204V742.794L921.523 742.458L920.205 669.578H943.612Z" fill="#FFC68A"/>
<path d="M942.414 750.246C942.295 748.378 941.911 746.557 941.528 744.736C941.456 744.377 941.384 743.993 941.216 743.658C941.001 743.131 940.642 742.676 940.21 742.292C939.252 741.382 937.743 741.142 936.617 741.813C935.299 742.604 933.694 742.891 932.184 742.58C930.723 742.292 929.429 741.478 928.231 740.615C927.009 739.753 925.835 738.843 924.47 738.244C923.104 737.669 921.499 737.453 920.157 738.076C918.816 738.699 917.857 740.304 918.313 741.717C913.353 742.149 908.155 743.634 903.698 745.814C902.788 746.245 901.878 746.749 901.207 747.491C900.536 748.234 900.105 749.288 900.344 750.27L942.414 750.246Z" fill="#143C4A"/>
<path d="M956.309 676.573C952.883 678.011 946.534 678.634 939.179 678.801C938.388 678.825 937.598 678.825 936.783 678.825C918.144 679.017 894.593 676.573 894.593 676.573C894.593 676.573 891.311 595.428 891.622 582.538C891.91 569.649 901.349 551.896 901.349 551.896L930.77 551.321L933.309 551.273L936.975 551.201C944.306 554.028 952.404 568.451 954.201 579.232C955.997 590.013 956.309 676.573 956.309 676.573Z" fill="#143C4A"/>
<g opacity="0.5">
<path d="M939.181 678.8C938.39 678.824 937.6 678.824 936.785 678.824C936.641 662.604 935.851 593.006 935.323 577.793C934.94 566.317 932.401 556.518 930.771 551.319L933.311 551.271C934.964 556.734 937.336 566.341 937.719 577.697C938.246 592.934 939.037 662.58 939.181 678.8Z" fill="#143C4A"/>
</g>
<path d="M949.84 451.102C949.529 450.718 949.169 450.503 948.786 450.335C948.858 448.298 948.762 446.31 948.69 444.417C948.594 442.093 947.372 440.033 945.456 439.003C940.736 436.415 931.345 432.366 923.654 435.768C921.953 436.535 920.635 438.092 920.084 439.961C919.078 443.267 918.359 444.801 917.162 450.527C916.706 452.659 916.347 454.743 916.107 456.636C915.724 459.774 915.748 462.362 916.443 463.656C919.246 468.83 935.489 469.717 943.563 462.697C944.881 461.547 945.863 460.301 946.606 458.984C949.672 457.211 951.397 452.898 949.84 451.102Z" fill="#FFC68A"/>
<path d="M935.968 457.884C935.585 459.609 933.884 460.687 932.183 460.304C930.458 459.921 929.38 458.22 929.763 456.519C930.146 454.794 931.847 453.716 933.548 454.099C935.273 454.482 936.351 456.183 935.968 457.884Z" fill="#FFD5A8"/>
<path d="M919.053 454.122C918.742 455.535 917.52 456.517 916.154 456.613C916.394 454.721 916.753 452.636 917.208 450.504C918.574 451.079 919.389 452.588 919.053 454.122Z" fill="#FFD5A8"/>
<path d="M925.258 446.84C925.546 447.702 925.426 448.685 925.114 449.523C924.803 450.386 924.3 451.176 923.725 451.871C923.437 452.23 923.126 452.542 922.958 452.829C922.766 453.117 922.743 453.428 922.814 453.788C922.958 454.506 923.653 455.057 924.491 455.369C923.629 455.465 922.551 455.033 922.144 454.027C921.928 453.548 921.952 452.925 922.215 452.446C922.479 451.967 922.79 451.655 923.054 451.32C923.605 450.673 924.084 449.978 924.491 449.26C924.875 448.517 925.186 447.726 925.258 446.84Z" fill="#EDAF6B"/>
<path d="M928.681 446C929.089 445.76 929.52 445.712 929.951 445.736C930.382 445.784 930.814 445.928 931.197 446.143C931.604 446.335 931.94 446.67 932.179 447.006C932.443 447.341 932.586 447.772 932.682 448.156C932.706 448.299 932.634 448.419 932.491 448.467C932.395 448.491 932.299 448.443 932.227 448.371L932.203 448.347C931.988 448.06 931.772 447.796 931.532 447.581C931.293 447.365 931.005 447.221 930.742 447.102C930.167 446.862 929.52 446.958 928.849 446.766L928.753 446.742C928.538 446.67 928.418 446.455 928.49 446.239C928.538 446.119 928.586 446.047 928.681 446Z" fill="#523329"/>
<path d="M923.531 445.593C922.836 445.497 922.309 445.114 921.662 445.09C921.35 445.066 921.039 445.09 920.728 445.186C920.416 445.258 920.105 445.425 919.793 445.593L919.769 445.617C919.649 445.689 919.506 445.641 919.434 445.521C919.386 445.425 919.386 445.33 919.458 445.234C919.697 444.922 920.009 444.587 920.392 444.395C920.775 444.18 921.207 444.036 921.662 444.036C922.117 444.012 922.548 444.084 922.98 444.204C923.387 444.347 923.746 444.587 924.01 444.97C924.13 445.162 924.082 445.425 923.89 445.545C923.794 445.617 923.698 445.617 923.603 445.617L923.531 445.593Z" fill="#523329"/>
<path d="M922.957 457.86C924.059 458.076 925.065 458.244 925.952 458.028C926.407 457.932 926.814 457.741 927.198 457.453C927.605 457.166 927.94 456.782 928.348 456.375C928.276 456.926 928.084 457.501 927.701 457.956C927.341 458.435 926.766 458.771 926.167 458.915C925.568 459.034 924.946 458.986 924.395 458.795C923.82 458.603 923.316 458.292 922.957 457.86Z" fill="#EDAF6B"/>
<path d="M929.475 451.294C929.259 452.276 928.589 452.971 928.014 452.851C927.415 452.731 927.127 451.821 927.343 450.815C927.558 449.833 928.229 449.138 928.804 449.258C929.403 449.377 929.691 450.288 929.475 451.294Z" fill="#523329"/>
<path d="M921.881 449.595C921.666 450.577 920.995 451.272 920.42 451.152C919.821 451.032 919.533 450.122 919.749 449.116C919.965 448.133 920.636 447.439 921.211 447.558C921.809 447.702 922.121 448.613 921.881 449.595Z" fill="#523329"/>
<path d="M947.418 454.77C947.299 454.314 946.939 454.027 946.556 453.907C946.173 453.763 945.765 453.835 945.382 453.955C944.615 454.242 943.873 454.746 943.25 455.297C943.082 455.44 942.842 455.416 942.723 455.273C942.603 455.129 942.603 454.913 942.723 454.77C943.178 454.243 943.873 454.123 944.448 454.147C944.735 454.147 945.047 454.219 945.334 454.338C945.622 454.458 945.933 454.722 946.053 455.057C946.292 455.728 946.005 456.399 945.502 456.758C944.999 457.093 944.424 457.141 943.897 457.07C944.424 456.974 944.927 456.782 945.238 456.447C945.55 456.135 945.646 455.608 945.478 455.321C945.334 455.009 944.879 454.913 944.424 454.889C943.969 454.889 943.537 455.009 943.274 455.297L942.747 454.77C943.465 454.171 944.28 453.644 945.238 453.452C945.717 453.356 946.268 453.38 946.7 453.644C947.131 453.835 947.466 454.29 947.418 454.77Z" fill="#EDAF6B"/>
<path d="M963.641 491.877C962.059 488.283 960.095 484.881 958.657 481.239C957.196 477.598 956.262 473.645 956.861 469.788C957.244 467.32 958.226 464.996 958.61 462.528C959.065 459.534 958.61 456.371 957.268 453.64C955.543 450.094 952.38 447.052 952.165 443.122C952.165 443.122 951.518 433.779 940.473 431.143C934.915 429.826 930.387 430.497 926.937 431.79C921.499 433.851 917.57 438.738 916.42 444.44C914.886 452.059 915.892 460.348 915.892 460.348C915.629 456.467 919.127 442.739 919.127 442.739C921.69 443.434 929.189 439.744 932.711 440.08C938.006 440.559 937.838 445.614 937.838 445.614C937.838 445.614 937.718 448.417 938.389 450.885C937.982 452.035 937.91 453.281 938.317 454.407C938.7 455.413 939.275 456.036 939.443 456.683C939.635 457.258 939.323 458 938.748 458.336H938.724C938.533 458.432 938.461 458.671 938.533 458.863C938.629 459.078 938.868 459.198 939.108 459.102C940.114 458.719 940.809 457.617 940.665 456.467C940.521 455.365 939.97 454.574 939.874 453.903C939.826 453.736 939.85 453.568 939.85 453.376C940.569 452.897 943.396 451.076 945.864 450.334C948.068 449.687 950.344 451.675 949.721 453.903C949.721 453.927 949.697 453.951 949.697 453.975C949.074 456.06 943.588 462.888 939.491 465.26L936.161 480.928C943.995 495.279 941.743 512.577 941.743 512.577C944.259 512.049 946.655 511.522 949.194 510.995C952.596 510.277 956.07 509.534 959.113 507.833C962.155 506.132 964.743 503.281 965.246 499.831C965.677 497.148 964.743 494.392 963.641 491.877Z" fill="#523329"/>
<path d="M924.178 785.361L923.22 776.018H878.658L879.64 785.361H924.178Z" fill="#3EC6C9"/>
<path d="M914.479 823.189L913.521 813.846H868.959L869.917 823.189H914.479Z" fill="#3EC6C9"/>
<path d="M904.774 861.021L903.816 851.678H859.254L860.212 861.021H904.774Z" fill="#3EC6C9"/>
<path d="M895.069 898.824L894.111 889.48H849.549L850.507 898.824H895.069Z" fill="#3EC6C9"/>
<path d="M877.797 945.807H889.967L934.026 750.07H921.832L877.797 945.807Z" fill="#3EC6C9"/>
<path d="M836.301 945.807H848.471L892.506 750.07H880.336L836.301 945.807Z" fill="#3EC6C9"/>
<path opacity="0.5" d="M884.097 750.07L840.038 945.807H836.301L880.359 750.07H884.097Z" fill="#3EC6C9"/>
<path d="M850.46 943.293H835.486V945.809H850.46V943.293Z" fill="#BA3836"/>
<path d="M891.597 943.293H876.623V945.809H891.597V943.293Z" fill="#BA3836"/>
<path d="M943.219 785.375V776.031H898.657V785.375H943.219Z" fill="#3EC6C9"/>
<path opacity="0.8" d="M935.966 778.413H906.666L905.875 776.018H935.176L935.966 778.413Z" fill="#3EC6C9"/>
<path d="M956.85 823.199V813.855H912.288V823.199H956.85Z" fill="#3EC6C9"/>
<path opacity="0.8" d="M948.548 816.245H919.248L918.457 813.85H947.758L948.548 816.245Z" fill="#3EC6C9"/>
<path d="M970.475 861.021V851.678H925.913V861.021H970.475Z" fill="#3EC6C9"/>
<path opacity="0.8" d="M960.933 854.077H931.632L930.842 851.682H960.118L960.933 854.077Z" fill="#3EC6C9"/>
<path d="M984.125 898.844V889.5H939.563V898.844H984.125Z" fill="#3EC6C9"/>
<path opacity="0.8" d="M973.292 891.882H943.992L943.201 889.486H972.502L973.292 891.882Z" fill="#3EC6C9"/>
<path d="M961.722 945.807H949.551L885.152 750.07H897.323L961.722 945.807Z" fill="#3EC6C9"/>
<path d="M962.778 943.293H947.805V945.809H962.778V943.293Z" fill="#BA3836"/>
<path d="M1003.22 945.807H991.047L926.648 750.07H938.819L1003.22 945.807Z" fill="#3EC6C9"/>
<path d="M1004.23 943.293H989.254V945.809H1004.23V943.293Z" fill="#BA3836"/>
<path d="M872.43 758.169V751.221C872.43 750.551 872.957 750.023 873.628 750.023H947.011C947.682 750.023 948.209 750.551 948.209 751.221V758.169C948.209 758.84 947.682 759.367 947.011 759.367H873.628C872.957 759.367 872.43 758.84 872.43 758.169Z" fill="#3EC6C9"/>
<path opacity="0.8" d="M948.209 751.221V755.893C948.209 755.246 947.682 754.695 947.011 754.695H873.628C872.957 754.695 872.43 755.246 872.43 755.893V751.221C872.43 750.574 872.957 750.023 873.628 750.023H947.011C947.682 750.023 948.209 750.574 948.209 751.221Z" fill="#3EC6C9"/>
<path d="M193.027 0H187.182V376.044H193.027V0Z" fill="#B4CBDD"/>
<path d="M837.328 430.665L831.506 430.186L836.297 372.567C836.848 365.859 841.496 360.492 848.109 358.887C854.505 357.354 860.878 359.941 864.304 365.475L864.472 365.739C868.784 372.902 870.27 381.096 871.707 389.002C871.995 390.607 872.282 392.212 872.618 393.818C875.373 407.761 879.805 417.177 886.561 423.43L882.584 427.718C874.87 420.579 869.886 410.181 866.868 394.944C866.556 393.315 866.245 391.685 865.957 390.032C864.544 382.294 863.226 374.987 859.465 368.758L859.345 368.542C856.829 364.469 852.589 363.798 849.474 364.565C846.336 365.308 842.527 367.991 842.119 373.046L837.328 430.665Z" fill="#B4CBDD"/>
<path d="M846.574 0H840.729V202.708H846.574V0Z" fill="#B4CBDD"/>
<path d="M795.425 731.629L174.53 679.928C165.091 679.137 158.071 670.848 158.862 661.409L187.324 319.6C187.851 313.275 193.409 308.58 199.734 309.107L831.936 361.742C838.261 362.269 842.957 367.828 842.43 374.153L813.968 715.961C813.177 725.4 804.888 732.42 795.425 731.629Z" fill="white"/>
<path d="M841.374 386.562L186.268 332.034L187.298 319.624C187.825 313.299 193.383 308.603 199.708 309.13L831.911 361.766C838.236 362.293 842.931 367.851 842.404 374.176L841.374 386.562Z" fill="#B4CBDD"/>
<path d="M770.484 368.643C770.221 371.926 767.322 374.369 764.04 374.082C760.757 373.818 758.314 370.919 758.601 367.637C758.865 364.355 761.763 361.911 765.046 362.199C768.328 362.486 770.772 365.361 770.484 368.643Z" fill="#FFF0EB"/>
<path d="M795.976 370.776C795.713 374.058 792.814 376.502 789.532 376.215C786.249 375.951 783.806 373.052 784.093 369.77C784.357 366.488 787.256 364.044 790.538 364.332C793.796 364.595 796.24 367.494 795.976 370.776Z" fill="#FFF0EB"/>
<path d="M821.441 372.884C821.178 376.166 818.279 378.61 814.997 378.322C811.714 378.059 809.271 375.16 809.558 371.877C809.822 368.595 812.721 366.152 816.003 366.439C819.285 366.726 821.729 369.601 821.441 372.884Z" fill="#FFF0EB"/>
<path d="M486.492 444.015L480.119 443.488L479.424 451.705L470.584 450.963L471.278 442.745L450.195 440.996L450.698 434.911L471.23 411.6L480.742 412.39L461.671 434.527L472.189 435.414L472.788 428.083L481.341 428.801L480.742 436.133L487.115 436.66L486.492 444.015Z" fill="#3EC6C9"/>
<path d="M490.155 432.898C491.233 419.985 498.996 413.252 508.627 414.043C518.306 414.858 524.798 422.764 523.72 435.701C522.642 448.614 514.928 455.37 505.249 454.556C495.618 453.741 489.077 445.811 490.155 432.898ZM514.592 434.934C515.335 426.046 512.508 422.093 507.98 421.71C503.5 421.326 500.074 424.776 499.331 433.665C498.588 442.553 501.415 446.506 505.896 446.889C510.424 447.249 513.85 443.823 514.592 434.934Z" fill="#3EC6C9"/>
<path d="M563.062 450.388L556.689 449.861L555.994 458.078L547.154 457.336L547.849 449.118L526.766 447.369L527.269 441.284L547.801 417.973L557.312 418.763L538.242 440.9L548.759 441.787L549.358 434.456L557.911 435.174L557.312 442.506L563.685 443.033L563.062 450.388Z" fill="#3EC6C9"/>
<path d="M518.335 476.963L411.439 468.061L402.579 574.454L509.474 583.357L518.335 476.963Z" fill="#B4CBDD"/>
<path opacity="0.4" d="M518.327 476.932L509.462 583.329L402.586 574.417L403.113 568.02L459.678 572.716C484.977 574.824 507.186 556.017 509.295 530.718L513.799 476.549L518.327 476.932Z" fill="#B4CBDD"/>
<path d="M597.905 483.593L518.324 476.965L509.463 583.359L589.044 589.986L597.905 483.593Z" fill="#A1BCD1"/>
<path opacity="0.4" d="M589.678 582.395L589.055 589.941L509.467 583.329L518.331 476.932L524.465 477.435L520.823 521.086C518.283 551.561 540.924 578.322 571.398 580.861L589.678 582.395Z" fill="#A1BCD1"/>
<path d="M541.882 549.161L517.623 547.141L515.855 568.367L540.114 570.387L541.882 549.161Z" fill="#3EC6C9"/>
<path d="M585.92 550.115L563.906 548.281L563.493 553.248L585.507 555.081L585.92 550.115Z" fill="#FCC574"/>
<path d="M585.24 558.464L558.379 556.227L557.965 561.193L584.826 563.43L585.24 558.464Z" fill="#FCC574"/>
<path d="M602.566 529.927L522.978 523.29L518.33 476.932L597.894 483.544L602.566 529.927Z" fill="#B4CBDD"/>
<path d="M504.986 521.805L398.109 512.892L410.496 467.947L517.372 476.86L504.986 521.805Z" fill="#B4CBDD"/>
<path opacity="0.4" d="M506.256 517.181L504.986 521.805L398.109 512.892L410.496 467.947L414.856 468.307C409.082 489.27 423.768 510.329 445.45 512.126L506.256 517.181Z" fill="#B4CBDD"/>
<path opacity="0.5" d="M518.329 476.933L514.712 520.393L513.058 526.382L407.332 517.59L407.643 513.685L504.985 521.806L517.371 476.861L518.329 476.933Z" fill="#B4CBDD"/>
<path d="M602.566 529.927L522.978 523.29L518.33 476.932L597.894 483.544L602.566 529.927Z" fill="#B4CBDD"/>
<path opacity="0.5" d="M594.107 529.232L593.795 532.969L516.794 526.573L515.381 512.389L518.328 476.932L522.976 523.29L594.107 529.232Z" fill="#A1BCD1"/>
<path opacity="0.4" d="M602.563 529.925L522.975 523.289L522.424 517.827L554.815 520.534C576.138 522.307 593.843 504.314 591.71 483.016L597.915 483.543L602.563 529.925Z" fill="#B4CBDD"/>
<path d="M830.429 629.977L542.909 638.29L432.176 641.477L154.143 649.503L153.88 640.734L153.209 617.183L274.676 613.686H274.7L426.162 609.301L509.009 606.905L536.824 606.115L829.494 597.682L830.309 625.473L830.429 629.977Z" fill="#FCC574"/>
<path d="M171.129 634.003L164.66 634.195L164.828 640.208L172.039 639.993L172.087 641.789L162.719 642.053L162.24 625.402L171.224 625.139L171.272 626.936L164.42 627.127L164.564 632.398L171.033 632.206L171.129 634.003Z" fill="white"/>
<path d="M174.434 625.28C175.512 625.017 177.069 624.849 178.554 624.825C180.854 624.753 182.34 625.136 183.418 626.047C184.28 626.766 184.783 627.891 184.807 629.161C184.879 631.365 183.538 632.851 181.789 633.498V633.57C183.082 633.977 183.897 635.151 184.328 636.852C184.927 639.152 185.382 640.757 185.742 641.38L183.514 641.452C183.226 640.997 182.819 639.559 182.292 637.499C181.741 635.223 180.806 634.384 178.866 634.36L176.829 634.408L177.045 641.619L174.889 641.691L174.434 625.28ZM176.781 632.803L178.986 632.731C181.286 632.659 182.699 631.365 182.651 629.473C182.579 627.317 180.998 626.43 178.722 626.478C177.692 626.502 176.949 626.622 176.614 626.742L176.781 632.803Z" fill="white"/>
<path d="M187.732 624.895C188.811 624.632 190.368 624.464 191.853 624.44C194.153 624.368 195.639 624.752 196.717 625.662C197.579 626.381 198.082 627.507 198.106 628.777C198.178 630.981 196.836 632.466 195.088 633.113V633.185C196.381 633.592 197.196 634.766 197.627 636.467C198.25 638.767 198.681 640.372 199.041 640.995L196.812 641.067C196.525 640.612 196.118 639.174 195.591 637.114C195.04 634.838 194.105 633.999 192.165 633.975L190.128 634.023L190.344 641.235L188.188 641.306L187.732 624.895ZM190.104 632.418L192.308 632.346C194.608 632.274 196.022 630.981 195.974 629.064C195.902 626.908 194.321 626.021 192.045 626.069C191.015 626.093 190.272 626.213 189.937 626.333L190.104 632.418Z" fill="white"/>
<path d="M215.548 632.012C215.716 637.738 212.314 640.876 208.073 640.996C203.689 641.116 200.502 637.809 200.335 632.754C200.191 627.46 203.377 623.914 207.81 623.794C212.362 623.674 215.404 627.076 215.548 632.012ZM202.635 632.659C202.731 636.228 204.767 639.343 208.145 639.247C211.547 639.151 213.392 635.965 213.272 632.179C213.176 628.873 211.355 625.471 207.762 625.567C204.216 625.663 202.539 629.017 202.635 632.659Z" fill="white"/>
<path d="M218.135 624.011C219.213 623.747 220.77 623.579 222.256 623.555C224.555 623.483 226.041 623.867 227.119 624.777C227.981 625.496 228.485 626.622 228.509 627.892C228.58 630.096 227.239 631.581 225.49 632.228V632.3C226.784 632.707 227.598 633.881 228.029 635.582C228.652 637.882 229.084 639.487 229.443 640.11L227.215 640.182C226.927 639.727 226.52 638.29 225.993 636.229C225.442 633.953 224.508 633.115 222.567 633.091L220.531 633.139L220.746 640.35L218.59 640.422L218.135 624.011ZM220.483 631.533L222.687 631.462C224.987 631.39 226.4 630.096 226.352 628.179C226.28 626.023 224.699 625.137 222.423 625.185C221.393 625.209 220.65 625.328 220.315 625.448L220.483 631.533Z" fill="white"/>
<path d="M285.388 630.695L278.92 630.886L279.087 636.9L286.299 636.684L286.347 638.481L276.979 638.744L276.5 622.094L285.484 621.83L285.532 623.627L278.68 623.819L278.824 629.089L285.293 628.898L285.388 630.695Z" fill="white"/>
<path d="M288.693 621.971C289.771 621.708 291.329 621.54 292.814 621.516C295.114 621.444 296.599 621.828 297.678 622.738C298.54 623.457 299.043 624.583 299.067 625.853C299.139 628.057 297.797 629.542 296.048 630.189V630.261C297.342 630.668 298.157 631.842 298.588 633.543C299.187 635.843 299.642 637.448 300.002 638.071L297.773 638.143C297.486 637.688 297.079 636.25 296.552 634.19C296.001 631.914 295.066 631.075 293.126 631.052L291.089 631.099L291.305 638.311L289.149 638.383L288.693 621.971ZM291.041 629.494L293.245 629.422C295.545 629.351 296.959 628.057 296.911 626.164C296.839 624.008 295.258 623.121 292.982 623.169C291.952 623.193 291.209 623.313 290.874 623.433L291.041 629.494Z" fill="white"/>
<path d="M301.992 621.587C303.07 621.323 304.628 621.155 306.113 621.132C308.413 621.06 309.898 621.443 310.976 622.353C311.839 623.072 312.342 624.198 312.366 625.468C312.438 627.672 311.096 629.157 309.347 629.804V629.876C310.641 630.283 311.456 631.457 311.887 633.158C312.51 635.458 312.941 637.064 313.3 637.686L311.072 637.758C310.785 637.303 310.377 635.866 309.85 633.805C309.299 631.529 308.365 630.691 306.424 630.667L304.388 630.715L304.604 637.926L302.447 637.998L301.992 621.587ZM304.364 629.109L306.568 629.038C308.868 628.966 310.282 627.672 310.234 625.779C310.162 623.623 308.581 622.737 306.305 622.785C305.274 622.809 304.532 622.928 304.196 623.048L304.364 629.109Z" fill="white"/>
<path d="M329.806 628.726C329.974 634.452 326.572 637.591 322.331 637.711C317.947 637.831 314.76 634.524 314.593 629.469C314.449 624.174 317.635 620.629 322.067 620.509C326.619 620.389 329.662 623.791 329.806 628.726ZM316.893 629.373C316.988 632.943 319.025 636.058 322.403 635.962C325.805 635.866 327.65 632.68 327.53 628.894C327.434 625.588 325.613 622.186 322.02 622.282C318.474 622.378 316.797 625.708 316.893 629.373Z" fill="white"/>
<path d="M332.393 620.704C333.471 620.44 335.028 620.273 336.513 620.249C338.813 620.177 340.299 620.56 341.377 621.471C342.239 622.189 342.742 623.315 342.766 624.585C342.838 626.789 341.497 628.275 339.748 628.921V628.993C341.041 629.401 341.856 630.575 342.287 632.276C342.91 634.576 343.341 636.181 343.701 636.804L341.473 636.875C341.185 636.42 340.778 634.983 340.251 632.922C339.7 630.646 338.765 629.808 336.825 629.784L334.788 629.832L335.004 637.043L332.848 637.115L332.393 620.704ZM334.74 628.227L336.945 628.155C339.245 628.083 340.658 626.789 340.61 624.896C340.538 622.74 338.957 621.854 336.681 621.902C335.651 621.926 334.908 622.046 334.573 622.165L334.74 628.227Z" fill="white"/>
<path d="M399.642 627.415L393.174 627.607L393.341 633.62L400.553 633.405L400.601 635.202L391.233 635.465L390.754 618.814L399.738 618.551L399.786 620.348L392.934 620.539L393.078 625.81L399.546 625.618L399.642 627.415Z" fill="white"/>
<path d="M402.947 618.69C404.025 618.427 405.583 618.259 407.068 618.235C409.368 618.163 410.853 618.547 411.932 619.457C412.794 620.176 413.297 621.302 413.321 622.571C413.393 624.776 412.051 626.261 410.302 626.908V626.98C411.596 627.387 412.411 628.561 412.842 630.262C413.465 632.562 413.896 634.167 414.255 634.79L412.027 634.862C411.74 634.407 411.333 632.969 410.805 630.909C410.254 628.633 409.32 627.794 407.379 627.77L405.343 627.818L405.559 635.03L403.402 635.101L402.947 618.69ZM405.295 626.213L407.499 626.141C409.799 626.069 411.213 624.776 411.165 622.883C411.093 620.727 409.512 619.84 407.236 619.888C406.206 619.912 405.463 620.032 405.127 620.152L405.295 626.213Z" fill="white"/>
<path d="M416.246 618.307C417.324 618.044 418.881 617.876 420.367 617.852C422.667 617.78 424.152 618.164 425.23 619.074C426.093 619.793 426.596 620.919 426.62 622.189C426.692 624.393 425.35 625.878 423.601 626.525V626.597C424.895 627.004 425.709 628.178 426.141 629.879C426.764 632.179 427.195 633.784 427.554 634.407L425.326 634.479C425.039 634.024 424.631 632.586 424.104 630.526C423.553 628.25 422.619 627.411 420.678 627.387L418.642 627.435L418.858 634.647L416.701 634.719L416.246 618.307ZM418.594 625.806L420.798 625.734C423.098 625.662 424.512 624.369 424.464 622.452C424.392 620.296 422.811 619.409 420.535 619.457C419.504 619.481 418.762 619.601 418.426 619.721L418.594 625.806Z" fill="white"/>
<path d="M444.062 625.424C444.229 631.15 440.827 634.288 436.587 634.408C432.203 634.528 429.016 631.222 428.848 626.166C428.705 620.872 431.891 617.326 436.323 617.206C440.875 617.086 443.918 620.488 444.062 625.424ZM431.148 626.071C431.244 629.64 433.281 632.755 436.659 632.659C440.061 632.563 441.905 629.377 441.786 625.591C441.69 622.285 439.869 618.883 436.275 618.979C432.73 619.075 431.053 622.405 431.148 626.071Z" fill="white"/>
<path d="M446.648 617.423C447.727 617.159 449.284 616.991 450.769 616.967C453.069 616.896 454.555 617.279 455.633 618.189C456.495 618.908 456.998 620.034 457.022 621.304C457.094 623.508 455.752 624.993 454.004 625.64V625.712C455.297 626.119 456.112 627.293 456.543 628.994C457.166 631.294 457.597 632.9 457.957 633.522L455.729 633.594C455.441 633.139 455.034 631.702 454.507 629.641C453.956 627.365 453.021 626.527 451.081 626.503L449.044 626.551L449.26 633.762L447.104 633.834L446.648 617.423ZM448.996 624.946L451.2 624.874C453.5 624.802 454.914 623.508 454.866 621.615C454.794 619.459 453.213 618.573 450.937 618.621C449.907 618.645 449.164 618.764 448.829 618.884L448.996 624.946Z" fill="white"/>
<path d="M513.896 624.107L507.428 624.298L507.595 630.312L514.807 630.096L514.855 631.893L505.487 632.157L505.008 615.506L513.992 615.242L514.04 617.039L507.188 617.231L507.332 622.501L513.8 622.31L513.896 624.107Z" fill="white"/>
<path d="M517.201 615.384C518.279 615.12 519.837 614.952 521.322 614.928C523.622 614.857 525.107 615.24 526.185 616.15C527.048 616.869 527.551 617.995 527.575 619.265C527.647 621.469 526.305 622.954 524.556 623.601V623.673C525.85 624.08 526.665 625.254 527.096 626.955C527.695 629.255 528.15 630.86 528.509 631.483L526.281 631.555C525.994 631.1 525.586 629.662 525.059 627.602C524.508 625.326 523.574 624.488 521.633 624.464L519.597 624.512L519.813 631.723L517.656 631.795L517.201 615.384ZM519.549 622.906L521.753 622.834C524.053 622.763 525.467 621.469 525.419 619.576C525.347 617.42 523.766 616.534 521.49 616.581C520.459 616.605 519.717 616.725 519.381 616.845L519.549 622.906Z" fill="white"/>
<path d="M530.5 614.999C531.578 614.735 533.135 614.568 534.621 614.544C536.921 614.472 538.406 614.855 539.484 615.765C540.347 616.484 540.85 617.61 540.874 618.88C540.946 621.084 539.604 622.57 537.855 623.216V623.288C539.149 623.696 539.963 624.869 540.395 626.571C540.994 628.87 541.449 630.476 541.808 631.099L539.58 631.17C539.293 630.715 538.885 629.278 538.358 627.217C537.807 624.941 536.873 624.103 534.932 624.079L532.896 624.127L533.111 631.338L530.955 631.41L530.5 614.999ZM532.848 622.522L535.052 622.45C537.352 622.378 538.766 621.084 538.718 619.191C538.646 617.035 537.064 616.149 534.812 616.197C533.782 616.221 533.04 616.34 532.704 616.46L532.848 622.522Z" fill="white"/>
<path d="M558.315 622.139C558.483 627.865 555.081 631.003 550.84 631.123C546.456 631.243 543.27 627.936 543.126 622.881C542.982 617.587 546.145 614.041 550.601 613.921C555.129 613.801 558.171 617.179 558.315 622.139ZM545.402 622.786C545.498 626.355 547.51 629.47 550.912 629.374C554.314 629.278 556.159 626.092 556.039 622.306C555.943 619 554.122 615.598 550.529 615.694C546.983 615.79 545.306 619.12 545.402 622.786Z" fill="white"/>
<path d="M560.902 614.114C561.98 613.85 563.538 613.683 565.023 613.659C567.323 613.587 568.808 613.97 569.887 614.881C570.749 615.599 571.252 616.725 571.276 617.995C571.348 620.199 570.006 621.685 568.257 622.332V622.404C569.551 622.811 570.366 623.985 570.797 625.686C571.396 627.986 571.851 629.591 572.211 630.214L569.982 630.286C569.695 629.83 569.288 628.393 568.761 626.333C568.21 624.057 567.275 623.218 565.335 623.194L563.298 623.242L563.514 630.453L561.358 630.525L560.902 614.114ZM563.25 621.637L565.454 621.565C567.754 621.493 569.168 620.199 569.12 618.307C569.048 616.15 567.467 615.264 565.191 615.312C564.161 615.336 563.418 615.456 563.083 615.575L563.25 621.637Z" fill="white"/>
<path d="M628.15 620.825L621.681 621.017L621.849 627.031L629.061 626.815L629.108 628.612L619.741 628.875L619.262 612.224L628.246 611.961L628.294 613.758L621.442 613.949L621.586 619.22L628.054 619.029L628.15 620.825Z" fill="white"/>
<path d="M631.457 612.079C632.535 611.815 634.092 611.648 635.578 611.624C637.878 611.552 639.363 611.935 640.441 612.846C641.304 613.564 641.807 614.69 641.831 615.96C641.903 618.164 640.561 619.65 638.812 620.297V620.368C640.106 620.776 640.92 621.95 641.352 623.651C641.951 625.951 642.406 627.556 642.765 628.179L640.537 628.251C640.25 627.795 639.842 626.358 639.315 624.297C638.764 622.021 637.83 621.183 635.889 621.159L633.853 621.207L634.068 628.418L631.912 628.49L631.457 612.079ZM633.805 619.602L636.009 619.53C638.309 619.458 639.723 618.164 639.675 616.248C639.603 614.091 638.021 613.205 635.745 613.253C634.715 613.277 633.973 613.397 633.637 613.516L633.805 619.602Z" fill="white"/>
<path d="M644.754 611.696C645.832 611.433 647.389 611.265 648.875 611.241C651.175 611.169 652.66 611.552 653.738 612.463C654.601 613.181 655.104 614.308 655.128 615.577C655.2 617.781 653.858 619.267 652.109 619.914V619.986C653.403 620.393 654.217 621.567 654.649 623.268C655.248 625.568 655.703 627.173 656.062 627.796L653.834 627.868C653.546 627.413 653.139 625.975 652.612 623.915C652.061 621.639 651.127 620.8 649.186 620.776L647.15 620.824L647.365 628.035L645.209 628.107L644.754 611.696ZM647.102 619.219L649.306 619.147C651.606 619.075 653.019 617.781 652.971 615.865C652.9 613.709 651.318 612.822 649.042 612.87C648.012 612.894 647.27 613.014 646.934 613.134L647.102 619.219Z" fill="white"/>
<path d="M672.57 618.834C672.737 624.56 669.335 627.698 665.095 627.818C660.71 627.938 657.5 624.632 657.356 619.577C657.212 614.282 660.399 610.736 664.831 610.616C669.383 610.497 672.426 613.899 672.57 618.834ZM659.656 619.481C659.752 623.051 661.788 626.165 665.167 626.069C668.569 625.973 670.413 622.787 670.294 619.002C670.198 615.695 668.377 612.293 664.783 612.389C661.237 612.485 659.56 615.815 659.656 619.481Z" fill="white"/>
<path d="M675.133 610.835C676.211 610.571 677.768 610.404 679.254 610.38C681.554 610.308 683.039 610.691 684.117 611.601C684.98 612.32 685.483 613.446 685.507 614.716C685.579 616.92 684.237 618.406 682.488 619.052V619.124C683.782 619.532 684.596 620.705 685.027 622.406C685.626 624.706 686.082 626.312 686.441 626.934L684.213 627.006C683.925 626.551 683.518 625.114 682.991 623.053C682.44 620.777 681.506 619.939 679.565 619.915L677.529 619.963L677.744 627.174L675.588 627.246L675.133 610.835ZM677.505 618.358L679.709 618.286C682.009 618.214 683.422 616.92 683.374 615.027C683.302 612.871 681.721 611.985 679.469 612.033C678.439 612.057 677.696 612.176 677.361 612.296L677.505 618.358Z" fill="white"/>
<path d="M742.41 617.519L735.941 617.71L736.109 623.724L743.32 623.508L743.368 625.305L734.001 625.569L733.521 608.918L742.506 608.654L742.554 610.451L735.702 610.643L735.845 615.914L742.314 615.722L742.41 617.519Z" fill="white"/>
<path d="M745.715 608.794C746.793 608.53 748.35 608.363 749.836 608.339C752.136 608.267 753.621 608.65 754.699 609.56C755.562 610.279 756.065 611.405 756.089 612.675C756.16 614.879 754.819 616.364 753.07 617.011V617.083C754.364 617.491 755.178 618.664 755.609 620.365C756.208 622.665 756.664 624.271 757.023 624.893L754.795 624.965C754.507 624.51 754.1 623.073 753.573 621.012C753.022 618.736 752.088 617.898 750.147 617.874L748.111 617.922L748.326 625.133L746.17 625.205L745.715 608.794ZM748.063 616.317L750.267 616.245C752.567 616.173 753.98 614.879 753.932 612.986C753.861 610.83 752.279 609.944 750.003 609.992C748.973 610.016 748.23 610.135 747.895 610.255L748.063 616.317Z" fill="white"/>
<path d="M759.014 608.411C760.092 608.147 761.649 607.98 763.134 607.956C765.434 607.884 766.92 608.267 767.998 609.178C768.86 609.896 769.364 611.022 769.388 612.292C769.459 614.496 768.118 615.982 766.369 616.629V616.7C767.663 617.108 768.477 618.282 768.908 619.983C769.507 622.283 769.962 623.888 770.322 624.511L768.094 624.583C767.806 624.127 767.399 622.69 766.872 620.629C766.321 618.353 765.387 617.515 763.446 617.491L761.409 617.539L761.625 624.75L759.469 624.822L759.014 608.411ZM761.362 615.934L763.566 615.862C765.866 615.79 767.279 614.496 767.231 612.604C767.159 610.447 765.578 609.561 763.302 609.609C762.272 609.633 761.529 609.753 761.194 609.872L761.362 615.934Z" fill="white"/>
<path d="M786.827 615.551C786.995 621.277 783.593 624.415 779.352 624.535C774.968 624.655 771.781 621.349 771.638 616.293C771.494 610.999 774.656 607.453 779.112 607.333C783.641 607.213 786.683 610.591 786.827 615.551ZM773.914 616.198C774.009 619.767 776.022 622.882 779.424 622.786C782.826 622.69 784.671 619.504 784.551 615.718C784.455 612.412 782.634 609.01 779.041 609.106C775.495 609.202 773.818 612.532 773.914 616.198Z" fill="white"/>
<path d="M789.414 607.526C790.492 607.263 792.049 607.095 793.535 607.071C795.835 606.999 797.32 607.382 798.398 608.293C799.261 609.012 799.764 610.138 799.788 611.407C799.86 613.611 798.518 615.097 796.769 615.744V615.816C798.063 616.223 798.877 617.397 799.309 619.098C799.908 621.398 800.363 623.003 800.722 623.626L798.494 623.698C798.207 623.243 797.799 621.805 797.272 619.745C796.721 617.469 795.787 616.63 793.846 616.606L791.81 616.654L792.025 623.865L789.869 623.937L789.414 607.526ZM791.762 615.049L793.966 614.977C796.266 614.905 797.68 613.612 797.632 611.719C797.56 609.563 795.979 608.676 793.703 608.724C792.672 608.748 791.93 608.868 791.594 608.988L791.762 615.049Z" fill="white"/>
<path opacity="0.5" d="M509.774 638.863L432.175 641.474L154.142 649.5L153.879 640.732C206.874 638.599 385.481 640.588 391.973 638.863C397.891 637.306 312.624 620.847 274.699 613.683L426.161 609.299C437.278 617.037 509.774 638.863 509.774 638.863Z" fill="#FCC574"/>
<path opacity="0.5" d="M830.428 629.975L542.908 638.289L509.008 606.904L536.823 606.113L623.167 616.918L701.342 629.88C710.949 631.485 720.724 631.988 730.451 631.413L830.308 625.471L830.428 629.975Z" fill="#FCC574"/>
<path d="M829.397 650.986L826.307 674.753L825.228 683.042L154.262 596.194L158.406 564.139L177.908 566.654L829.397 650.986Z" fill="#FCC574"/>
<path opacity="0.5" d="M826.307 674.753L825.228 683.042L154.262 596.194L158.406 564.139L177.908 566.654C178.747 576.046 181.598 586.923 190.103 590.013C204.262 595.164 719.454 661.121 826.307 674.753Z" fill="#FCC574"/>
<path d="M173.573 583.714L167.152 582.876L166.386 588.841L173.549 589.776L173.309 591.573L164.014 590.375L166.146 573.844L175.058 574.994L174.819 576.791L168.039 575.904L167.368 581.127L173.789 581.965L173.573 583.714Z" fill="white"/>
<path d="M178.195 575.617C179.297 575.545 180.854 575.617 182.339 575.809C184.615 576.096 186.029 576.719 186.939 577.773C187.682 578.612 187.994 579.81 187.826 581.08C187.538 583.26 185.981 584.53 184.16 584.889V584.961C185.382 585.56 185.981 586.853 186.149 588.602C186.388 590.974 186.58 592.627 186.844 593.298L184.639 593.011C184.424 592.508 184.256 591.046 184.041 588.914C183.849 586.566 183.082 585.608 181.142 585.272L179.129 585.009L178.195 592.172L176.062 591.885L178.195 575.617ZM179.345 583.404L181.525 583.691C183.801 583.979 185.406 582.924 185.646 581.032C185.933 578.899 184.496 577.773 182.244 577.462C181.213 577.318 180.471 577.342 180.111 577.39L179.345 583.404Z" fill="white"/>
<path d="M191.396 577.32C192.498 577.248 194.055 577.32 195.541 577.512C197.817 577.799 199.23 578.422 200.141 579.477C200.883 580.315 201.195 581.513 201.027 582.783C200.74 584.963 199.182 586.233 197.361 586.592V586.664C198.583 587.263 199.182 588.533 199.35 590.306C199.59 592.677 199.781 594.33 200.045 595.001L197.841 594.714C197.625 594.211 197.457 592.749 197.242 590.617C197.05 588.269 196.283 587.311 194.343 586.975L192.33 586.712L191.396 593.875L189.264 593.588L191.396 577.32ZM192.546 585.131L194.726 585.418C197.002 585.706 198.607 584.651 198.847 582.759C199.134 580.627 197.697 579.5 195.445 579.189C194.415 579.045 193.672 579.069 193.313 579.117L192.546 585.131Z" fill="white"/>
<path d="M217.754 588.723C217.012 594.401 213.178 596.965 208.962 596.438C204.601 595.863 201.966 592.101 202.613 587.094C203.284 581.847 206.997 578.829 211.405 579.404C215.933 580.003 218.401 583.836 217.754 588.723ZM204.913 587.334C204.458 590.856 205.967 594.282 209.321 594.713C212.699 595.144 215.023 592.293 215.502 588.532C215.933 585.249 214.664 581.584 211.094 581.129C207.548 580.673 205.368 583.716 204.913 587.334Z" fill="white"/>
<path d="M221.562 581.223C222.664 581.151 224.221 581.223 225.707 581.414C227.983 581.702 229.396 582.325 230.307 583.379C231.049 584.217 231.361 585.415 231.193 586.685C230.906 588.865 229.348 590.135 227.527 590.494V590.566C228.749 591.165 229.348 592.459 229.516 594.208C229.756 596.58 229.947 598.233 230.211 598.904L228.007 598.616C227.791 598.113 227.623 596.652 227.408 594.519C227.216 592.171 226.449 591.213 224.509 590.878L222.496 590.614L221.562 597.778L219.43 597.49L221.562 581.223ZM222.712 589.033L224.892 589.32C227.168 589.608 228.773 588.554 229.013 586.661C229.3 584.529 227.863 583.403 225.611 583.091C224.581 582.972 223.838 582.972 223.479 583.02L222.712 589.033Z" fill="white"/>
<path d="M286.942 598.375L280.521 597.536L279.755 603.502L286.918 604.436L286.679 606.233L277.383 605.035L279.515 588.504L288.427 589.654L288.188 591.451L281.408 590.564L280.737 595.787L287.158 596.626L286.942 598.375Z" fill="white"/>
<path d="M291.566 590.277C292.668 590.205 294.225 590.277 295.711 590.469C297.987 590.757 299.4 591.379 300.311 592.434C301.053 593.272 301.365 594.47 301.197 595.74C300.909 597.92 299.352 599.19 297.531 599.549V599.621C298.753 600.22 299.352 601.49 299.52 603.263C299.759 605.634 299.951 607.287 300.215 607.958L298.011 607.671C297.795 607.168 297.627 605.706 297.412 603.574C297.22 601.226 296.453 600.268 294.513 599.932L292.5 599.669L291.566 606.832L289.434 606.545L291.566 590.277ZM292.716 598.088L294.896 598.375C297.172 598.663 298.777 597.608 299.017 595.716C299.304 593.584 297.867 592.458 295.615 592.146C294.585 592.002 293.842 592.026 293.482 592.074L292.716 598.088Z" fill="white"/>
<path d="M304.742 591.98C305.844 591.909 307.401 591.98 308.886 592.172C311.162 592.46 312.576 593.083 313.486 594.137C314.229 594.975 314.54 596.173 314.373 597.443C314.085 599.623 312.528 600.893 310.707 601.252V601.324C311.929 601.923 312.528 603.193 312.696 604.966C312.935 607.338 313.127 608.991 313.39 609.661L311.186 609.374C310.971 608.871 310.803 607.409 310.587 605.277C310.396 602.929 309.629 601.971 307.688 601.636L305.676 601.372L304.742 608.535L302.609 608.248L304.742 591.98ZM305.916 599.791L308.096 600.078C310.372 600.366 311.977 599.312 312.217 597.419C312.504 595.287 311.067 594.161 308.814 593.849C307.784 593.705 307.042 593.729 306.682 593.777L305.916 599.791Z" fill="white"/>
<path d="M331.123 603.407C330.381 609.085 326.547 611.672 322.331 611.121C317.97 610.546 315.335 606.785 315.982 601.778C316.653 596.531 320.366 593.512 324.774 594.087C329.279 594.662 331.746 598.496 331.123 603.407ZM318.258 602.017C317.803 605.539 319.312 608.965 322.666 609.396C326.044 609.828 328.368 606.977 328.847 603.215C329.279 599.933 328.009 596.267 324.439 595.812C320.917 595.357 318.737 598.376 318.258 602.017Z" fill="white"/>
<path d="M334.904 595.883C336.006 595.787 337.563 595.883 339.048 596.075C341.325 596.362 342.738 596.985 343.648 598.039C344.391 598.878 344.703 600.076 344.535 601.346C344.247 603.526 342.69 604.796 340.869 605.155V605.227C342.091 605.826 342.69 607.096 342.858 608.869C343.097 611.24 343.289 612.893 343.553 613.564L341.348 613.277C341.133 612.774 340.965 611.312 340.749 609.18C340.558 606.832 339.791 605.874 337.851 605.538L335.838 605.275L334.904 612.438L332.771 612.151L334.904 595.883ZM336.078 603.694L338.258 603.981C340.534 604.269 342.139 603.214 342.379 601.322C342.666 599.19 341.229 598.063 338.977 597.752C337.946 597.608 337.204 597.632 336.844 597.68L336.078 603.694Z" fill="white"/>
<path d="M400.284 613.064L393.863 612.225L393.096 618.191L400.26 619.125L400.02 620.922L390.725 619.724L392.857 603.217L401.769 604.367L401.53 606.164L394.75 605.277L394.079 610.5L400.499 611.339L400.284 613.064Z" fill="white"/>
<path d="M404.908 604.965C406.01 604.893 407.567 604.965 409.052 605.157C411.328 605.444 412.742 606.067 413.652 607.121C414.395 607.96 414.706 609.157 414.539 610.427C414.251 612.607 412.694 613.877 410.873 614.237V614.308C412.095 614.907 412.694 616.177 412.862 617.95C413.101 620.322 413.293 621.975 413.556 622.646L411.352 622.358C411.137 621.855 410.969 620.394 410.753 618.262C410.562 615.914 409.795 614.955 407.855 614.62L405.842 614.356L404.908 621.52L402.775 621.232L404.908 604.965ZM406.058 612.751L408.238 613.039C410.514 613.326 412.119 612.272 412.359 610.379C412.646 608.247 411.209 607.121 408.957 606.81C407.926 606.666 407.184 606.69 406.824 606.738L406.058 612.751Z" fill="white"/>
<path d="M418.107 606.664C419.209 606.592 420.766 606.664 422.252 606.856C424.528 607.143 425.941 607.766 426.852 608.82C427.594 609.659 427.906 610.857 427.738 612.126C427.45 614.307 425.893 615.576 424.072 615.936V616.008C425.294 616.607 425.893 617.876 426.061 619.649C426.3 622.021 426.492 623.674 426.756 624.345L424.552 624.058C424.336 623.554 424.168 622.093 423.953 619.961C423.761 617.613 422.994 616.655 421.054 616.319L419.041 616.056L418.107 623.219L415.975 622.932L418.107 606.664ZM419.257 614.45L421.437 614.738C423.713 615.025 425.318 613.971 425.558 612.079C425.845 609.946 424.408 608.82 422.156 608.509C421.126 608.365 420.383 608.389 420.024 608.437L419.257 614.45Z" fill="white"/>
<path d="M444.465 618.071C443.722 623.749 439.889 626.313 435.673 625.786C431.312 625.211 428.677 621.449 429.324 616.442C429.995 611.195 433.708 608.176 438.116 608.751C442.644 609.326 445.112 613.184 444.465 618.071ZM431.624 616.681C431.168 620.203 432.678 623.629 436.032 624.061C439.41 624.492 441.734 621.641 442.213 617.879C442.644 614.597 441.375 610.932 437.805 610.476C434.259 610.021 432.079 613.064 431.624 616.681Z" fill="white"/>
<path d="M448.275 610.572C449.377 610.5 450.934 610.572 452.42 610.764C454.696 611.051 456.109 611.674 457.019 612.728C457.762 613.567 458.074 614.765 457.906 616.035C457.618 618.215 456.061 619.485 454.24 619.844V619.916C455.462 620.515 456.061 621.809 456.229 623.557C456.468 625.929 456.66 627.582 456.924 628.253L454.72 627.966C454.504 627.463 454.336 626.001 454.121 623.869C453.929 621.521 453.162 620.563 451.222 620.227L449.209 619.964L448.275 627.127L446.143 626.84L448.275 610.572ZM449.425 618.359L451.605 618.646C453.881 618.934 455.486 617.879 455.726 615.987C456.013 613.854 454.576 612.728 452.324 612.417C451.294 612.273 450.551 612.297 450.191 612.345L449.425 618.359Z" fill="white"/>
<path d="M513.655 627.724L507.234 626.886L506.468 632.851L513.631 633.786L513.391 635.582L504.096 634.384L506.228 617.854L515.14 619.003L514.901 620.8L508.121 619.914L507.45 625.137L513.871 625.975L513.655 627.724Z" fill="white"/>
<path d="M518.277 619.625C519.379 619.553 520.936 619.625 522.422 619.817C524.698 620.104 526.111 620.727 527.021 621.781C527.764 622.62 528.076 623.818 527.908 625.087C527.62 627.268 526.063 628.537 524.242 628.897V628.969C525.464 629.568 526.063 630.837 526.231 632.61C526.47 634.982 526.662 636.635 526.926 637.306L524.721 637.019C524.506 636.515 524.314 635.054 524.123 632.922C523.931 630.574 523.164 629.615 521.224 629.28L519.211 629.016L518.277 636.18L516.145 635.892L518.277 619.625ZM519.427 627.411L521.607 627.699C523.883 627.986 525.488 626.932 525.728 625.04C526.015 622.907 524.578 621.781 522.326 621.47C521.295 621.326 520.553 621.35 520.193 621.398L519.427 627.411Z" fill="white"/>
<path d="M531.453 621.328C532.555 621.256 534.112 621.328 535.597 621.52C537.873 621.807 539.287 622.43 540.197 623.484C540.94 624.323 541.251 625.521 541.084 626.791C540.796 628.971 539.239 630.24 537.418 630.6V630.672C538.64 631.271 539.239 632.54 539.407 634.313C539.646 636.685 539.838 638.338 540.101 639.009L537.897 638.722C537.682 638.219 537.49 636.757 537.298 634.625C537.107 632.277 536.34 631.319 534.399 630.983L532.387 630.72L531.453 637.883L529.32 637.596L531.453 621.328ZM532.627 629.138L534.807 629.426C537.083 629.713 538.688 628.659 538.927 626.767C539.215 624.634 537.777 623.508 535.525 623.197C534.495 623.053 533.753 623.077 533.393 623.125L532.627 629.138Z" fill="white"/>
<path d="M557.834 632.755C557.092 638.433 553.258 640.996 549.042 640.469C544.681 639.894 542.046 636.133 542.693 631.125C543.364 625.879 547.077 622.86 551.485 623.435C555.99 624.01 558.457 627.843 557.834 632.755ZM544.969 631.365C544.514 634.887 545.999 638.313 549.377 638.744C552.755 639.175 555.079 636.324 555.558 632.563C555.99 629.281 554.72 625.615 551.15 625.16C547.628 624.705 545.448 627.723 544.969 631.365Z" fill="white"/>
<path d="M561.617 625.232C562.719 625.161 564.276 625.232 565.761 625.424C568.037 625.712 569.451 626.334 570.361 627.389C571.104 628.227 571.415 629.425 571.248 630.695C570.96 632.875 569.403 634.145 567.582 634.504V634.576C568.804 635.175 569.403 636.469 569.571 638.218C569.81 640.59 570.002 642.243 570.265 642.913L568.061 642.626C567.846 642.123 567.654 640.661 567.462 638.529C567.271 636.181 566.504 635.223 564.563 634.887L562.551 634.624L561.617 641.787L559.484 641.5L561.617 625.232ZM562.791 633.043L564.971 633.33C567.247 633.618 568.852 632.564 569.092 630.671C569.379 628.539 567.942 627.413 565.689 627.101C564.659 626.957 563.917 626.957 563.557 627.029L562.791 633.043Z" fill="white"/>
<path d="M627.001 642.388L620.58 641.549L619.813 647.515L626.977 648.449L626.737 650.246L617.441 649.048L619.574 632.541L628.486 633.691L628.246 635.488L621.466 634.601L620.796 639.824L627.216 640.663L627.001 642.388Z" fill="white"/>
<path d="M631.623 634.291C632.725 634.219 634.282 634.291 635.767 634.483C638.043 634.77 639.457 635.393 640.367 636.447C641.11 637.286 641.421 638.484 641.254 639.753C640.966 641.934 639.409 643.203 637.588 643.563V643.635C638.81 644.234 639.409 645.503 639.577 647.276C639.816 649.648 640.008 651.301 640.271 651.972L638.067 651.685C637.852 651.181 637.66 649.72 637.468 647.588C637.277 645.24 636.51 644.281 634.569 643.946L632.557 643.683L631.623 650.846L629.49 650.558L631.623 634.291ZM632.772 642.101L634.953 642.389C637.229 642.676 638.834 641.622 639.073 639.729C639.361 637.597 637.923 636.471 635.671 636.16C634.641 636.016 633.899 636.04 633.539 636.088L632.772 642.101Z" fill="white"/>
<path d="M644.824 636.018C645.926 635.946 647.483 636.018 648.968 636.209C651.244 636.497 652.658 637.12 653.568 638.174C654.311 639.012 654.622 640.21 654.455 641.48C654.167 643.66 652.61 644.93 650.789 645.289V645.361C652.011 645.96 652.61 647.23 652.778 649.003C653.017 651.375 653.209 653.028 653.472 653.699L651.268 653.411C651.053 652.908 650.861 651.446 650.669 649.314C650.478 646.966 649.711 646.008 647.77 645.673L645.758 645.409L644.824 652.573L642.691 652.285L644.824 636.018ZM645.974 643.804L648.154 644.091C650.43 644.379 652.035 643.325 652.275 641.432C652.562 639.3 651.125 638.174 648.873 637.862C647.842 637.719 647.1 637.743 646.74 637.79L645.974 643.804Z" fill="white"/>
<path d="M671.182 647.419C670.439 653.097 666.606 655.66 662.389 655.133C658.029 654.558 655.394 650.797 656.041 645.789C656.711 640.543 660.425 637.524 664.833 638.099C669.361 638.674 671.829 642.507 671.182 647.419ZM658.341 646.029C657.885 649.551 659.371 652.977 662.749 653.408C666.127 653.839 668.451 650.988 668.93 647.227C669.361 643.945 668.091 640.279 664.522 639.824C661 639.369 658.796 642.411 658.341 646.029Z" fill="white"/>
<path d="M674.992 639.92C676.094 639.848 677.651 639.92 679.136 640.112C681.412 640.399 682.826 641.022 683.736 642.076C684.479 642.915 684.79 644.113 684.623 645.382C684.335 647.563 682.778 648.832 680.957 649.192V649.264C682.179 649.862 682.778 651.156 682.946 652.905C683.185 655.277 683.377 656.93 683.64 657.601L681.436 657.313C681.221 656.81 681.029 655.349 680.837 653.217C680.646 650.869 679.879 649.91 677.938 649.575L675.926 649.311L674.992 656.475L672.859 656.187L674.992 639.92ZM676.142 647.706L678.322 647.994C680.598 648.281 682.203 647.227 682.443 645.334C682.73 643.202 681.293 642.076 679.04 641.765C678.01 641.621 677.268 641.645 676.908 641.693L676.142 647.706Z" fill="white"/>
<path d="M740.37 657.072L733.949 656.233L733.182 662.199L740.346 663.133L740.106 664.93L730.811 663.732L732.943 647.201L741.855 648.351L741.616 650.148L734.835 649.262L734.165 654.484L740.585 655.323L740.37 657.072Z" fill="white"/>
<path d="M744.994 648.975C746.096 648.903 747.653 648.975 749.138 649.166C751.414 649.454 752.828 650.077 753.738 651.131C754.481 651.969 754.792 653.167 754.625 654.437C754.337 656.617 752.78 657.887 750.959 658.246V658.318C752.181 658.917 752.78 660.187 752.948 661.96C753.187 664.332 753.379 665.985 753.642 666.656L751.438 666.368C751.223 665.865 751.031 664.404 750.839 662.271C750.648 659.923 749.881 658.965 747.94 658.63L745.928 658.366L744.994 665.53L742.861 665.242L744.994 648.975ZM746.144 656.761L748.324 657.048C750.6 657.336 752.205 656.282 752.445 654.389C752.732 652.257 751.294 651.131 749.042 650.819C748.012 650.676 747.27 650.7 746.91 650.747L746.144 656.761Z" fill="white"/>
<path d="M758.169 650.678C759.271 650.606 760.829 650.678 762.314 650.869C764.59 651.157 766.004 651.78 766.914 652.834C767.657 653.672 767.968 654.87 767.8 656.14C767.513 658.32 765.956 659.59 764.135 659.949V660.021C765.357 660.62 765.956 661.89 766.123 663.663C766.363 666.035 766.555 667.688 766.818 668.359L764.614 668.071C764.398 667.568 764.207 666.107 764.015 663.974C763.823 661.627 763.057 660.668 761.116 660.333L759.104 660.069L758.169 667.233L756.037 666.945L758.169 650.678ZM759.343 658.488L761.523 658.776C763.799 659.063 765.405 658.009 765.644 656.116C765.932 653.984 764.494 652.858 762.242 652.546C761.212 652.403 760.469 652.427 760.11 652.475L759.343 658.488Z" fill="white"/>
<path d="M784.551 662.079C783.808 667.757 779.975 670.344 775.759 669.793C771.398 669.218 768.763 665.457 769.41 660.45C770.08 655.203 773.794 652.184 778.202 652.759C782.706 653.358 785.174 657.191 784.551 662.079ZM771.686 660.689C771.23 664.211 772.716 667.637 776.094 668.068C779.472 668.5 781.796 665.649 782.275 661.887C782.706 658.605 781.437 654.939 777.867 654.484C774.345 654.029 772.165 657.072 771.686 660.689Z" fill="white"/>
<path d="M788.331 654.58C789.434 654.508 790.991 654.58 792.476 654.772C794.752 655.059 796.166 655.682 797.076 656.736C797.819 657.575 798.13 658.773 797.963 660.042C797.675 662.223 796.118 663.492 794.297 663.852V663.924C795.519 664.523 796.118 665.792 796.286 667.565C796.525 669.937 796.717 671.59 796.98 672.261L794.776 671.974C794.561 671.47 794.369 670.009 794.177 667.877C793.986 665.529 793.219 664.571 791.278 664.235L789.266 663.972L788.331 671.135L786.199 670.848L788.331 654.58ZM789.505 662.39L791.686 662.678C793.962 662.965 795.567 661.911 795.806 660.019C796.094 657.886 794.656 656.76 792.404 656.449C791.374 656.305 790.631 656.329 790.272 656.377L789.505 662.39Z" fill="white"/>
<path d="M108.194 404.649V392.575H99.6651C99.0182 389.939 97.9881 387.448 96.5985 385.196L102.636 379.158L94.1069 370.605L88.0695 376.643C85.8174 375.253 83.3258 374.223 80.6904 373.576V365.047H68.6156V373.576C65.9802 374.223 63.4886 375.253 61.2365 376.643L55.1991 370.605L46.6461 379.158L52.6835 385.196C51.294 387.448 50.2638 389.939 49.6169 392.575H41.0879V404.649H49.6169C50.2638 407.285 51.294 409.776 52.6835 412.028L46.6461 418.066L55.1991 426.619L61.2365 420.581C63.4886 421.971 65.9802 423.001 68.6156 423.648V432.177H80.6904V423.648C83.3258 423.001 85.8174 421.971 88.0695 420.581L94.1069 426.619L102.636 418.066L96.5985 412.028C97.9881 409.776 99.0182 407.285 99.6651 404.649H108.194ZM74.653 407.285C69.8614 407.285 65.9563 403.404 65.9563 398.588C65.9563 393.796 69.8374 389.891 74.653 389.891C79.4446 389.891 83.3497 393.772 83.3497 398.588C83.3497 403.404 79.4685 407.285 74.653 407.285Z" fill="#D4E9FA"/>
<path d="M129.471 355.441V347.127H123.601C123.17 345.307 122.451 343.606 121.493 342.048L125.638 337.904L119.792 332.034L115.647 336.179C114.09 335.22 112.389 334.502 110.568 334.07V328.225H102.255V334.094C100.434 334.526 98.7331 335.244 97.1758 336.203L93.0311 332.058L87.1614 337.928L91.3061 342.072C90.3478 343.63 89.6291 345.331 89.1978 347.151H83.3281V355.465H89.1978C89.6291 357.286 90.3478 358.987 91.3061 360.544L87.1614 364.689L93.0311 370.558L97.1758 366.414C98.7331 367.372 100.434 368.091 102.255 368.522V374.392H110.568V368.522C112.389 368.091 114.09 367.372 115.647 366.414L119.792 370.558L125.662 364.689L121.517 360.544C122.475 358.987 123.17 357.286 123.625 355.465H129.471V355.441ZM106.4 357.262C103.093 357.262 100.434 354.578 100.434 351.296C100.434 348.014 103.117 345.331 106.4 345.331C109.682 345.331 112.365 348.014 112.365 351.296C112.365 354.578 109.706 357.262 106.4 357.262Z" fill="#D4E9FA"/>
<path d="M910.956 288.021V279.708H905.086C904.655 277.887 903.936 276.186 902.978 274.629L907.123 270.484L901.253 264.615L897.108 268.759C895.551 267.801 893.85 267.082 892.029 266.651V260.781H883.716V266.651C881.895 267.082 880.194 267.801 878.637 268.759L874.492 264.615L868.622 270.484L872.767 274.629C871.809 276.186 871.09 277.887 870.659 279.708H864.789V288.021H870.659C871.09 289.842 871.809 291.543 872.767 293.101L868.622 297.245L874.492 303.115L878.637 298.97C880.194 299.929 881.895 300.623 883.716 301.079V306.948H892.029V301.079C893.85 300.647 895.551 299.929 897.108 298.97L901.253 303.115L907.123 297.245L902.978 293.101C903.936 291.543 904.655 289.842 905.086 288.021H910.956ZM887.908 289.842C884.602 289.842 881.943 287.159 881.943 283.877C881.943 280.571 884.626 277.911 887.908 277.911C891.191 277.911 893.874 280.594 893.874 283.877C893.874 287.159 891.191 289.842 887.908 289.842Z" fill="#D4E9FA"/>
<path d="M951.54 311.096V302.782H945.67C945.239 300.961 944.52 299.26 943.562 297.703L947.707 293.558L941.837 287.689L937.692 291.833C936.135 290.875 934.434 290.156 932.613 289.725V283.855H924.3V289.725C922.479 290.156 920.778 290.875 919.221 291.833L915.076 287.689L909.206 293.558L913.351 297.703C912.393 299.26 911.674 300.961 911.243 302.782H905.373V311.096H911.243C911.674 312.916 912.393 314.617 913.351 316.175L909.206 320.319L915.076 326.189L919.221 322.044C920.778 323.003 922.479 323.722 924.3 324.153V330.022H932.613V324.153C934.434 323.722 936.135 323.003 937.692 322.044L941.837 326.189L947.707 320.319L943.562 316.175C944.52 314.617 945.239 312.916 945.67 311.096H951.54ZM928.492 312.916C925.186 312.916 922.527 310.233 922.527 306.951C922.527 303.645 925.21 300.985 928.492 300.985C931.799 300.985 934.458 303.669 934.458 306.951C934.458 310.233 931.799 312.916 928.492 312.916Z" fill="#D4E9FA"/>
<path d="M687.43 772.81C687.43 772.81 680.147 810.448 677.583 823.697C676.266 830.381 675.14 837.712 674.421 845.235C671.163 880.189 659.854 938.815 659.854 938.815L657.459 938.551L645.695 937.281L650.223 850.793L651.781 820.51L654.248 773.672L682.878 753.332C682.878 753.332 687.071 759.992 687.43 772.81Z" fill="#FFB894"/>
<path opacity="0.5" d="M677.581 823.7C676.263 830.384 675.137 837.715 674.418 845.238C671.16 880.192 659.852 938.818 659.852 938.818L657.456 938.554L669.507 854.174L650.221 850.82L651.778 820.537C663.206 821.663 677.509 823.388 677.509 823.388C677.509 823.388 677.557 823.484 677.581 823.7Z" fill="#FFB894"/>
<path d="M658.799 945.714C660.404 945.93 662.44 943.942 662.728 942.36C662.943 941.138 663.015 939.893 662.919 938.671C662.872 938.072 662.776 937.449 662.416 936.97C661.961 936.395 661.194 936.179 660.476 936.059C655.852 935.317 650.988 937.401 646.628 935.676C647.395 934.023 647.538 932.082 647.059 930.333C646.868 929.639 646.556 928.944 645.981 928.537C644.64 927.578 642.843 928.584 641.453 929.423C636.182 932.657 629.857 934.119 623.7 933.544C622.311 933.4 620.897 933.16 619.508 933.28C618.118 933.4 616.657 933.927 615.818 935.029C614.956 936.131 614.908 937.904 615.938 938.862L658.799 945.714Z" fill="#6376BF"/>
<path d="M661.767 747.25C661.767 747.25 652.495 763.493 651.632 772.957C650.77 782.42 646.434 845.382 646.434 845.382L676.094 848.568L692.433 744.471L661.767 747.25Z" fill="#3EC6C9"/>
<path opacity="0.5" d="M661.623 846.962L684.575 794.566L676.094 848.544L661.623 846.962Z" fill="#3EC6C9"/>
<path d="M780.242 906.015L777.224 910.303L772.073 917.682L711.052 879.781C706.62 877.026 703.505 872.593 702.355 867.514L698.019 853.187L694.712 842.263L688.891 811.501L685.249 792.286V792.238L682.686 778.678L687.429 772.856V772.832L704.871 751.414C704.871 751.414 712.178 761.141 712.561 788.381C712.585 788.549 712.585 788.717 712.585 788.908C712.705 797.174 717.233 820.006 721.21 842.239C722.264 848.132 723.27 854.769 724.229 861.716C750.87 881.554 780.242 906.015 780.242 906.015Z" fill="#FFB894"/>
<path opacity="0.5" d="M780.243 906.014L777.224 910.303C762.442 899.666 721.594 870.173 719.15 867.682C716.155 864.663 717.665 851.39 717.665 851.39L697.995 853.187L694.689 842.262L688.867 811.5L712.538 788.381C712.562 788.549 712.562 788.716 712.562 788.908C712.681 797.173 717.209 820.005 721.186 842.238C722.241 848.132 723.247 854.768 724.205 861.716C750.87 881.553 780.243 906.014 780.243 906.014Z" fill="#FFB894"/>
<path d="M785.682 910.543C786.736 909.322 786.161 906.542 784.963 905.44C784.052 904.602 783.046 903.883 781.968 903.284C781.441 902.997 780.866 902.733 780.267 902.805C779.524 902.877 778.925 903.404 778.446 903.955C775.332 907.453 774.469 912.652 770.66 915.407C769.678 913.874 768.144 912.7 766.395 912.173C765.725 911.957 764.958 911.861 764.311 912.125C762.802 912.748 762.658 914.784 762.634 916.413C762.514 922.594 760.358 928.704 756.549 933.567C755.686 934.669 754.728 935.723 754.081 936.969C753.434 938.215 753.099 939.7 753.578 941.042C754.057 942.36 755.519 943.366 756.884 943.006L785.682 910.543Z" fill="#6376BF"/>
<path d="M723.725 844.972L717.041 846.074L714.669 846.481L694.281 849.835C694.281 849.835 681.631 788 679.954 778.656C678.277 769.313 682.134 745.403 682.134 745.403L708.799 742.959L723.725 844.972Z" fill="#3EC6C9"/>
<g opacity="0.5">
<path d="M717.041 846.053L714.669 846.46L700.846 743.68L703.241 743.465L717.041 846.053Z" fill="#3EC6C9"/>
</g>
<path d="M631.51 728.055L577.533 711.763C576.168 709.535 574.059 707.81 571.472 706.948C571.112 706.828 570.753 706.732 570.37 706.804C570.01 706.876 569.651 707.163 569.627 707.523C569.603 707.858 569.819 708.146 570.01 708.433C570.705 709.392 571.232 710.518 571.496 711.668C568.717 711.811 566.201 710.23 563.733 709.008C563.087 708.697 562.152 708.481 561.817 709.104C561.505 709.631 561.984 710.278 562.44 710.685C563.566 711.692 564.859 712.506 566.249 713.105C564.548 712.482 562.847 711.835 561.146 711.212C560.619 711.021 559.9 710.901 559.637 711.38C559.421 711.763 559.685 712.243 559.948 712.578C561.386 714.423 563.398 715.788 565.65 716.411C563.781 715.908 561.913 715.429 560.044 714.926C559.804 714.854 559.565 714.806 559.349 714.902C559.062 715.046 558.966 715.429 559.086 715.74C559.181 716.052 559.445 716.267 559.685 716.483C561.314 717.921 563.182 719.095 565.195 719.933C564.308 719.861 563.422 719.813 562.559 719.741C562.032 719.693 561.362 719.765 561.218 720.268C561.098 720.748 561.577 721.155 562.008 721.371C564.237 722.497 566.776 722.832 569.268 722.688C571.041 722.592 572.814 722.281 574.562 721.898L626.671 744.514C631.175 745.832 635.919 743.22 637.26 738.668C638.578 734.164 636.015 729.396 631.51 728.055Z" fill="#FFB894"/>
<path d="M592.553 714.949L587.953 729.851C587.953 729.851 629.52 748.035 632.251 748.154C634.264 748.25 658.27 722.136 670.824 708.336C676.645 701.94 676.885 691.949 670.872 685.72C667.733 682.486 668.548 677.023 663.66 681.024C651.25 691.182 626.477 725.083 626.477 725.083L592.553 714.949Z" fill="#6376BF"/>
<path opacity="0.5" d="M657.362 723.022L653.193 698.801L650.965 729.898L657.362 723.022Z" fill="#6376BF"/>
<path d="M688.603 674.915L684.746 678.365C682.182 681.743 677.271 682.198 674.156 679.323L670.275 675.778L669.125 653.617L684.578 652.203L688.603 674.915Z" fill="#FFB894"/>
<path d="M669.746 665.261C669.746 665.261 678.395 664.375 681.438 660.35C681.438 660.35 677.341 670.005 670.01 670.268L669.746 665.261Z" fill="#F29272"/>
<path d="M711.049 717.467C710.306 730.979 708.821 742.958 708.821 742.958L661.768 747.247C661.768 747.247 653.502 702.301 653.191 698.804C652.759 694.012 659.803 683.423 667.158 677.84C667.829 677.313 668.524 676.882 669.171 676.451C669.554 676.187 669.913 675.996 670.297 675.804C670.297 675.804 677.796 682.345 688.601 674.127C688.601 674.127 689.008 674.367 689.679 674.774C690.206 675.085 690.948 675.516 691.763 676.044C695.213 678.104 700.603 681.434 703.43 683.518C707.791 686.705 711.792 703.979 711.049 717.467Z" fill="#6376BF"/>
<g opacity="0.5">
<path d="M699.118 702.609L696.736 702.867L701.156 743.669L703.538 743.411L699.118 702.609Z" fill="#6376BF"/>
</g>
<g opacity="0.5">
<path d="M691.763 676.065C687.786 680.354 683.713 682.702 679.545 683.061C679.017 683.109 678.466 683.133 677.939 683.109C672.884 682.941 669.075 679.875 667.158 677.838C667.829 677.311 668.524 676.88 669.171 676.449C670.92 678.198 674.058 680.593 678.035 680.713C681.868 680.809 685.774 678.82 689.655 674.771C690.206 675.107 690.948 675.538 691.763 676.065Z" fill="#6376BF"/>
</g>
<path d="M794.304 733.374L780.6 759.249L796.628 783.758L837.213 781.625L821.736 804.409L766.345 806.973L751.874 781.41L618.668 787.567L611.744 787.878L599.693 814.711L544.303 817.251L526.765 796.024L530.407 795.88L567.398 794.371L581.102 768.496L565.026 744.011L524.441 746.12L539.942 723.336L595.357 720.796L609.804 746.359L741.86 740.226L749.958 739.843L761.961 713.058L817.375 710.494L834.889 731.745L831.343 731.889L794.304 733.374Z" fill="#143C4A"/>
<path opacity="0.5" d="M618.669 787.566L611.721 787.902L599.67 814.711L544.279 817.25L526.742 796.023L530.384 795.88C535.702 800.551 550.125 812.123 561.002 810.901C574.586 809.32 608.75 797.581 612.248 774.198C614.596 758.577 617.327 773.335 618.669 787.566Z" fill="#143C4A"/>
<path opacity="0.5" d="M834.889 731.745L831.319 731.889C828.947 729.421 826.192 726.546 823.461 723.527C815.89 715.166 773.868 716.795 768.046 718.185C762.224 719.55 751.275 749.641 746.364 753.259C743.13 755.655 742.123 746.886 741.836 740.25L749.91 739.867L761.937 713.082L817.351 710.494L834.889 731.745Z" fill="#143C4A"/>
<path opacity="0.5" d="M609.805 746.332C610.404 752.705 616.249 757.281 622.598 756.299L722.503 741.109L609.805 746.332Z" fill="#143C4A"/>
<path d="M722.645 755.15C720.825 754.311 719.004 753.497 717.183 752.682C714.26 751.388 711.361 750.119 708.606 748.705L690.47 784.235L681.965 784.618C681.965 784.618 686.062 792.979 694.998 791.973C703.934 790.967 705.516 783.468 705.516 783.468L722.645 755.15Z" fill="#FFB894"/>
<path d="M731.008 721.13C724.635 711.451 711.482 692.213 701.516 682.941C695.934 688.284 690.423 693.722 685.68 699.832C685.847 700.047 685.991 700.287 686.183 700.503L714.765 732.319L699.024 764.638L714.477 771.059C725.594 753.569 730.601 742.07 732.877 735.242C734.482 730.474 733.739 725.299 731.008 721.13Z" fill="#6376BF"/>
<path opacity="0.5" d="M693.514 708.627L710.38 727.386L709.781 734.07L693.514 708.627Z" fill="#6376BF"/>
<path d="M690.493 641.664C689.846 641.257 689.223 641.185 688.648 641.257C688.217 639.221 687.57 637.304 686.947 635.555C686.157 633.375 684.36 631.794 682.204 631.386C676.933 630.356 667.062 628.248 660.785 633.83C659.396 635.076 658.629 636.945 658.653 638.909C658.725 642.359 658.605 645.234 659.204 651.056C659.419 653.236 659.731 655.32 660.066 657.189C660.665 660.304 661.456 662.747 662.534 663.778C666.799 667.85 681.365 664.424 686.899 655.272C687.714 653.931 688.289 652.541 688.648 651.152C692.05 649.043 692.817 643.102 690.493 641.664Z" fill="#FFB894"/>
<path d="M667.616 644.945C668.143 645.664 668.334 646.646 668.287 647.557C668.263 648.491 667.999 649.377 667.688 650.216C667.52 650.647 667.304 651.031 667.232 651.366C667.137 651.677 667.208 652.013 667.376 652.324C667.735 652.947 668.574 653.283 669.46 653.307C668.67 653.666 667.496 653.57 666.825 652.732C666.49 652.348 666.298 651.749 666.394 651.198C666.49 650.671 666.705 650.264 666.849 649.881C667.16 649.09 667.424 648.299 667.592 647.485C667.759 646.67 667.807 645.832 667.616 644.945Z" fill="#F29272"/>
<path d="M670.606 643.1C670.918 642.741 671.301 642.573 671.732 642.477C672.163 642.381 672.619 642.405 673.05 642.477C673.481 642.549 673.912 642.741 674.272 643.004C674.631 643.244 674.895 643.603 675.086 643.963C675.158 644.082 675.11 644.226 674.99 644.298C674.895 644.346 674.799 644.346 674.703 644.274L674.679 644.25C674.391 644.035 674.104 643.843 673.817 643.723C673.529 643.579 673.218 643.531 672.906 643.531C672.283 643.483 671.684 643.771 670.989 643.795H670.894C670.678 643.795 670.486 643.627 670.486 643.388C670.51 643.292 670.534 643.172 670.606 643.1Z" fill="#523329"/>
<path d="M665.6 644.299C664.905 644.419 664.282 644.227 663.683 644.395C663.396 644.467 663.084 644.562 662.821 644.754C662.557 644.922 662.318 645.161 662.054 645.425L662.03 645.449C661.934 645.545 661.767 645.545 661.671 645.449C661.599 645.377 661.575 645.281 661.599 645.185C661.743 644.802 661.91 644.419 662.246 644.107C662.533 643.796 662.917 643.508 663.348 643.365C663.755 643.221 664.21 643.125 664.642 643.125C665.073 643.149 665.48 643.245 665.863 643.532C666.031 643.676 666.079 643.94 665.935 644.107C665.863 644.203 665.768 644.251 665.672 644.251L665.6 644.299Z" fill="#523329"/>
<path d="M668.764 656.16C669.866 656.04 670.872 655.896 671.663 655.417C672.07 655.202 672.405 654.89 672.669 654.483C672.956 654.099 673.172 653.62 673.435 653.117C673.531 653.668 673.531 654.267 673.292 654.818C673.1 655.393 672.645 655.896 672.118 656.208C671.567 656.519 670.968 656.663 670.393 656.639C669.818 656.591 669.267 656.447 668.764 656.16Z" fill="#F29272"/>
<path d="M672.979 647.895C673.075 648.901 672.668 649.764 672.045 649.812C671.446 649.86 670.871 649.093 670.799 648.087C670.703 647.081 671.111 646.218 671.734 646.17C672.332 646.122 672.883 646.889 672.979 647.895Z" fill="#523329"/>
<path d="M665.241 648.61C665.337 649.616 664.93 650.479 664.307 650.527C663.708 650.574 663.133 649.808 663.061 648.802C662.965 647.795 663.372 646.933 663.995 646.885C664.594 646.837 665.145 647.604 665.241 648.61Z" fill="#523329"/>
<path d="M690.276 645.043C690.037 644.66 689.581 644.492 689.198 644.492C688.791 644.468 688.431 644.66 688.096 644.9C687.449 645.403 686.898 646.097 686.467 646.84C686.371 647.008 686.131 647.08 685.94 646.96C685.772 646.864 685.724 646.649 685.796 646.481C686.084 645.834 686.682 645.499 687.257 645.355C687.545 645.283 687.832 645.235 688.168 645.283C688.479 645.307 688.839 645.451 689.078 645.738C689.509 646.313 689.438 647.032 689.078 647.511C688.719 647.99 688.168 648.206 687.665 648.302C688.12 648.038 688.551 647.727 688.743 647.295C688.935 646.912 688.887 646.385 688.623 646.145C688.383 645.906 687.928 645.93 687.497 646.074C687.066 646.193 686.682 646.457 686.539 646.792L685.868 646.433C686.371 645.642 686.994 644.9 687.856 644.396C688.288 644.157 688.815 644.013 689.318 644.133C689.701 644.229 690.18 644.588 690.276 645.043Z" fill="#F29272"/>
<path d="M689.772 631.985C686.227 626.139 673.936 627.265 673.936 627.265C674.248 626.499 673.816 625.54 673.122 625.109C672.427 624.654 671.516 624.606 670.702 624.75C669.839 624.917 668.977 625.301 668.474 626.019C668.45 625.085 668.354 624.127 667.995 623.264C667.635 622.402 667.012 621.611 666.174 621.228C665.311 620.821 664.257 620.892 663.371 621.252C662.484 621.611 661.718 622.258 661.119 622.977C659.825 624.486 659.058 626.475 659.25 628.439C658.699 627.84 658.124 627.241 657.573 626.666C657.381 626.475 657.19 626.259 656.902 626.211C656.615 626.163 656.327 626.331 656.111 626.523C655.201 627.265 654.746 628.463 654.698 629.637C654.65 630.811 654.985 631.961 655.465 633.039C655.848 633.878 656.327 634.692 656.902 635.435C655.201 640.634 658.986 648.204 658.986 648.204C658.411 643.293 659.825 640.179 660.927 638.573C662.005 639.005 663.467 639.484 665.335 639.795C669.528 640.466 673.361 635.531 675.517 635.435C677.674 635.339 678.033 637.423 678.033 637.423C678.033 637.423 678.512 644.227 679.662 645.497C680.812 646.767 683.328 648.564 684.166 648.732C685.005 648.875 683.975 640.442 688.67 641.281C694.3 642.287 688.479 650.84 688.479 650.84L687.904 653.427C698.613 646.432 689.772 631.985 689.772 631.985Z" fill="#523329"/>
<path d="M231.24 883.685C227.671 881.648 223.981 879.588 220.316 877.432C205.318 896.478 192.932 913.177 192.932 913.177L203.641 922.592L237.925 887.662C235.697 886.32 233.492 884.978 231.24 883.685Z" fill="#E28758"/>
<path d="M190.371 915.526C189.221 914.4 189.532 911.573 190.611 910.375C191.425 909.465 192.383 908.626 193.414 907.956C193.917 907.62 194.468 907.309 195.067 907.309C195.809 907.309 196.456 907.788 196.983 908.291C200.409 911.501 201.751 916.604 205.776 919C206.614 917.371 208.052 916.077 209.729 915.382C210.376 915.119 211.119 914.927 211.813 915.143C213.371 915.622 213.706 917.635 213.874 919.264C214.545 925.397 217.276 931.291 221.516 935.795C222.475 936.825 223.529 937.783 224.295 938.957C225.062 940.131 225.517 941.592 225.182 942.958C224.822 944.324 223.457 945.45 222.091 945.21L190.371 915.526Z" fill="#143C4A"/>
<path d="M277.314 778.63C277.314 779.182 277.314 779.757 277.29 780.355C277.29 781.146 277.29 781.985 277.266 782.847C277.074 805.104 276.523 849.642 275.517 852.11C274.199 855.392 223.193 903.715 223.193 903.715L222.69 903.188L210.208 890.37L209.01 889.149L250.241 838.621L241.305 753.834L265.479 762.1L267.97 762.938L271.875 764.28C275.421 768.209 277.362 773.336 277.314 778.63Z" fill="#FCC574"/>
<g opacity="0.5">
<path d="M277.29 780.354C277.29 781.144 277.29 781.983 277.266 782.845C275.301 782.486 273.552 781.575 272.019 780.138C266.964 775.346 265.766 765.859 265.479 762.098L267.97 762.936C268.353 766.865 269.623 774.604 273.672 778.389C274.75 779.419 275.948 780.09 277.29 780.354Z" fill="#FCC574"/>
</g>
<path opacity="0.5" d="M246.912 842.717L245.762 882.128L257.333 870.892L248.517 840.729L246.912 842.717Z" fill="#FCC574"/>
<path opacity="0.5" d="M222.69 903.187L221.66 873.646L216.988 879.372L222.69 903.187Z" fill="#FCC574"/>
<path d="M231.241 883.686C228.103 881.889 224.893 880.068 221.658 878.199C223.144 908.434 226.114 938.957 226.114 938.957H243.244L244.107 891.304C239.866 888.717 235.578 886.177 231.241 883.686Z" fill="#E28758"/>
<path d="M226.55 946.335C224.944 946.287 223.243 944.011 223.219 942.382C223.195 941.136 223.339 939.914 223.627 938.716C223.77 938.141 223.962 937.542 224.417 937.135C224.968 936.632 225.759 936.536 226.478 936.56C231.173 936.584 235.606 939.411 240.206 938.453C239.726 936.704 239.894 934.763 240.661 933.11C240.948 932.463 241.38 931.84 242.026 931.505C243.488 930.786 245.117 932.056 246.339 933.134C251.011 937.183 257 939.651 263.181 940.082C264.595 940.178 266.008 940.178 267.374 940.513C268.74 940.849 270.081 941.615 270.728 942.861C271.399 944.107 271.159 945.856 269.985 946.623L226.55 946.335Z" fill="#143C4A"/>
<path d="M262.411 761.046L248.516 787.208L244.754 916.845H223.24C223.24 916.845 218.688 812.628 218.089 785.675C217.49 758.722 225.899 748.588 225.899 748.588L229.493 749.81L231.769 750.576L237.471 752.541L239.771 753.332L262.411 761.046Z" fill="#FCC574"/>
<path opacity="0.5" d="M239.774 753.33C238.911 757.787 236.899 764.782 232.634 767.825C231.197 768.831 229.64 769.334 227.963 769.334C227.675 769.334 227.388 769.262 227.124 769.238C226.429 773.527 225.95 778.223 225.878 783.134C225.663 797.748 228.058 863.489 229.352 898.803C229.711 908.698 229.927 913.993 229.927 916.843H227.627C227.507 913.609 227.268 907.045 226.98 898.875C225.663 863.537 223.267 797.772 223.482 783.11C223.698 768.472 227.483 755.654 229.496 749.809L231.772 750.575C230.598 753.977 228.825 759.775 227.531 766.915C228.873 767.01 230.095 766.675 231.221 765.86C234.91 763.225 236.707 756.613 237.474 752.54L239.774 753.33Z" fill="#FCC574"/>
<path d="M344.976 766.899L346.941 756.621L290.424 746.223C285.8 745.336 281.344 748.403 280.457 753.075C279.571 757.747 284.866 760.55 289.466 761.436L344.976 766.899Z" fill="#E28758"/>
<path d="M345.384 756.74C345.384 756.74 362.346 754.392 370.828 764.383C371.522 765.197 371.139 766.443 370.133 766.683C365.916 767.737 355.566 769.653 343.971 766.898L345.384 756.74Z" fill="#E28758"/>
<path d="M263.566 705.109L278.277 703.024C284.29 702.162 289.944 706.187 291.118 712.152L297.802 746.053L325.761 752.713L321.832 766.896C321.832 766.896 284.985 771.448 279.307 754.534C273.629 737.62 263.566 705.109 263.566 705.109Z" fill="#0F3340"/>
<path d="M262.008 686.348L273.244 696.171L280.048 691.667L286.373 670.392L271.687 665.385L262.008 686.348Z" fill="#E28758"/>
<path d="M283.042 681.556C283.042 681.556 274.848 678.657 272.836 674.033C272.836 674.033 274.561 684.383 281.605 686.372L283.042 681.556Z" fill="#C26144"/>
<path d="M291.763 718.955C290.397 723.292 271.878 764.284 271.878 764.284L225.902 748.591L237.258 705.251C239.151 698.088 244.278 692.218 251.106 689.391C253.43 688.433 255.634 687.642 257.455 687.043C258.485 686.684 259.396 686.397 260.138 686.157C261.432 685.774 262.223 685.582 262.223 685.582L273.531 694.59L280.047 691.667C280.431 692.051 280.838 692.458 281.197 692.865C281.772 693.464 282.299 694.087 282.826 694.734C289.822 703.431 292.961 715.122 291.763 718.955Z" fill="#143C4A"/>
<g opacity="0.5">
<path d="M282.827 694.733L272.189 699.788L257.455 687.043C258.485 686.683 259.396 686.396 260.138 686.156L272.597 696.961L281.197 692.865C281.772 693.463 282.299 694.086 282.827 694.733Z" fill="#143C4A"/>
</g>
<path d="M321.515 767.928L323.671 757.674L267.37 746.223C262.77 745.264 258.242 748.235 257.284 752.883C256.302 757.531 261.548 760.43 266.148 761.412L321.515 767.928Z" fill="#E28758"/>
<path d="M322.113 757.768C322.113 757.768 339.123 755.756 347.413 765.89C348.083 766.704 347.7 767.95 346.67 768.19C342.429 769.172 332.056 770.873 320.508 767.926L322.113 757.768Z" fill="#E28758"/>
<path d="M241.307 704.628L266.822 701.514L274.752 746.219L302.591 753.383L298.398 767.494C298.398 767.494 261.479 771.351 256.113 754.341C250.722 737.307 241.307 704.628 241.307 704.628Z" fill="#143C4A"/>
<path opacity="0.5" d="M243.654 712.727L255.106 751.107C255.082 751.131 232.825 737.068 243.654 712.727Z" fill="#143C4A"/>
<path d="M299.137 653.118C294.346 646.218 284.259 645.931 278.893 645.691C276.713 645.595 274.604 646.698 273.311 648.638C272.28 650.195 271.226 651.92 270.316 653.789C269.765 653.574 269.142 653.502 268.423 653.741C265.836 654.58 265.165 660.521 267.968 663.396C267.992 664.834 268.232 666.319 268.711 667.828C271.945 678.035 285.29 684.791 290.393 681.82C291.662 681.077 293.028 678.873 294.346 675.998C295.136 674.273 295.903 672.309 296.622 670.248C298.586 664.738 299.137 661.911 300 658.581C300.503 656.664 300.191 654.652 299.137 653.118Z" fill="#E28758"/>
<path d="M289.896 662.32C289.201 662.895 288.794 663.806 288.626 664.692C288.435 665.603 288.483 666.513 288.602 667.423C288.674 667.878 288.77 668.31 288.77 668.645C288.794 668.981 288.65 669.268 288.387 669.532C287.884 670.059 286.997 670.179 286.135 670.011C286.83 670.538 287.98 670.73 288.842 670.083C289.273 669.795 289.585 669.244 289.609 668.693C289.633 668.142 289.513 667.711 289.489 667.304C289.369 666.465 289.297 665.627 289.321 664.788C289.345 663.949 289.513 663.111 289.896 662.32Z" fill="#C26144"/>
<path d="M287.427 659.806C287.211 659.375 286.876 659.111 286.468 658.919C286.061 658.728 285.63 658.632 285.199 658.608C284.743 658.56 284.288 658.656 283.905 658.848C283.498 658.991 283.162 659.303 282.875 659.59C282.779 659.686 282.779 659.854 282.875 659.95C282.946 660.021 283.066 660.045 283.138 659.998H283.162C283.498 659.854 283.809 659.734 284.144 659.686C284.456 659.614 284.767 659.638 285.079 659.71C285.702 659.806 286.205 660.237 286.876 660.405L286.971 660.429C287.187 660.477 287.427 660.357 287.475 660.141C287.475 659.998 287.475 659.902 287.427 659.806Z" fill="#523329"/>
<path d="M292.026 662.129C292.673 662.392 293.32 662.368 293.871 662.68C294.134 662.824 294.398 662.991 294.613 663.231C294.829 663.47 295.021 663.758 295.188 664.069L295.212 664.093C295.284 664.213 295.428 664.261 295.548 664.189C295.644 664.141 295.691 664.045 295.668 663.95C295.62 663.542 295.548 663.111 295.308 662.752C295.093 662.368 294.805 662.009 294.422 661.769C294.062 661.53 293.631 661.338 293.224 661.242C292.793 661.146 292.361 661.17 291.93 661.362C291.714 661.458 291.643 661.697 291.714 661.913C291.762 662.009 291.834 662.081 291.93 662.129H292.026Z" fill="#523329"/>
<path d="M286.132 672.907C285.078 672.523 284.144 672.14 283.473 671.493C283.138 671.182 282.898 670.798 282.706 670.343C282.515 669.888 282.419 669.385 282.275 668.834C282.036 669.337 281.916 669.936 282.012 670.535C282.06 671.134 282.371 671.733 282.826 672.164C283.281 672.595 283.832 672.859 284.407 672.979C285.006 673.098 285.581 673.098 286.132 672.907Z" fill="#C26144"/>
<path d="M284.001 663.901C283.665 664.86 283.881 665.794 284.456 665.986C285.031 666.177 285.75 665.554 286.085 664.596C286.421 663.638 286.205 662.703 285.63 662.512C285.055 662.344 284.312 662.967 284.001 663.901Z" fill="#523329"/>
<path d="M291.333 666.416C290.997 667.375 291.213 668.309 291.788 668.501C292.363 668.692 293.082 668.07 293.417 667.111C293.753 666.153 293.537 665.218 292.962 665.027C292.387 664.835 291.668 665.458 291.333 666.416Z" fill="#523329"/>
<path d="M267.852 657.048C268.187 656.736 268.642 656.664 269.049 656.76C269.457 656.832 269.768 657.096 270.032 657.407C270.535 658.054 270.918 658.869 271.158 659.659C271.23 659.851 271.421 659.971 271.637 659.899C271.829 659.851 271.924 659.659 271.9 659.468C271.781 658.773 271.254 658.318 270.75 658.03C270.487 657.886 270.199 657.79 269.888 657.743C269.577 657.695 269.193 657.743 268.906 657.982C268.355 658.437 268.259 659.156 268.498 659.707C268.738 660.258 269.217 660.594 269.696 660.809C269.313 660.45 268.978 660.043 268.882 659.587C268.786 659.156 268.978 658.677 269.265 658.485C269.553 658.294 269.984 658.437 270.391 658.677C270.774 658.893 271.086 659.252 271.158 659.611L271.9 659.42C271.589 658.533 271.182 657.671 270.463 656.976C270.104 656.64 269.624 656.377 269.121 656.377C268.594 656.401 268.067 656.64 267.852 657.048Z" fill="#C26144"/>
<path d="M299.428 660.832C299.692 654.579 294.828 658.101 292.385 658.268C289.941 658.436 290.732 655.465 288.408 653.788C286.084 652.087 284.119 654.435 284.119 654.435C284.119 654.435 280.621 658.101 277.028 659.825C276.261 660.185 275.351 659.849 275.015 659.083C274.392 657.717 273.29 655.657 271.829 654.483C270.224 653.189 267.924 653.764 266.965 655.585C266.127 657.19 265.648 659.826 267.995 663.371C267.995 663.371 268.475 667.42 269.098 668.834C266.917 667.78 265.264 665.623 264.569 663.299C263.659 660.257 264.09 656.879 264.953 653.884C265.624 651.536 266.702 649.284 268.091 647.272C268.834 646.193 269.72 645.163 270.87 644.54C272.164 643.822 273.841 643.678 275.063 644.492C280.43 642.696 285.988 642.049 291.642 642.552C293.846 642.743 296.05 643.127 298.039 644.061C300.027 644.995 301.824 646.529 302.687 648.541C303.381 650.123 303.477 651.943 303.214 653.644C302.95 655.369 302.327 656.998 301.632 658.58C300.77 660.52 299.788 662.437 298.446 664.09L299.428 660.832Z" fill="#523329"/>
<path d="M441.492 946.688L441.492 774.334H433.323L433.323 946.688H441.492Z" fill="#4759A1"/>
<path opacity="0.5" d="M441.506 798.807V787.211H433.336V798.807H441.506Z" fill="#4759A1"/>
<path d="M360.227 946.688L360.227 774.334H352.057L352.057 946.688H360.227Z" fill="#4759A1"/>
<path opacity="0.5" d="M360.242 798.807V787.211H352.073V798.807H360.242Z" fill="#4759A1"/>
<path d="M316.682 946.678L316.682 774.324H308.512L308.512 946.678H316.682Z" fill="#6376BF"/>
<path opacity="0.5" d="M316.695 798.797V787.201H308.526V798.797H316.695Z" fill="#6376BF"/>
<path d="M397.947 946.678L397.947 774.324H389.778L389.778 946.678H397.947Z" fill="#6376BF"/>
<path opacity="0.5" d="M397.961 798.797V787.201H389.791V798.797H397.961Z" fill="#6376BF"/>
<path d="M441.502 774.318H308.535V787.208H441.502V774.318Z" fill="#6376BF"/>
<path opacity="0.5" d="M441.502 774.318H308.535V778.032H441.502V774.318Z" fill="#6376BF"/>
<path d="M386.755 768.928H325.566V774.318H386.755V768.928Z" fill="#1B5063"/>
<path d="M412.747 768.928H359.201V774.318H412.747V768.928Z" fill="#143C4A"/>
<path d="M412.677 768.93H359.131L363.659 735.005C363.803 733.831 364.809 732.969 365.983 732.969H414.809C416.223 732.969 417.325 734.215 417.133 735.628L412.677 768.93Z" fill="#143C4A"/>
<path d="M1021.28 945.74H0V952.928H1021.28V945.74Z" fill="#B4CBDD"/>
</g>
<defs>
<clipPath id="clip0_22_14714">
<rect width="1021" height="990" fill="white"/>
</clipPath>
</defs>
</svg>
