<svg width="950" height="866" viewBox="0 0 950 866" fill="none" xmlns="http://www.w3.org/2000/svg">
<path d="M921.632 865.64C936.919 865.64 949.39 853.389 949.632 838.102C950.798 761.912 956.934 649.495 813.439 618.416C697.305 593.254 766.172 386.875 453.403 400.204C228.9 409.772 288.528 599.017 113.976 614.765C-2.17954 625.257 -3.19131 772.161 1.27368 839.466C2.24146 854.181 14.4707 865.618 29.2293 865.618H921.632V865.64Z" fill="#B5DFEA"/>
<path opacity="0.55" d="M813.416 618.387C697.283 593.225 766.149 386.846 453.38 400.175C399.976 402.462 362.673 414.911 334.453 432.749C343.955 431.496 354.051 430.616 364.806 430.176C677.553 416.847 608.709 623.226 724.842 648.388C866.82 679.137 862.333 789.486 861.079 865.611H921.61C936.896 865.611 949.367 853.36 949.609 838.073C950.797 761.882 956.934 649.488 813.416 618.387Z" fill="#90CEDD"/>
<path d="M321.058 0H316.131V360.278H321.058V0Z" fill="#79C9E8"/>
<path d="M675.112 0H670.186V415.617H675.112V0Z" fill="#79C9E8"/>
<path d="M674.652 391.402L307.446 348.534C291.763 346.709 277.555 357.948 275.707 373.63L248.323 608.449C246.498 624.131 257.737 638.34 273.42 640.188L640.626 683.056C656.308 684.882 670.517 673.642 672.365 657.96L699.771 423.163C701.574 407.437 690.357 393.228 674.652 391.402Z" fill="#D7F0F9"/>
<path d="M697.042 446.367L699.747 423.118C701.573 407.435 690.333 393.227 674.651 391.379L307.444 348.511C291.762 346.685 277.553 357.925 275.705 373.607L273 396.856L697.042 446.367Z" fill="#3EC6C9"/>
<path d="M332.429 539.055L378.971 457.036C381.962 451.779 387.791 448.831 393.796 449.513C402.044 450.481 407.96 457.937 406.993 466.185L397.315 549.151L397.733 549.195C403.451 549.854 407.542 555.045 406.883 560.742C406.223 566.461 401.032 570.552 395.335 569.892L394.917 569.848L393.158 584.958C392.432 591.139 386.845 595.56 380.687 594.834C374.506 594.108 370.085 588.522 370.811 582.363L372.57 567.252L339.05 563.337C333.331 562.677 329.218 557.487 329.9 551.768L330.78 544.158C330.956 542.354 331.528 540.617 332.429 539.055ZM375.1 545.191L381.104 493.745C381.148 493.393 380.665 493.239 380.489 493.547L352.995 542.068C352.511 542.926 353.061 544.004 354.029 544.114L373.582 546.401C374.33 546.489 375.012 545.939 375.1 545.191Z" fill="#3EC6C9"/>
<path d="M537.842 563.031L584.383 481.012C587.374 475.755 593.203 472.808 599.208 473.49C607.456 474.458 613.372 481.914 612.405 490.162L602.727 573.127L603.145 573.171C608.863 573.831 612.955 579.022 612.295 584.718C611.635 590.437 606.444 594.528 600.747 593.868L600.329 593.824L598.57 608.935C597.844 615.116 592.257 619.537 586.099 618.811C579.918 618.085 575.497 612.498 576.223 606.34L577.982 591.229L544.462 587.314C538.743 586.654 534.63 581.463 535.312 575.745L536.192 568.134C536.39 566.331 536.962 564.593 537.842 563.031ZM580.534 569.168L586.539 517.722C586.583 517.37 586.099 517.216 585.923 517.524L558.429 566.045C557.945 566.903 558.495 567.98 559.463 568.09L579.016 570.378C579.764 570.466 580.446 569.916 580.534 569.168Z" fill="#3EC6C9"/>
<path d="M445.505 490.798C448.211 467.616 461.957 455.804 484.326 458.4C506.673 461.017 517.341 475.688 514.635 498.849L505.837 574.181C503.132 597.364 489.385 609.175 467.016 606.58C444.669 603.963 434.002 589.292 436.707 566.131L445.505 490.798ZM459.296 570.244C458.086 580.582 462.177 585.047 469.436 585.905C476.672 586.741 481.687 583.353 482.897 572.994L492.025 494.758C493.234 484.42 489.143 479.955 481.885 479.097C474.649 478.261 469.634 481.649 468.424 492.008L459.296 570.244Z" fill="#3EC6C9"/>
<path d="M316.304 380.976C315.82 385.199 311.993 388.212 307.77 387.728C303.547 387.244 300.534 383.417 301.018 379.194C301.502 374.971 305.329 371.958 309.552 372.442C313.775 372.948 316.788 376.775 316.304 380.976Z" fill="white"/>
<path d="M353.127 385.288C352.643 389.511 348.816 392.525 344.593 392.041C340.369 391.557 337.356 387.73 337.84 383.507C338.324 379.284 342.151 376.27 346.374 376.754C350.597 377.238 353.632 381.065 353.127 385.288Z" fill="#3EC6C9"/>
<path d="M391.308 389.732C390.824 393.955 386.997 396.968 382.774 396.484C378.551 396 375.538 392.173 376.022 387.95C376.506 383.727 380.333 380.714 384.556 381.197C388.779 381.703 391.792 385.531 391.308 389.732Z" fill="#FFBF4D"/>
<path d="M243.591 657.187C243.591 657.187 238.62 679.182 239.456 701.661C240.204 721.786 237.807 854.108 237.807 854.108H253.973C253.973 854.108 276.98 750.467 277.838 742.285C278.695 734.103 290.265 652.26 290.265 652.26L243.591 657.187Z" fill="#00668E"/>
<path d="M254.348 651.16C254.348 651.16 258.065 679.424 264.399 699.527C270.734 719.609 301.813 854.13 301.813 854.13H317.979C317.979 854.13 315.01 750.49 313.888 742.307C312.766 734.125 304.584 652.282 304.584 652.282L254.348 651.16Z" fill="#0582C1"/>
<path d="M303.109 854.084V865.367H333.88C335.618 865.367 336.322 863.102 334.848 862.134C330.339 859.143 323.147 855.008 316.438 854.084H303.109Z" fill="#0582C1"/>
<path d="M238.625 854.084V865.367H269.396C271.134 865.367 271.837 863.102 270.364 862.134C265.855 859.143 258.662 855.008 251.954 854.084H238.625Z" fill="#0582C1"/>
<path d="M294.139 519.655C294.139 519.655 304.719 503.576 292.577 502.015C283.251 500.805 279.402 503.598 279.402 503.598C279.402 503.598 268.669 502.411 262.774 507.514C258.749 511.011 243.968 538.087 267.877 547.874C291.786 557.662 286.683 532.588 286.683 532.588L294.139 519.655Z" fill="#00668E"/>
<path d="M292.577 502.015C283.251 500.805 279.402 503.598 279.402 503.598C279.402 503.598 268.669 502.411 262.774 507.514C258.749 511.011 243.968 538.087 267.877 547.874C279.116 552.471 283.933 549.37 285.913 544.795C263.236 551.174 260.773 523.834 264.512 516.07C268.317 508.173 277.423 511.803 277.423 511.803C280.986 502.829 292.621 503.796 297.416 504.5C296.536 503.246 295.019 502.323 292.577 502.015Z" fill="#05556D"/>
<path d="M279.246 527.485C279.246 527.485 276.101 524.34 273.769 527.485C271.416 530.63 272.977 537.669 276.914 538.065C276.914 538.065 275.749 548.248 267.896 547.852V556.079H286.306V549.81C286.306 549.81 297.678 545.103 297.282 535.711C296.886 526.297 294.136 519.633 294.136 519.633C294.136 519.633 287.868 526.693 279.246 527.485Z" fill="#F98D3D"/>
<path d="M282.065 552.449C283.891 553.219 283.561 554.362 283.649 556.078H286.289V549.809C286.289 549.809 281.824 551.217 275.291 547.5C275.313 547.522 279.118 551.217 282.065 552.449Z" fill="#ED701B"/>
<path d="M285.844 512.485C285.844 512.485 276.299 508.68 275.177 511.539C274.451 513.409 276.299 515.015 278.85 516.642L276.606 517.016C276.101 517.104 275.925 517.742 276.321 518.05C276.936 518.556 278.674 518.886 282.281 519.018L285.844 512.485Z" fill="#F98D3D"/>
<path d="M354.01 536.394C335.798 522.911 286.09 512.111 286.09 512.111L281.998 519.568C281.998 519.568 327.132 537.054 324.163 539.671C322.403 541.211 300.364 551.306 292.886 554.716C291.28 555.441 289.543 555.793 287.761 555.771L264.908 555.639C264.908 555.639 248.412 553.682 235.457 568.572C223.866 581.923 204.158 612.826 204.158 612.826L237.371 661.655L241.044 667.044L241.066 666.978L241.044 667.44C241.044 667.44 242.232 667.572 244.321 667.77C254.989 668.76 289.213 671.465 307.315 667.616L307.821 667.506L306.963 587.4C335.864 564.525 349.677 546.841 354.604 541.299C355.836 539.825 355.594 537.582 354.01 536.394ZM242.605 645.643L239.372 638.561L229.057 616.016L246.169 596.836L243.089 638.912L242.605 645.643Z" fill="#FFBF4D"/>
<path d="M239.35 638.561L242.605 645.643L241.021 667L240.999 667.066L237.326 661.677L239.35 638.561Z" fill="#EFAA3A"/>
<path opacity="0.29" d="M299.174 584.538C296.094 586.781 296.886 606.577 296.116 618.96C294.841 639.701 293.609 657.649 294.511 669.218C299.196 668.91 303.551 668.405 307.246 667.613L307.752 667.503L306.894 587.397C335.795 564.522 349.608 546.838 354.535 541.296C355.833 539.822 355.591 537.578 354.007 536.391C354.007 536.391 331.154 561.311 299.174 584.538Z" fill="#F98D2B"/>
<path d="M313.869 742.31C313.055 736.415 308.568 692.161 306.149 667.967L294.535 669.242C294.535 669.242 311.471 808.537 312.593 854.132H317.96C317.96 854.11 314.99 750.492 313.869 742.31Z" fill="#00668E"/>
<path d="M239.392 529.772L235.894 523.503C237.654 520.204 238.644 516.421 238.644 512.418C238.644 499.331 228.02 488.707 214.933 488.707C201.846 488.707 191.223 499.331 191.223 512.418C191.223 525.505 201.846 536.128 214.933 536.128C221.532 536.128 227.492 533.423 231.781 529.09L239.392 529.772Z" fill="#3EC6C9"/>
<path d="M202.594 510.264H203.518V513.563C203.518 514.575 203.826 515.015 204.53 515.015C205.08 515.015 205.476 514.729 205.981 514.113V510.264H206.883V515.674H206.135L206.047 514.839H206.003C205.498 515.432 204.97 515.828 204.222 515.828C203.078 515.828 202.572 515.103 202.572 513.717V510.264H202.594Z" fill="white"/>
<path d="M210.758 516.116V517.942H209.834V510.243H210.582L210.648 510.859H210.692C211.176 510.441 211.792 510.111 212.407 510.111C213.793 510.111 214.541 511.189 214.541 512.861C214.541 514.686 213.441 515.786 212.209 515.786C211.704 515.786 211.198 515.544 210.714 515.17L210.758 516.116ZM212.077 515.038C212.957 515.038 213.617 514.224 213.617 512.883C213.617 511.695 213.221 510.881 212.187 510.881C211.726 510.881 211.264 511.145 210.736 511.607V514.444C211.242 514.884 211.726 515.038 212.077 515.038Z" fill="white"/>
<path d="M216.979 514.444C217.441 514.818 217.925 515.082 218.563 515.082C219.266 515.082 219.64 514.708 219.64 514.246C219.64 513.697 219.003 513.455 218.409 513.213C217.639 512.927 216.803 512.575 216.803 511.651C216.803 510.771 217.485 510.111 218.673 510.111C219.354 510.111 219.948 510.397 220.344 510.727L219.904 511.299C219.53 511.013 219.156 510.815 218.673 510.815C217.991 510.815 217.683 511.189 217.683 511.585C217.683 512.091 218.277 512.289 218.893 512.531C219.662 512.817 220.542 513.147 220.542 514.158C220.542 515.038 219.838 515.764 218.563 515.764C217.793 515.764 217.067 515.434 216.539 515.016L216.979 514.444Z" fill="white"/>
<path d="M223.381 514.396C223.732 514.396 224.04 514.682 224.04 515.1C224.04 515.496 223.732 515.782 223.381 515.782C223.007 515.782 222.721 515.496 222.721 515.1C222.721 514.682 223.007 514.396 223.381 514.396Z" fill="white"/>
<path d="M227.252 514.396C227.604 514.396 227.912 514.682 227.912 515.1C227.912 515.496 227.604 515.782 227.252 515.782C226.878 515.782 226.592 515.496 226.592 515.1C226.592 514.682 226.9 514.396 227.252 514.396Z" fill="white"/>
<path d="M148.464 814.893C148.464 814.893 143.494 810.23 146.837 792.59C150.18 774.951 158.67 757.992 154.491 738.857C150.334 719.699 117.693 671.442 117.605 668.231C117.495 665.02 107.532 724.384 124.402 747.787C141.272 771.167 143.296 779.284 142.548 791.579C141.8 803.874 142.724 813.794 144.571 816.653L148.464 814.893Z" fill="#79C9E8"/>
<path d="M145.384 779.417C143.426 787.291 142.238 807.02 145.362 811.749C145.648 812.189 146.066 811.947 146.593 811.133C145.648 807.878 145.01 802.159 146.813 792.614C150.157 774.974 158.647 758.015 154.468 738.88C150.311 719.722 117.67 671.465 117.582 668.254C117.582 668.254 122.509 708.483 139.049 736.152C150.926 755.948 147.341 771.542 145.384 779.417Z" fill="#49B4D6"/>
<path d="M154.427 813.683C154.427 813.683 144.837 789.752 161.091 769.033C177.346 748.314 203.322 721.7 203.828 711.164C203.828 711.164 210.514 761.203 189.355 775.367C168.218 789.532 153.393 791.798 157.044 813.595L154.427 813.683Z" fill="#79C9E8"/>
<path d="M177.235 765.315C153.656 782.471 151.72 802.245 155.394 811.417C155.679 812.121 156.207 812.561 156.933 812.802C153.766 791.775 168.481 789.378 189.354 775.389C210.491 761.224 203.827 711.186 203.827 711.186C203.827 711.186 200.813 748.137 177.235 765.315Z" fill="#49B4D6"/>
<path d="M138.658 814.209C138.658 814.209 141.737 801.54 140.087 787.859C138.46 774.178 124.163 766.48 110.812 752.029C103.949 744.595 101.904 705.29 106.171 701.639C106.171 701.639 82.5923 730.21 86.2435 751.127C89.8727 772.045 128.342 785.638 131.905 795.755C135.468 805.873 135.16 814.341 135.16 814.341L138.658 814.209Z" fill="#79C9E8"/>
<path d="M98.2073 712.88C90.4211 733.973 98.4053 759.531 124.293 775.411C143.341 787.091 137.27 811.395 137.27 811.395L140.394 801.805C140.68 797.67 140.702 792.831 140.108 787.861C138.48 774.18 124.183 766.481 110.832 752.031C104.212 744.86 102.078 708.041 105.752 702.168C104.674 703.532 101.617 707.491 98.2073 712.88Z" fill="#49B4D6"/>
<path d="M105.752 702.167C106.016 701.837 106.17 701.639 106.17 701.639C106.016 701.771 105.884 701.947 105.752 702.167Z" fill="#49B4D6"/>
<path d="M159.35 812.626C159.35 812.626 164.87 792.127 178.551 789.355C192.21 786.606 207.915 766.393 208.75 762.434C208.75 762.456 206.441 800.529 159.35 812.626Z" fill="#79C9E8"/>
<path d="M177.761 796.153C169.381 800.332 165.906 805.963 164.674 811.088C206.596 797.605 208.752 762.457 208.752 762.457C208.576 763.249 207.828 764.679 206.618 766.46C202.505 773.674 192.541 788.763 177.761 796.153Z" fill="#49B4D6"/>
<path d="M188.917 805.086H117.455L125.945 858.468C126.583 862.515 130.08 865.506 134.171 865.506H172.201C176.292 865.506 179.789 862.537 180.427 858.468L188.917 805.086Z" fill="#FFBF4D"/>
<path d="M187.531 813.928L188.917 805.086H117.455L118.863 813.928H187.531Z" fill="#FF9F50"/>
<path d="M171.605 805.086L163.115 858.468C162.477 862.515 158.98 865.506 154.889 865.506H172.199C176.29 865.506 179.787 862.537 180.425 858.468L188.915 805.086H171.605Z" fill="#FF9F50"/>
<path d="M681.884 709.887H358.865V775.564H681.884V709.887Z" fill="#FFBF4D"/>
<path opacity="0.29" d="M681.884 709.887H358.865V725.833H681.884V709.887Z" fill="#F98D2B"/>
<path d="M386.957 709.887H416.431L408.534 725.833H379.039L386.957 709.887Z" fill="#F77E2D"/>
<path d="M453.379 709.887H482.852L474.956 725.833H445.482L453.379 709.887Z" fill="#F77E2D"/>
<path d="M519.804 709.887H549.278L541.381 725.833H511.908L519.804 709.887Z" fill="#F77E2D"/>
<path d="M586.227 709.887H615.678L607.782 725.833H578.309L586.227 709.887Z" fill="#F77E2D"/>
<path d="M681.886 709.887V710.327L674.188 725.833H644.736L652.655 709.887H681.886Z" fill="#F77E2D"/>
<path d="M421.839 775.566H399.074V865.372H421.839V775.566Z" fill="#79C9E8"/>
<path d="M421.835 775.566H416.666V865.372H421.835V775.566Z" fill="#49B4D6"/>
<path d="M643.435 775.566H620.67V865.372H643.435V775.566Z" fill="#79C9E8"/>
<path d="M643.439 775.566H636.709V865.372H643.439V775.566Z" fill="#49B4D6"/>
<path d="M421.839 775.498H399.074V786.804H421.839V775.498Z" fill="#49B4D6"/>
<path d="M643.435 775.498H620.67V786.804H643.435V775.498Z" fill="#49B4D6"/>
<path d="M421.839 699.615H399.074V709.821H421.839V699.615Z" fill="#79C9E8"/>
<path d="M421.835 699.615H416.666V709.821H421.835V699.615Z" fill="#49B4D6"/>
<path d="M643.435 699.615H620.67V709.821H643.435V699.615Z" fill="#79C9E8"/>
<path d="M643.439 699.615H636.709V709.821H643.439V699.615Z" fill="#49B4D6"/>
<path d="M421.839 708.549H399.074V709.825H421.839V708.549Z" fill="#49B4D6"/>
<path d="M643.435 708.549H620.67V709.825H643.435V708.549Z" fill="#49B4D6"/>
<path d="M416.426 709.887L383.852 775.564H358.865V766.502L386.953 709.887H416.426Z" fill="#3EC6C9"/>
<path d="M453.379 709.887L420.805 775.564H450.278L482.853 709.887H453.379Z" fill="#3EC6C9"/>
<path d="M549.276 709.887L516.702 775.564H487.229L519.803 709.887H549.276Z" fill="#3EC6C9"/>
<path d="M615.682 709.887L583.13 775.564H553.656L586.231 709.887H615.682Z" fill="#3EC6C9"/>
<path d="M652.653 709.887L620.078 775.564H649.529L681.884 710.327L652.653 709.887Z" fill="#3EC6C9"/>
<path d="M416.431 709.887L408.534 725.833H379.039L386.957 709.887H416.431Z" fill="#3EC6C9"/>
<path d="M482.852 709.887L474.956 725.833H445.482L453.379 709.887H482.852Z" fill="#3EC6C9"/>
<path d="M549.278 709.887L541.381 725.833H511.908L519.804 709.887H549.278Z" fill="#3EC6C9"/>
<path d="M615.678 709.887L607.782 725.833H578.309L586.227 709.887H615.678Z" fill="#3EC6C9"/>
<path d="M681.886 710.327L674.188 725.833H644.736L652.655 709.887L681.886 710.327Z" fill="#3EC6C9"/>
<path opacity="0.55" d="M676.321 738.305H367.863V771.165H676.321V738.305Z" fill="url(#paint0_linear_22_14543)"/>
<path d="M413.097 705.412C424.164 703.611 431.675 693.181 429.874 682.114C428.074 671.048 417.643 663.537 406.577 665.337C395.51 667.138 387.999 677.569 389.799 688.635C391.6 699.702 402.031 707.213 413.097 705.412Z" fill="#FFBF4D"/>
<path d="M419.066 685.364C419.066 680.283 414.953 676.17 409.872 676.17C404.791 676.17 400.678 680.283 400.678 685.364C400.678 690.445 404.791 694.558 409.872 694.558C414.953 694.58 419.066 690.445 419.066 685.364Z" fill="#3EC6C9"/>
<path d="M635.154 705.42C646.22 703.619 653.732 693.189 651.931 682.122C650.13 671.056 639.7 663.544 628.633 665.345C617.567 667.146 610.055 677.577 611.856 688.643C613.657 699.709 624.088 707.221 635.154 705.42Z" fill="#FFBF4D"/>
<path d="M641.13 685.364C641.13 680.283 637.017 676.17 631.936 676.17C626.855 676.17 622.742 680.283 622.742 685.364C622.742 690.445 626.855 694.558 631.936 694.558C637.017 694.58 641.13 690.445 641.13 685.364Z" fill="#3EC6C9"/>
<path d="M804.267 858.399H701.396L717.123 820.26V820.238L723.457 804.842L725.195 800.618L728.032 793.756L728.604 792.348L734.939 776.952L736.105 774.158L747.322 746.929C749.346 742.024 756.296 742.024 758.319 746.929L769.537 774.158L770.703 776.952L777.037 792.348L777.609 793.756L780.446 800.618L782.184 804.842L788.519 820.238V820.26L804.267 858.399Z" fill="#FFBF4D"/>
<path opacity="0.29" d="M708.149 842.055L701.396 858.397H804.289L797.537 842.055H708.149Z" fill="#F98D2B"/>
<path d="M810.993 848.633H693.166V865.283H810.993V848.633Z" fill="#79C9E8"/>
<path d="M810.995 848.633H785.547V865.283H810.995V848.633Z" fill="#49B4D6"/>
<path opacity="0.29" d="M800.22 848.633H785.659L773.98 820.281V820.259L767.645 804.863L765.908 800.64L763.07 793.778L762.499 792.37L756.164 776.973L754.998 774.18L745.562 751.261L747.322 746.95C749.346 742.045 756.296 742.045 758.32 746.95L769.537 774.18L770.703 776.973L777.037 792.37L777.609 793.778L780.447 800.64L782.184 804.863L788.519 820.259V820.281L800.22 848.633Z" fill="#F98D2B"/>
<path d="M777.038 792.369H728.627L734.962 776.973H770.703L777.038 792.369Z" fill="#3EC6C9"/>
<path d="M788.541 820.234V820.256H717.123V820.234L723.458 804.838H782.206L788.541 820.234Z" fill="#3EC6C9"/>
<path d="M777.035 792.369H762.497L756.162 776.973H770.701L777.035 792.369Z" fill="#3EC6C9"/>
<path d="M788.544 820.234V820.256H773.983V820.234L767.648 804.838H782.209L788.544 820.234Z" fill="#3EC6C9"/>
<path d="M148.507 484.35C156.183 484.35 162.869 478.763 163.925 471.153C164.101 469.789 164.211 468.382 164.211 466.974C164.211 450.016 150.464 436.269 133.506 436.269C132.802 436.269 132.12 436.291 131.438 436.357C130.031 419.641 116.02 406.51 98.9518 406.51C80.9379 406.51 66.3333 421.114 66.3333 439.128C66.3333 439.92 66.3772 440.712 66.4212 441.504C61.3184 438.644 55.3578 437.127 49.0232 437.413C32.6369 438.161 19.176 451.27 18.0102 467.634C18.0102 467.766 17.9883 467.898 17.9883 468.03C17.4604 476.916 24.6527 484.394 33.5607 484.394H148.507V484.35Z" fill="#D7F0F9"/>
<path d="M881.223 508.456C905.506 508.456 906.847 471.922 882.587 470.734C881.927 470.712 881.267 470.69 880.585 470.69C876.252 470.69 872.095 471.372 868.18 472.626C864.925 452.852 847.769 437.764 827.072 437.764C805.912 437.764 788.47 453.534 785.787 473.945C780.772 471.548 775.141 470.184 769.203 470.184C765.882 470.184 762.67 470.602 759.591 471.394C738.366 476.871 742.809 508.456 764.738 508.456H881.223Z" fill="#D7F0F9"/>
<path d="M589.658 328.428C613.919 328.428 615.283 291.894 591.022 290.728C590.362 290.706 589.702 290.684 589.021 290.684C584.688 290.684 580.531 291.366 576.615 292.62C573.36 272.846 556.204 257.758 535.529 257.758C514.392 257.758 496.928 273.528 494.244 293.94C489.229 291.542 483.599 290.178 477.682 290.178C474.361 290.178 471.149 290.596 468.07 291.388C446.845 296.843 451.31 328.428 473.217 328.428H589.658Z" fill="#D7F0F9"/>
<path d="M203.231 395.928C235.362 395.928 261.408 369.881 261.408 337.751C261.408 305.621 235.362 279.574 203.231 279.574C171.101 279.574 145.055 305.621 145.055 337.751C145.055 369.881 171.101 395.928 203.231 395.928Z" fill="#FFBF4D"/>
<path d="M203.715 279.574C219.529 289.978 229.999 307.882 229.999 328.227C229.999 360.362 203.956 386.404 171.822 386.404C171.668 386.404 171.514 386.404 171.338 386.382C180.51 392.409 191.463 395.928 203.253 395.928C235.387 395.928 261.429 369.886 261.429 337.751C261.429 305.792 235.629 279.838 203.715 279.574Z" fill="#FF9F50"/>
<defs>
<linearGradient id="paint0_linear_22_14543" x1="522.096" y1="794.771" x2="522.096" y2="741.864" gradientUnits="userSpaceOnUse">
<stop stop-color="white"/>
<stop offset="1" stop-color="white" stop-opacity="0"/>
</linearGradient>
</defs>
</svg>
