<svg width="1127" height="632" viewBox="0 0 1127 632" fill="none" xmlns="http://www.w3.org/2000/svg">
<path d="M321.773 428L323.919 619.128C323.919 619.128 200.425 619.128 229.353 490.15C229.353 490.15 255.474 415.945 321.773 428Z" fill="#3EC6C9"/>
<path d="M97.8418 623.866C76.2787 623.866 58.3822 620.793 44.1523 614.648C29.9224 608.502 19.1373 600.472 11.8077 590.552C4.47451 580.636 0.593321 570.069 0.164062 558.855C0.164062 557.131 0.861609 555.571 2.26743 554.165C3.6661 552.767 5.34021 552.062 7.27903 552.062H48.0335C51.0491 552.062 53.3707 552.602 54.9875 553.679C56.6044 554.759 58.0603 556.161 59.3552 557.882C61.0794 561.116 63.5047 564.246 66.6311 567.261C69.754 570.284 73.8534 572.709 78.9222 574.537C83.9875 576.372 90.294 577.288 97.8454 577.288C110.348 577.288 119.784 575.346 126.148 571.464C132.504 567.583 135.688 562.303 135.688 555.614C135.688 550.874 133.96 546.936 130.512 543.809C127.06 540.687 121.505 537.882 113.853 535.4C106.198 532.924 96.0067 530.384 83.2864 527.798C66.8959 524.35 52.9342 519.875 41.4015 514.377C29.8652 508.879 21.0761 501.656 15.0414 492.706C9.0032 483.76 5.9841 472.603 5.9841 459.231C5.9841 446.082 9.70432 434.327 17.1412 423.975C24.5817 413.626 34.9805 405.538 48.3519 399.718C61.7197 393.895 77.5665 390.986 95.8994 390.986C110.777 390.986 123.876 392.929 135.198 396.81C146.52 400.691 156.06 405.867 163.822 412.335C171.585 418.802 177.459 425.653 181.451 432.875C185.439 440.101 187.539 447.162 187.757 454.059C187.757 455.786 187.11 457.35 185.818 458.748C184.523 460.154 182.907 460.852 180.968 460.852H138.274C135.899 460.852 133.853 460.422 132.129 459.557C130.401 458.698 128.895 457.292 127.6 455.354C126.305 450.614 122.911 446.461 117.412 442.902C111.914 439.342 104.742 437.564 95.903 437.564C86.4128 437.564 79.0295 439.239 73.7461 442.58C68.4591 445.924 65.8227 451.043 65.8227 457.944C65.8227 462.258 67.2786 466.028 70.1904 469.265C73.1022 472.499 77.9528 475.303 84.7458 477.675C91.5389 480.05 100.861 482.526 112.723 485.116C132.34 488.786 148.19 493.364 160.27 498.863C172.343 504.361 181.182 511.476 186.791 520.211C192.397 528.943 195.201 539.889 195.201 553.042C195.201 567.708 191.048 580.372 182.749 591.046C174.447 601.72 162.964 609.862 148.301 615.467C133.635 621.062 116.815 623.866 97.8418 623.866Z" fill="black"/>
<path d="M696.2 620.634C693.824 620.634 691.886 619.879 690.38 618.37C688.87 616.864 688.115 614.921 688.115 612.55V402.313C688.115 399.942 688.87 398.003 690.38 396.49C691.886 394.984 693.828 394.225 696.2 394.225H730.483C734.146 394.225 736.79 395.034 738.406 396.651C740.023 398.267 741.043 399.512 741.479 400.371L820.398 524.895V402.31C820.398 399.938 821.15 397.999 822.663 396.486C824.169 394.98 826.111 394.222 828.483 394.222H867.295C869.667 394.222 871.605 394.98 873.115 396.486C874.621 397.996 875.379 399.938 875.379 402.31V612.546C875.379 614.703 874.621 616.588 873.115 618.205C871.605 619.822 869.663 620.63 867.295 620.63H832.686C829.234 620.63 826.701 619.772 825.084 618.044C823.468 616.32 822.441 615.132 822.012 614.485L743.092 494.811V612.543C743.092 614.918 742.334 616.857 740.828 618.363C739.319 619.872 737.376 620.627 735.005 620.627H696.2V620.634Z" fill="black"/>
<path d="M903.684 395.194L918.872 565.871H950.695L965.157 394.472C965.157 394.472 905.855 395.194 903.684 395.194Z" fill="black"/>
<path d="M955.911 576.205H914.244V622.29H955.911V576.205Z" fill="black"/>
<path d="M322.046 631.262C293.547 631.262 266.758 620.166 246.607 600.012C226.457 579.862 215.357 553.069 215.357 524.573C215.357 496.078 226.454 469.285 246.607 449.135C266.761 428.985 293.55 417.885 322.046 417.885C350.542 417.885 377.335 428.981 397.485 449.135C417.635 469.285 428.735 496.078 428.735 524.573C428.735 553.069 417.638 579.862 397.485 600.015C377.335 620.162 350.545 631.262 322.046 631.262ZM322.046 433.152C271.637 433.152 230.625 474.164 230.625 524.573C230.625 574.983 271.637 615.995 322.046 615.995C372.455 615.995 413.467 574.983 413.467 524.573C413.467 474.164 372.455 433.152 322.046 433.152Z" fill="black"/>
<path d="M321.633 463.817C320.488 463.817 319.555 462.883 319.555 461.739V449.269C319.555 448.124 320.488 447.19 321.633 447.19C322.778 447.19 323.711 448.124 323.711 449.269V461.739C323.711 462.88 322.774 463.817 321.633 463.817Z" fill="#231F20"/>
<path d="M288.522 473.772C287.531 474.345 286.254 474.001 285.682 473.011L279.447 462.211C278.875 461.22 279.218 459.943 280.209 459.371C281.2 458.798 282.477 459.142 283.049 460.133L289.284 470.932C289.853 471.923 289.513 473.204 288.522 473.772Z" fill="#231F20"/>
<path d="M267.613 497.342C267.04 498.333 265.763 498.673 264.772 498.104L253.973 491.869C252.982 491.297 252.642 490.019 253.211 489.029C253.783 488.038 255.06 487.698 256.051 488.267L266.851 494.502C267.842 495.074 268.185 496.351 267.613 497.342Z" fill="#231F20"/>
<path d="M261.293 528.206C261.293 529.351 260.359 530.285 259.214 530.285H246.744C245.6 530.285 244.666 529.351 244.666 528.206C244.666 527.062 245.6 526.128 246.744 526.128H259.214C260.359 526.128 261.293 527.062 261.293 528.206Z" fill="#231F20"/>
<path d="M271.253 558.097C271.825 559.088 271.482 560.365 270.491 560.937L259.692 567.172C258.701 567.744 257.424 567.401 256.851 566.41C256.279 565.419 256.622 564.142 257.613 563.57L268.413 557.335C269.404 556.762 270.681 557.106 271.253 558.097Z" fill="#231F20"/>
<path d="M294.818 579.003C295.808 579.575 296.148 580.852 295.579 581.843L289.345 592.642C288.772 593.633 287.495 593.973 286.504 593.404C285.513 592.832 285.174 591.555 285.742 590.564L291.977 579.765C292.55 578.774 293.83 578.43 294.818 579.003Z" fill="#231F20"/>
<path d="M323.535 585.322C324.68 585.322 325.614 586.256 325.614 587.401V599.871C325.614 601.015 324.68 601.949 323.535 601.949C322.391 601.949 321.457 601.015 321.457 599.871V587.401C321.457 586.259 322.394 585.322 323.535 585.322Z" fill="#231F20"/>
<path d="M355.573 575.368C356.563 574.796 357.841 575.139 358.413 576.13L364.648 586.929C365.22 587.92 364.877 589.197 363.886 589.77C362.895 590.342 361.618 589.998 361.046 589.008L354.811 578.208C354.242 577.217 354.582 575.937 355.573 575.368Z" fill="#231F20"/>
<path d="M376.48 551.797C377.053 550.806 378.33 550.467 379.32 551.035L390.12 557.27C391.111 557.843 391.451 559.12 390.882 560.111C390.31 561.101 389.032 561.441 388.042 560.872L377.242 554.637C376.251 554.065 375.908 552.788 376.48 551.797Z" fill="#231F20"/>
<path d="M382.805 520.936C382.805 519.791 383.738 518.857 384.883 518.857H397.353C398.498 518.857 399.431 519.791 399.431 520.936C399.431 522.08 398.498 523.014 397.353 523.014H384.883C383.738 523.014 382.805 522.08 382.805 520.936Z" fill="#231F20"/>
<path d="M372.844 491.044C372.271 490.053 372.615 488.776 373.605 488.203L384.405 481.968C385.396 481.396 386.673 481.74 387.245 482.73C387.817 483.721 387.474 484.998 386.483 485.571L375.684 491.806C374.693 492.378 373.416 492.035 372.844 491.044Z" fill="#231F20"/>
<path d="M349.278 470.139C348.287 469.567 347.947 468.29 348.516 467.299L354.751 456.499C355.323 455.508 356.6 455.169 357.591 455.737C358.582 456.31 358.922 457.587 358.353 458.578L352.114 469.377C351.546 470.368 350.265 470.711 349.278 470.139Z" fill="#231F20"/>
<path d="M322.133 530.091C325.448 530.091 328.136 527.403 328.136 524.088C328.136 520.773 325.448 518.086 322.133 518.086C318.818 518.086 316.131 520.773 316.131 524.088C316.131 527.403 318.818 530.091 322.133 530.091Z" fill="#231F20"/>
<path d="M321.521 520.289C320.713 520.289 320.051 519.627 320.051 518.819V481.094C320.051 480.286 320.713 479.624 321.521 479.624C322.329 479.624 322.991 480.286 322.991 481.094V518.819C322.991 519.627 322.329 520.289 321.521 520.289Z" fill="#231F20"/>
<path d="M397.376 540.815L325.539 523.13C324.688 522.919 323.822 523.444 323.611 524.296C323.4 525.147 323.926 526.013 324.777 526.224L396.614 543.909C397.465 544.12 398.331 543.595 398.542 542.743C398.753 541.892 398.227 541.026 397.376 540.815Z" fill="#231F20"/>
<path d="M343.853 390.078H300.24V409.717H311.816V422.534H333.311V409.717H343.853V390.078Z" fill="black"/>
<path d="M333.72 397.14H310.375V401.672H333.72V397.14Z" fill="#3EC6C9"/>
<path d="M561.176 428L559.029 619.128C559.029 619.128 682.523 619.128 653.595 490.15C653.595 490.15 627.475 415.945 561.176 428Z" fill="#3EC6C9"/>
<path d="M560.235 631.262C531.736 631.262 504.947 620.166 484.797 600.012C464.647 579.862 453.547 553.069 453.547 524.573C453.547 496.078 464.643 469.285 484.797 449.135C504.951 428.985 531.74 417.885 560.235 417.885C588.731 417.885 615.524 428.981 635.674 449.135C655.824 469.285 666.924 496.078 666.924 524.573C666.924 553.069 655.828 579.862 635.674 600.015C615.524 620.162 588.735 631.262 560.235 631.262ZM560.235 433.152C509.826 433.152 468.814 474.164 468.814 524.573C468.814 574.983 509.826 615.995 560.235 615.995C610.645 615.995 651.657 574.983 651.657 524.573C651.657 474.164 610.645 433.152 560.235 433.152Z" fill="black"/>
<path d="M559.821 463.817C558.676 463.817 557.742 462.883 557.742 461.739V449.269C557.742 448.124 558.676 447.19 559.821 447.19C560.965 447.19 561.899 448.124 561.899 449.269V461.739C561.899 462.88 560.962 463.817 559.821 463.817Z" fill="#231F20"/>
<path d="M526.712 473.772C525.721 474.345 524.444 474.001 523.871 473.011L517.636 462.211C517.064 461.22 517.407 459.943 518.398 459.371C519.389 458.798 520.666 459.142 521.239 460.133L527.474 470.932C528.042 471.923 527.703 473.204 526.712 473.772Z" fill="#231F20"/>
<path d="M505.806 497.342C505.234 498.333 503.957 498.673 502.966 498.104L492.166 491.869C491.175 491.297 490.836 490.019 491.404 489.029C491.977 488.038 493.254 487.698 494.245 488.267L505.044 494.502C506.035 495.074 506.375 496.351 505.806 497.342Z" fill="#231F20"/>
<path d="M499.482 528.206C499.482 529.351 498.549 530.285 497.404 530.285H484.934C483.789 530.285 482.855 529.351 482.855 528.206C482.855 527.062 483.789 526.128 484.934 526.128H497.404C498.549 526.128 499.482 527.062 499.482 528.206Z" fill="#231F20"/>
<path d="M509.44 558.097C510.013 559.088 509.669 560.365 508.679 560.937L497.879 567.172C496.888 567.744 495.611 567.401 495.039 566.41C494.466 565.419 494.81 564.142 495.801 563.57L506.6 557.335C507.591 556.762 508.868 557.106 509.44 558.097Z" fill="#231F20"/>
<path d="M533.009 579.003C534 579.575 534.34 580.852 533.771 581.843L527.536 592.642C526.964 593.633 525.687 593.973 524.696 593.404C523.705 592.832 523.365 591.555 523.934 590.564L530.169 579.765C530.741 578.774 532.018 578.43 533.009 579.003Z" fill="#231F20"/>
<path d="M561.727 585.322C562.871 585.322 563.805 586.256 563.805 587.401V599.871C563.805 601.015 562.871 601.949 561.727 601.949C560.582 601.949 559.648 601.015 559.648 599.871V587.401C559.648 586.259 560.582 585.322 561.727 585.322Z" fill="#231F20"/>
<path d="M593.759 575.368C594.75 574.796 596.027 575.139 596.6 576.13L602.835 586.929C603.407 587.92 603.063 589.197 602.073 589.77C601.082 590.342 599.805 589.998 599.232 589.008L592.997 578.208C592.429 577.217 592.772 575.937 593.759 575.368Z" fill="#231F20"/>
<path d="M614.67 551.797C615.242 550.806 616.519 550.467 617.51 551.035L628.309 557.27C629.3 557.843 629.64 559.12 629.071 560.111C628.499 561.101 627.222 561.441 626.231 560.872L615.432 554.637C614.441 554.065 614.097 552.788 614.67 551.797Z" fill="#231F20"/>
<path d="M620.988 520.936C620.988 519.791 621.922 518.857 623.067 518.857H635.537C636.681 518.857 637.615 519.791 637.615 520.936C637.615 522.08 636.681 523.014 635.537 523.014H623.067C621.922 523.014 620.988 522.08 620.988 520.936Z" fill="#231F20"/>
<path d="M611.033 491.044C610.461 490.053 610.804 488.776 611.795 488.203L622.594 481.968C623.585 481.396 624.862 481.74 625.435 482.73C626.007 483.721 625.664 484.998 624.673 485.571L613.873 491.806C612.882 492.378 611.605 492.035 611.033 491.044Z" fill="#231F20"/>
<path d="M587.463 470.139C586.472 469.567 586.133 468.29 586.701 467.299L592.936 456.499C593.509 455.508 594.786 455.169 595.777 455.737C596.767 456.31 597.107 457.587 596.538 458.578L590.303 469.377C589.731 470.368 588.454 470.711 587.463 470.139Z" fill="#231F20"/>
<path d="M560.323 530.091C563.638 530.091 566.325 527.403 566.325 524.088C566.325 520.773 563.638 518.086 560.323 518.086C557.008 518.086 554.32 520.773 554.32 524.088C554.32 527.403 557.008 530.091 560.323 530.091Z" fill="#231F20"/>
<path d="M559.709 520.289C558.9 520.289 558.238 519.627 558.238 518.819V481.094C558.238 480.286 558.9 479.624 559.709 479.624C560.517 479.624 561.179 480.286 561.179 481.094V518.819C561.179 519.627 560.517 520.289 559.709 520.289Z" fill="#231F20"/>
<path d="M510.406 579.728L561.838 526.547C562.446 525.917 562.429 524.905 561.799 524.293C561.169 523.685 560.157 523.703 559.549 524.333L508.117 577.514C507.508 578.144 507.526 579.156 508.156 579.768C508.786 580.372 509.798 580.358 510.406 579.728Z" fill="#231F20"/>
<path d="M582.046 390.078H538.43V409.717H550.005V422.534H571.504V409.717H582.046V390.078Z" fill="black"/>
<path d="M571.909 397.14H548.564V401.672H571.909V397.14Z" fill="#3EC6C9"/>
<path d="M150.555 598.727C150.258 598.405 150.881 597.275 152.244 595.5C153.603 593.726 155.71 591.311 158.278 588.367C160.836 585.413 163.855 581.921 166.82 577.854C169.789 573.798 172.648 569.104 174.772 563.864C175.821 561.242 176.615 558.616 177.144 556.048C177.681 553.479 177.917 550.95 177.906 548.579C177.877 543.8 176.819 539.511 175.431 536.127C174.719 534.442 173.953 532.957 173.191 531.691C173.012 531.365 172.798 531.083 172.619 530.79C172.429 530.503 172.261 530.21 172.075 529.952C171.696 529.445 171.371 528.947 171.052 528.522C170.723 528.103 170.441 527.72 170.197 527.373C169.95 527.034 169.725 526.755 169.568 526.497C169.242 525.989 169.124 525.631 169.249 525.452C169.375 525.274 169.739 525.288 170.34 525.485C170.637 525.588 171.006 525.721 171.403 525.932C171.796 526.15 172.243 526.418 172.741 526.737C173.227 527.062 173.732 527.477 174.297 527.924C174.576 528.153 174.837 528.418 175.123 528.683C175.398 528.954 175.71 529.223 175.989 529.538C177.141 530.761 178.314 532.292 179.416 534.116C181.58 537.772 183.333 542.676 183.715 548.353C183.901 551.197 183.755 554.173 183.218 557.185C182.689 560.197 181.816 563.241 180.625 566.214C178.217 572.156 174.865 577.257 171.41 581.421C167.958 585.595 164.452 588.911 161.422 591.533C158.378 594.145 155.792 596.076 153.914 597.303C152.029 598.527 150.852 599.045 150.555 598.727Z" fill="white"/>
<path d="M33.0513 483.113C32.9118 483.281 32.6328 483.317 32.2178 483.224C32.0104 483.178 31.7707 483.103 31.4988 482.992C31.227 482.884 30.9229 482.745 30.6045 482.555C29.2989 481.843 27.5997 480.531 25.804 478.57C25.3389 478.091 24.9204 477.54 24.459 476.975C24.0082 476.406 23.5826 475.78 23.1318 475.136C22.7205 474.471 22.2626 473.791 21.8763 473.047C21.6795 472.679 21.4685 472.307 21.2753 471.92C21.0893 471.527 20.9033 471.133 20.7173 470.729C20.0054 469.105 19.3401 467.345 18.8786 465.453C18.4064 463.564 18.0809 461.565 17.9486 459.493C17.8377 457.422 17.9307 455.394 18.1811 453.466C18.4172 451.534 18.8751 449.71 19.3937 448.014C19.5332 447.596 19.6727 447.177 19.8122 446.769C19.9589 446.362 20.1235 445.968 20.2773 445.578C20.5742 444.795 20.9498 444.069 21.2825 443.36C21.6509 442.666 22.0051 441.998 22.3842 441.379C22.7777 440.767 23.1283 440.17 23.5361 439.64C25.0886 437.487 26.6267 435.984 27.8394 435.126C28.1327 434.9 28.4153 434.725 28.6764 434.589C28.934 434.45 29.1629 434.346 29.3633 434.274C29.7639 434.135 30.0465 434.139 30.2039 434.289C30.8764 434.929 29.2058 437.53 27.4173 441.833C27.1776 442.362 26.9844 442.945 26.7483 443.529C26.523 444.119 26.3263 444.745 26.1045 445.378C25.922 446.029 25.686 446.684 25.5214 447.381C25.432 447.728 25.3318 448.075 25.246 448.433C25.1673 448.791 25.085 449.152 25.0063 449.52C24.7129 450.99 24.4375 452.536 24.3231 454.153C24.1943 455.766 24.1585 457.433 24.2479 459.136C24.3588 460.835 24.5878 462.491 24.9026 464.076C25.203 465.668 25.6609 467.17 26.1223 468.597C26.244 468.951 26.3656 469.302 26.4872 469.649C26.6124 469.992 26.7555 470.325 26.8807 470.661C27.1239 471.337 27.4352 471.956 27.6927 472.582C27.9896 473.187 28.2579 473.784 28.5477 474.346C28.8481 474.897 29.1057 475.455 29.4062 475.952C31.6848 480.012 33.6451 482.401 33.0513 483.113Z" fill="white"/>
<path d="M858.093 511.269C858.193 486.534 856.864 466.477 855.123 466.47C853.383 466.463 851.89 486.509 851.79 511.243C851.689 535.978 853.018 556.035 854.759 556.042C856.499 556.049 857.992 536.004 858.093 511.269Z" fill="white"/>
<path d="M76.4938 350.912C60.8653 350.912 47.501 348.365 36.3975 343.264C25.2941 338.167 16.6588 330.68 10.4882 320.81C4.32118 310.941 0.904999 298.689 0.246803 284.048C0.0822536 277.305 0 270.068 0 262.334C0 254.604 0.0822536 247.203 0.246803 240.127C0.901422 225.815 4.35694 213.689 10.6098 203.734C16.8591 193.782 25.5766 186.216 36.7659 181.033C47.9517 175.853 61.1943 173.26 76.4903 173.26C87.3469 173.26 97.3773 174.616 106.592 177.331C115.803 180.046 123.862 183.991 130.774 189.175C137.685 194.358 143.068 200.611 146.935 207.926C150.798 215.248 152.816 223.512 152.981 232.723C153.141 234.204 152.691 235.438 151.625 236.425C150.552 237.412 149.282 237.906 147.801 237.906H114.49C112.351 237.906 110.706 237.455 109.554 236.55C108.402 235.649 107.415 233.96 106.592 231.492C104.288 222.775 100.547 216.812 95.3669 213.603C90.1872 210.394 83.8091 208.792 76.2434 208.792C67.1968 208.792 60.0389 211.303 54.7769 216.318C49.5113 221.337 46.6353 229.686 46.1417 241.362C45.6481 254.851 45.6481 268.67 46.1417 282.814C46.6353 294.497 49.5113 302.842 54.7769 307.857C60.0389 312.876 67.1932 315.384 76.2434 315.384C83.8091 315.384 90.2229 313.742 95.4885 310.447C100.751 307.16 104.453 301.236 106.592 292.683C107.247 290.215 108.195 288.53 109.429 287.625C110.663 286.724 112.348 286.269 114.487 286.269H147.797C149.278 286.269 150.552 286.763 151.621 287.75C152.691 288.737 153.141 289.972 152.977 291.452C152.812 300.667 150.795 308.934 146.932 316.249C143.065 323.572 137.677 329.821 130.77 335.001C123.862 340.184 115.8 344.13 106.588 346.845C97.3808 349.556 87.3505 350.912 76.4938 350.912Z" fill="black"/>
<path d="M249.458 350.911C234.323 350.911 221.163 348.443 209.981 343.51C198.792 338.574 190.078 331.133 183.825 321.182C177.572 311.23 174.116 298.771 173.462 283.8C173.297 276.728 173.215 269.656 173.215 262.581C173.215 255.509 173.297 248.354 173.462 241.114C174.116 226.308 177.615 213.849 183.946 203.733C190.278 193.617 199.035 186.012 210.224 180.911C221.41 175.813 234.484 173.263 249.455 173.263C264.261 173.263 277.292 175.813 288.564 180.911C299.828 186.012 308.674 193.617 315.088 203.733C321.502 213.849 324.958 226.308 325.451 241.114C325.78 248.354 325.945 255.509 325.945 262.581C325.945 269.656 325.78 276.728 325.451 283.8C324.793 298.771 321.338 311.23 315.088 321.182C308.835 331.137 300.118 338.577 288.932 343.51C277.746 348.443 264.59 350.911 249.458 350.911ZM249.458 315.383C258.176 315.383 265.287 312.754 270.8 307.488C276.308 302.226 279.227 293.838 279.56 282.319C279.889 275.083 280.054 268.254 280.054 261.84C280.054 255.426 279.889 248.762 279.56 241.855C279.227 234.124 277.789 227.832 275.242 222.978C272.692 218.127 269.197 214.55 264.758 212.247C260.315 209.946 255.218 208.791 249.458 208.791C243.864 208.791 238.848 209.943 234.406 212.247C229.963 214.55 226.425 218.131 223.796 222.978C221.163 227.832 219.682 234.124 219.353 241.855C219.188 248.762 219.106 255.426 219.106 261.84C219.106 268.254 219.188 275.083 219.353 282.319C219.847 293.834 222.808 302.223 228.235 307.488C233.665 312.75 240.737 315.383 249.458 315.383Z" fill="black"/>
<path d="M360.733 348.443C359.088 348.443 357.65 347.867 356.416 346.715C355.182 345.567 354.566 344.086 354.566 342.272V181.894C354.566 180.088 355.182 178.607 356.416 177.451C357.65 176.303 359.088 175.724 360.733 175.724H387.38C390.009 175.724 392.026 176.425 393.425 177.82C394.82 179.219 395.686 180.331 396.015 181.15L439.442 259.121L482.868 181.15C483.362 180.327 484.224 179.219 485.458 177.82C486.692 176.425 488.703 175.724 491.503 175.724H517.903C519.709 175.724 521.233 176.303 522.467 177.451C523.701 178.603 524.317 180.084 524.317 181.894V342.276C524.317 344.089 523.701 345.567 522.467 346.719C521.233 347.871 519.709 348.446 517.903 348.446H488.542C486.728 348.446 485.211 347.871 483.977 346.719C482.743 345.57 482.128 344.089 482.128 342.276V249.749L454.247 301.317C453.589 302.798 452.602 304.115 451.285 305.267C449.965 306.418 448.159 306.994 445.859 306.994H433.028C430.724 306.994 428.914 306.418 427.601 305.267C426.281 304.118 425.215 302.798 424.392 301.317L396.512 249.749V342.276C396.512 344.089 395.933 345.567 394.784 346.719C393.632 347.871 392.152 348.446 390.342 348.446H360.733V348.443Z" fill="black"/>
<path d="M564.786 348.443C562.976 348.443 561.495 347.867 560.347 346.715C559.195 345.567 558.619 344.086 558.619 342.272V181.894C558.619 180.088 559.195 178.607 560.347 177.451C561.495 176.303 562.976 175.724 564.786 175.724H597.85C599.656 175.724 601.137 176.303 602.293 177.451C603.441 178.603 604.02 180.084 604.02 181.894V342.276C604.02 344.089 603.441 345.567 602.293 346.719C601.141 347.871 599.66 348.446 597.85 348.446H564.786V348.443Z" fill="black"/>
<path d="M644.723 348.443C642.91 348.443 641.432 347.867 640.281 346.715C639.129 345.567 638.553 344.086 638.553 342.272V181.894C638.553 180.088 639.129 178.607 640.281 177.451C641.429 176.303 642.91 175.724 644.723 175.724H670.88C673.673 175.724 675.691 176.339 676.925 177.573C678.159 178.807 678.939 179.755 679.268 180.41L739.471 275.405V181.894C739.471 180.088 740.047 178.607 741.199 177.451C742.347 176.303 743.828 175.724 745.642 175.724H775.25C777.057 175.724 778.538 176.303 779.693 177.451C780.841 178.603 781.421 180.084 781.421 181.894V342.276C781.421 343.921 780.841 345.359 779.693 346.594C778.541 347.828 777.06 348.443 775.25 348.443H748.851C746.218 348.443 744.286 347.788 743.052 346.468C741.818 345.156 741.035 344.247 740.709 343.753L680.506 252.461V342.272C680.506 344.086 679.926 345.563 678.778 346.715C677.626 347.867 676.145 348.443 674.335 348.443H644.723Z" fill="black"/>
<path d="M887.271 350.912C871.642 350.912 858.196 348.322 846.928 343.139C835.66 337.959 826.942 330.393 820.771 320.438C814.604 310.487 811.188 298.356 810.53 284.044C810.365 276.972 810.283 269.449 810.283 261.469C810.283 253.492 810.365 245.887 810.53 238.647C811.185 224.667 814.64 212.823 820.893 203.115C827.142 193.41 835.946 186.009 847.292 180.908C858.643 175.81 871.968 173.26 887.264 173.26C899.601 173.26 910.536 174.784 920.08 177.824C929.617 180.868 937.637 184.943 944.137 190.037C950.633 195.138 955.569 200.732 958.943 206.813C962.312 212.902 964.083 218.904 964.247 224.824C964.408 226.305 963.958 227.539 962.892 228.527C961.819 229.514 960.549 230.008 959.068 230.008H923.042C921.229 230.008 919.873 229.722 918.971 229.146C918.066 228.57 917.283 227.708 916.628 226.556C915.477 224.088 913.792 221.498 911.57 218.783C909.349 216.068 906.305 213.725 902.441 211.75C898.575 209.775 893.516 208.788 887.267 208.788C877.891 208.788 870.526 211.256 865.185 216.189C859.838 221.126 856.919 229.02 856.425 239.877C855.931 254.025 855.931 268.337 856.425 282.81C856.919 294.325 859.959 302.635 865.554 307.732C871.145 312.833 878.546 315.38 887.761 315.38C894.01 315.38 899.562 314.311 904.416 312.171C909.267 310.036 913.091 306.705 915.888 302.177C918.682 297.655 920.084 291.857 920.084 284.781V280.091H896.89C895.076 280.091 893.559 279.476 892.325 278.242C891.091 277.008 890.476 275.488 890.476 273.678V255.42C890.476 253.613 891.091 252.089 892.325 250.855C893.559 249.621 895.08 249.006 896.89 249.006H959.068C960.874 249.006 962.355 249.621 963.511 250.855C964.659 252.089 965.238 253.613 965.238 255.42V283.547C965.238 297.695 962.03 309.785 955.616 319.819C949.202 329.853 940.109 337.548 928.351 342.888C916.589 348.24 902.896 350.912 887.271 350.912Z" fill="black"/>
<path d="M87.8987 335.101C87.9487 335.312 87.7162 335.58 87.2154 335.895C86.965 336.052 86.6502 336.224 86.271 336.403C85.8918 336.589 85.4483 336.778 84.9403 336.953C84.4324 337.136 83.8636 337.326 83.234 337.519C82.6044 337.705 81.914 337.866 81.1664 338.048C80.4224 338.241 79.6139 338.366 78.7554 338.524C77.8969 338.688 76.9847 338.789 76.0225 338.899C75.0602 339.028 74.0479 339.068 72.9891 339.139C72.4596 339.182 71.9195 339.175 71.3686 339.189C70.8177 339.196 70.2561 339.211 69.6838 339.203C69.1114 339.186 68.5319 339.164 67.9417 339.146C67.6448 339.136 67.3479 339.128 67.0474 339.107C66.7469 339.082 66.4464 339.06 66.1424 339.035C65.5343 338.982 64.9154 338.939 64.293 338.871C63.6706 338.789 63.0374 338.706 62.4007 338.624C61.7604 338.549 61.1201 338.42 60.469 338.309C59.818 338.191 59.1562 338.087 58.498 337.926C57.8362 337.776 57.1709 337.622 56.4984 337.472C55.833 337.29 55.1605 337.104 54.4809 336.918C51.7801 336.124 49.0293 335.118 46.3071 333.874C43.5956 332.604 41.0487 331.158 38.6949 329.613C38.1118 329.216 37.5359 328.823 36.9671 328.436C36.4163 328.021 35.869 327.614 35.3252 327.206C34.7779 326.809 34.27 326.369 33.7584 325.954C33.2505 325.528 32.7389 325.124 32.2668 324.684C31.791 324.251 31.3188 323.822 30.8538 323.4C30.3995 322.967 29.9666 322.523 29.5302 322.094C29.3156 321.879 29.1009 321.665 28.8899 321.45C28.6824 321.235 28.4821 321.01 28.2818 320.792C27.8847 320.355 27.4948 319.926 27.1085 319.501C26.7329 319.068 26.3823 318.631 26.0282 318.209C25.6812 317.78 25.3271 317.376 25.0159 316.943C24.3863 316.088 23.7603 315.294 23.238 314.475C22.7014 313.666 22.1863 312.908 21.7571 312.146C21.3207 311.391 20.895 310.694 20.5587 310.003C20.2153 309.316 19.8934 308.683 19.6251 308.086C19.3675 307.481 19.1458 306.923 18.9526 306.419C18.7559 305.918 18.6163 305.457 18.509 305.049C18.4017 304.641 18.3266 304.29 18.2873 304.001C18.205 303.418 18.2586 303.067 18.4518 302.967C18.645 302.867 18.9705 303.024 19.4104 303.407C19.6286 303.597 19.8791 303.847 20.1509 304.147C20.4335 304.466 20.7412 304.813 21.0738 305.188C21.4172 305.578 21.7857 306.018 22.1756 306.505C22.587 306.988 23.0234 307.503 23.4884 308.05C23.9391 308.615 24.4721 309.18 25.0015 309.799C25.5238 310.425 26.1248 311.044 26.7293 311.713C27.3231 312.389 28.0099 313.044 28.6824 313.752C29.0151 314.11 29.3871 314.446 29.752 314.804C30.1205 315.154 30.4853 315.523 30.8681 315.88C31.258 316.235 31.6551 316.592 32.0593 316.957C32.2596 317.14 32.4599 317.326 32.6674 317.508C32.8784 317.687 33.0895 317.866 33.3041 318.045C33.7334 318.402 34.1591 318.778 34.6026 319.139C35.0534 319.493 35.5112 319.855 35.9727 320.22C36.427 320.595 36.917 320.931 37.4 321.293C37.8865 321.647 38.3658 322.022 38.8809 322.359C39.3889 322.706 39.9004 323.056 40.4155 323.41C40.9449 323.743 41.4815 324.083 42.0181 324.423C44.1894 325.753 46.5038 327.02 48.947 328.164C51.3974 329.284 53.862 330.232 56.2838 331.026C56.8919 331.216 57.4964 331.405 58.0902 331.595C58.6947 331.759 59.2921 331.924 59.8859 332.085C60.4762 332.26 61.07 332.382 61.6567 332.525C62.2433 332.661 62.8192 332.815 63.3987 332.918C63.9747 333.033 64.5434 333.151 65.1086 333.262C65.6738 333.366 66.2318 333.448 66.7827 333.541C67.0581 333.587 67.3336 333.634 67.6055 333.68C67.8773 333.723 68.1492 333.752 68.4174 333.788C68.954 333.859 69.487 333.931 70.0093 333.999C70.5316 334.06 71.0467 334.099 71.5546 334.153C72.0626 334.199 72.5562 334.267 73.0463 334.288C74.0229 334.342 74.9637 334.442 75.8651 334.457C76.7665 334.489 77.6286 334.542 78.4406 334.535C79.2562 334.539 80.0325 334.578 80.7515 334.557C81.4669 334.557 82.143 334.557 82.7797 334.557C83.4021 334.542 83.9781 334.539 84.4968 334.546C84.9976 334.557 85.459 334.564 85.8883 334.575C86.2961 334.589 86.643 334.618 86.9328 334.661C87.5159 334.739 87.8486 334.889 87.8987 335.101Z" fill="white"/>
<path d="M310.788 251.814C310.355 251.856 309.826 250.694 309.228 248.558C308.631 246.426 307.973 243.325 307.175 239.54C306.363 235.759 305.404 231.291 303.963 226.519C302.536 221.751 300.547 216.689 297.706 211.864C296.276 209.464 294.691 207.256 292.999 205.285C291.307 203.307 289.475 201.605 287.601 200.138C283.834 197.201 279.86 195.252 276.397 193.881C274.655 193.213 273.042 192.676 271.604 192.229C270.889 192.018 270.212 191.821 269.583 191.635C268.957 191.47 268.381 191.292 267.859 191.145C267.336 191.002 266.871 190.862 266.467 190.726C266.063 190.594 265.72 190.483 265.441 190.362C264.886 190.125 264.589 189.897 264.6 189.678C264.607 189.46 264.918 189.267 265.512 189.092C265.809 189.006 266.177 188.92 266.61 188.856C267.043 188.795 267.547 188.745 268.113 188.702C268.678 188.662 269.307 188.662 270.001 188.655C270.692 188.666 271.443 188.702 272.251 188.759C273.861 188.895 275.696 189.16 277.699 189.61C281.688 190.548 286.406 192.279 291.017 195.434C293.317 197.008 295.571 198.925 297.606 201.165C299.649 203.397 301.509 205.919 303.129 208.641C306.349 214.107 308.359 219.798 309.575 225.01C310.802 230.229 311.328 234.972 311.593 238.932C311.84 242.896 311.822 246.09 311.672 248.308C311.514 250.529 311.221 251.771 310.788 251.814Z" fill="white"/>
<path d="M511.07 269.431C509.331 269.481 507.478 254.621 506.938 236.235C506.394 217.852 507.367 202.906 509.106 202.853C510.844 202.803 512.697 217.662 513.237 236.049C513.781 254.435 512.812 269.381 511.07 269.431Z" fill="white"/>
<path d="M762.538 290.415C760.796 290.415 759.387 274.597 759.387 255.08C759.387 235.567 760.796 219.745 762.538 219.745C764.28 219.745 765.69 235.563 765.69 255.08C765.69 274.597 764.28 290.415 762.538 290.415Z" fill="white"/>
<path d="M870.618 332.801C870.636 333.091 870.432 333.381 870.013 333.67C869.802 333.814 869.541 333.96 869.226 334.103C868.912 334.25 868.543 334.389 868.125 334.504C867.706 334.626 867.237 334.74 866.719 334.855C866.2 334.955 865.638 335.026 865.027 335.101C864.415 335.187 863.76 335.202 863.063 335.234C862.362 335.273 861.628 335.241 860.852 335.212C860.072 335.198 859.268 335.091 858.42 335.005C857.994 334.965 857.572 334.883 857.132 334.815C856.696 334.74 856.248 334.672 855.798 334.579C855.351 334.475 854.893 334.372 854.431 334.264C853.966 334.161 853.501 334.032 853.033 333.889C852.564 333.749 852.081 333.613 851.602 333.452C851.126 333.281 850.643 333.105 850.153 332.93C848.218 332.175 846.211 331.274 844.261 330.093C842.305 328.927 840.369 327.546 838.538 325.951C836.721 324.338 835.104 322.596 833.694 320.807C832.271 319.026 831.119 317.151 830.124 315.327C829.888 314.865 829.652 314.408 829.42 313.957C829.202 313.503 829.005 313.041 828.804 312.594C828.604 312.147 828.415 311.703 828.254 311.252C828.089 310.809 827.925 310.369 827.767 309.94C827.62 309.503 827.492 309.07 827.363 308.648C827.238 308.223 827.102 307.815 827.009 307.396C826.816 306.566 826.605 305.783 826.494 305.01C826.365 304.245 826.24 303.519 826.19 302.821C826.129 302.124 826.061 301.476 826.068 300.857C826.064 300.242 826.064 299.673 826.097 299.147C826.139 298.618 826.197 298.139 826.261 297.709C826.318 297.28 826.411 296.897 826.519 296.565C826.619 296.232 826.73 295.953 826.848 295.728C827.08 295.273 827.345 295.034 827.635 295.016C827.924 294.998 828.229 295.198 828.536 295.588C828.69 295.781 828.847 296.025 829.005 296.311C829.159 296.597 829.32 296.922 829.506 297.287C830.189 298.75 831.033 300.829 832.171 303.265C832.435 303.88 832.782 304.499 833.093 305.153C833.244 305.483 833.437 305.804 833.612 306.137C833.791 306.47 833.97 306.806 834.152 307.149C834.349 307.486 834.546 307.826 834.746 308.173C834.939 308.523 835.154 308.867 835.376 309.213C835.598 309.56 835.809 309.918 836.037 310.272C836.274 310.623 836.513 310.973 836.756 311.331C837.751 312.741 838.817 314.196 840.055 315.581C841.282 316.976 842.623 318.342 844.086 319.641C845.563 320.922 847.091 322.077 848.633 323.114C850.164 324.166 851.745 325.035 853.269 325.84C853.655 326.033 854.034 326.226 854.413 326.416C854.793 326.598 855.175 326.763 855.547 326.938C855.919 327.114 856.288 327.285 856.66 327.428C857.028 327.582 857.393 327.736 857.751 327.886C858.112 328.026 858.47 328.158 858.824 328.294C859.178 328.423 859.518 328.573 859.865 328.68C860.555 328.906 861.213 329.167 861.857 329.353C864.419 330.168 866.586 330.741 868.128 331.227C868.514 331.367 868.858 331.481 869.162 331.599C869.466 331.721 869.724 331.843 869.938 331.971C870.36 332.24 870.6 332.511 870.618 332.801Z" fill="white"/>
<path d="M949.691 217.305C948.789 217.452 947.752 215.048 945.781 211.671C945.295 210.824 944.726 209.926 944.107 208.981C943.463 208.051 942.78 207.067 941.989 206.091C940.426 204.127 938.519 202.156 936.305 200.367C934.073 198.6 931.73 197.177 929.469 196.089C928.346 195.531 927.233 195.084 926.185 194.662C925.127 194.268 924.125 193.911 923.191 193.621C919.464 192.444 916.892 191.965 916.835 191.053C916.81 190.627 917.432 190.165 918.645 189.786C919.854 189.404 921.657 189.153 923.903 189.221C925.026 189.253 926.253 189.389 927.563 189.618C928.865 189.876 930.253 190.208 931.669 190.713C934.506 191.693 937.489 193.263 940.24 195.442C942.973 197.642 945.162 200.207 946.743 202.757C947.548 204.027 948.181 205.308 948.718 206.52C949.229 207.747 949.634 208.913 949.913 210.001C950.474 212.176 950.628 213.989 950.524 215.256C950.421 216.525 950.109 217.234 949.691 217.305Z" fill="white"/>
<path d="M1042.19 30.1172L1114.88 100.287L971.584 173.3L1042.19 30.1172Z" fill="#3EC6C9"/>
<path d="M962.82 151.593L1037.57 0L1114.53 74.2868L962.82 151.593ZM1038.81 7.15431L972.357 141.927L1107.24 73.1993L1038.81 7.15431Z" fill="#231F20"/>
<path d="M908.168 49.5654L959.278 55.2567L922.351 124.167L908.168 49.5654Z" fill="black"/>
<path d="M909.986 128.793L891.699 32.6064L957.598 39.9432L909.986 128.793ZM896.986 37.5036L911.932 116.104L950.837 43.5025L896.986 37.5036Z" fill="black"/>
<path d="M1014.55 226.513L1108.94 217.538L1097.59 278.851L1014.55 226.513Z" fill="#3EC6C9"/>
<path d="M1113.95 270.358L1022.93 212.991L1126.4 203.154L1113.95 270.358ZM1035.84 216.064L1110.9 263.369L1121.16 207.951L1035.84 216.064Z" fill="#231F20"/>
</svg>
